<svg width="359" height="11" viewBox="0 0 359 11" fill="none" xmlns="http://www.w3.org/2000/svg">
<path opacity="0.3" d="M7.358 10H6.266L1.212 2.034V10H0.148V0.199999H1.24L6.28 8.208V0.199999H7.358V10ZM12.7996 0.116H13.3036C15.0536 0.116 16.6216 1.516 16.6216 3.336V6.906C16.6216 8.74 15.1236 10.112 13.3036 10.112H12.7996C10.8676 10.112 9.49563 8.726 9.49563 6.906V3.336C9.49563 1.516 10.9376 0.116 12.7996 0.116ZM13.2616 0.998H12.8416C11.5816 0.998 10.5736 2.034 10.5736 3.308V6.92C10.5736 8.278 11.5956 9.23 12.8416 9.23H13.2616C14.4516 9.23 15.5436 8.278 15.5436 6.92V3.308C15.5436 2.02 14.4516 0.998 13.2616 0.998ZM26.0884 0.102H26.4664C27.1244 0.102 27.8524 0.213999 28.4124 0.339999L28.3564 1.166C27.7824 1.068 27.0964 0.983999 26.4804 0.983999H26.1444C24.8844 0.983999 23.8764 1.95 23.8764 3.294V6.92C23.8764 8.264 24.8844 9.216 26.1444 9.216H26.4804C27.0964 9.216 27.7824 9.132 28.3564 9.034L28.4124 9.874C27.8524 9.986 27.1244 10.098 26.4664 10.098H26.0884C24.2684 10.098 22.7984 8.81 22.7984 6.892V3.308C22.7984 1.404 24.2684 0.102 26.0884 0.102ZM33.4305 0.116H33.9345C35.6845 0.116 37.2525 1.516 37.2525 3.336V6.906C37.2525 8.74 35.7545 10.112 33.9345 10.112H33.4305C31.4985 10.112 30.1265 8.726 30.1265 6.906V3.336C30.1265 1.516 31.5685 0.116 33.4305 0.116ZM33.8925 0.998H33.4725C32.2125 0.998 31.2045 2.034 31.2045 3.308V6.92C31.2045 8.278 32.2265 9.23 33.4725 9.23H33.8925C35.0825 9.23 36.1745 8.278 36.1745 6.92V3.308C36.1745 2.02 35.0825 0.998 33.8925 0.998ZM48.5306 10H47.4666L47.1866 2.174L44.2606 7.522H43.5606L40.6486 2.174L40.3546 10H39.2906L39.6546 0.199999H40.7186L43.9106 6.178L47.0886 0.199999H48.1526L48.5306 10ZM51.0253 0.199999L55.2113 0.213999C56.6253 0.213999 57.5913 1.278 57.5913 2.622V3.812C57.5913 5.24 56.6253 6.234 55.2113 6.234H52.1033V10H51.0253V0.199999ZM52.1033 1.11V5.338H55.0713C55.8833 5.338 56.5133 4.722 56.5133 3.882V2.566C56.5133 1.782 55.8833 1.11 55.0713 1.11H52.1033ZM65.6311 10H64.4971L63.5731 7.228H59.7931L58.8831 10H57.7491L61.0251 0.199999H62.3551L65.6311 10ZM59.9751 6.332H63.3771L61.6831 1.194L59.9751 6.332ZM67.5673 0.199999H71.7673C73.1813 0.199999 74.1473 1.278 74.1473 2.622V3.812C74.1473 4.932 73.4193 5.814 72.4533 5.996L74.2873 10H73.0553L71.4033 6.234H68.6453V10H67.5673V0.199999ZM68.6453 1.11V5.338H71.6273C72.4393 5.338 73.0693 4.722 73.0693 3.896V2.552C73.0693 1.782 72.4393 1.11 71.6273 1.11H68.6453ZM82.6059 1.082H79.6519V10H78.5599V1.082H75.5219V0.199999H82.6059V1.082ZM90.4183 10H89.2843L88.3603 7.228H84.5803L83.6703 10H82.5363L85.8123 0.199999H87.1423L90.4183 10ZM84.7623 6.332H88.1643L86.4703 1.194L84.7623 6.332ZM102.138 1.096H97.6017V4.582H101.55V5.464H97.6017V9.118H102.138V10H96.5237V0.199999H102.138V1.096ZM103.607 2.748V2.482C103.607 0.634 105.077 0.116 106.379 0.102C107.345 0.102 108.185 0.129999 108.997 0.55L108.913 1.488C108.101 1.026 107.303 1.012 106.421 1.012C105.735 1.026 104.713 1.278 104.713 2.356V2.608C104.713 3.154 105.077 3.602 105.525 3.826L107.891 4.988C108.913 5.45 109.431 6.08 109.431 7.2V7.494C109.431 9.16 108.297 10.112 106.645 10.112C105.119 10.112 104.349 9.944 103.649 9.65L103.719 8.726C104.573 9.076 105.259 9.216 106.715 9.216C107.639 9.216 108.353 8.516 108.353 7.592V7.284C108.353 6.654 107.975 6.164 107.415 5.884L105.007 4.722C104.111 4.302 103.607 3.756 103.607 2.748ZM117.592 1.082H114.638V10H113.546V1.082H110.508V0.199999H117.592V1.082ZM125.093 1.096H120.557V4.582H124.505V5.464H120.557V9.118H125.093V10H119.479V0.199999H125.093V1.096ZM134.301 0.102H134.679C135.337 0.102 136.065 0.213999 136.625 0.339999L136.569 1.166C135.995 1.068 135.309 0.983999 134.693 0.983999H134.357C133.097 0.983999 132.089 1.95 132.089 3.294V6.92C132.089 8.264 133.097 9.216 134.357 9.216H134.693C135.309 9.216 135.995 9.132 136.569 9.034L136.625 9.874C136.065 9.986 135.337 10.098 134.679 10.098H134.301C132.481 10.098 131.011 8.81 131.011 6.892V3.308C131.011 1.404 132.481 0.102 134.301 0.102ZM141.643 0.116H142.147C143.897 0.116 145.465 1.516 145.465 3.336V6.906C145.465 8.74 143.967 10.112 142.147 10.112H141.643C139.711 10.112 138.339 8.726 138.339 6.906V3.336C138.339 1.516 139.781 0.116 141.643 0.116ZM142.105 0.998H141.685C140.425 0.998 139.417 2.034 139.417 3.308V6.92C139.417 8.278 140.439 9.23 141.685 9.23H142.105C143.295 9.23 144.387 8.278 144.387 6.92V3.308C144.387 2.02 143.295 0.998 142.105 0.998ZM154.823 10H153.731L148.677 2.034V10H147.613V0.199999H148.705L153.745 8.208V0.199999H154.823V10ZM163.666 1.082H160.712V10H159.62V1.082H156.582V0.199999H163.666V1.082ZM171.167 1.096H166.631V4.582H170.579V5.464H166.631V9.118H171.167V10H165.553V0.199999H171.167V1.096ZM180.266 10H179.174L174.12 2.034V10H173.056V0.199999H174.148L179.188 8.208V0.199999H180.266V10ZM183.79 10H182.712V0.199999H183.79V10ZM186.418 0.199999H189.932C191.752 0.199999 193.236 1.572 193.236 3.434V6.794C193.236 8.712 191.752 10 189.932 10H186.418V0.199999ZM187.496 1.096V9.118H189.89C191.15 9.118 192.158 8.166 192.158 6.822V3.406C192.158 2.118 191.15 1.096 189.89 1.096H187.496ZM198.505 0.116H199.009C200.759 0.116 202.327 1.516 202.327 3.336V6.906C202.327 8.74 200.829 10.112 199.009 10.112H198.505C196.573 10.112 195.201 8.726 195.201 6.906V3.336C195.201 1.516 196.643 0.116 198.505 0.116ZM198.967 0.998H198.547C197.287 0.998 196.279 2.034 196.279 3.308V6.92C196.279 8.278 197.301 9.23 198.547 9.23H198.967C200.157 9.23 201.249 8.278 201.249 6.92V3.308C201.249 2.02 200.157 0.998 198.967 0.998ZM211.793 0.102H212.171C212.829 0.102 213.557 0.213999 214.117 0.339999L214.061 1.166C213.487 1.068 212.801 0.983999 212.185 0.983999H211.849C210.589 0.983999 209.581 1.95 209.581 3.294V6.92C209.581 8.264 210.589 9.216 211.849 9.216H212.185C212.801 9.216 213.487 9.132 214.061 9.034L214.117 9.874C213.557 9.986 212.829 10.098 212.171 10.098H211.793C209.973 10.098 208.503 8.81 208.503 6.892V3.308C208.503 1.404 209.973 0.102 211.793 0.102ZM219.136 0.116H219.64C221.39 0.116 222.958 1.516 222.958 3.336V6.906C222.958 8.74 221.46 10.112 219.64 10.112H219.136C217.204 10.112 215.832 8.726 215.832 6.906V3.336C215.832 1.516 217.274 0.116 219.136 0.116ZM219.598 0.998H219.178C217.918 0.998 216.91 2.034 216.91 3.308V6.92C216.91 8.278 217.932 9.23 219.178 9.23H219.598C220.788 9.23 221.88 8.278 221.88 6.92V3.308C221.88 2.02 220.788 0.998 219.598 0.998ZM232.315 10H231.223L226.169 2.034V10H225.105V0.199999H226.197L231.237 8.208V0.199999H232.315V10ZM248.058 10H246.994L246.714 2.174L243.788 7.522H243.088L240.176 2.174L239.882 10H238.818L239.182 0.199999H240.246L243.438 6.178L246.616 0.199999H247.68L248.058 10ZM256.097 1.096H251.561V4.582H255.509V5.464H251.561V9.118H256.097V10H250.483V0.199999H256.097V1.096ZM265.196 10H264.104L259.05 2.034V10H257.986V0.199999H259.078L264.118 8.208V0.199999H265.196V10ZM270.638 0.116H271.142C272.892 0.116 274.46 1.516 274.46 3.336V6.906C274.46 8.74 272.962 10.112 271.142 10.112H270.638C268.706 10.112 267.334 8.726 267.334 6.906V3.336C267.334 1.516 268.776 0.116 270.638 0.116ZM271.1 0.998H270.68C269.42 0.998 268.412 2.034 268.412 3.308V6.92C268.412 8.278 269.434 9.23 270.68 9.23H271.1C272.29 9.23 273.382 8.278 273.382 6.92V3.308C273.382 2.02 272.29 0.998 271.1 0.998ZM276.747 0.199999H280.947C282.361 0.199999 283.327 1.278 283.327 2.622V3.812C283.327 4.932 282.599 5.814 281.633 5.996L283.467 10H282.235L280.583 6.234H277.825V10H276.747V0.199999ZM277.825 1.11V5.338H280.807C281.619 5.338 282.249 4.722 282.249 3.896V2.552C282.249 1.782 281.619 1.11 280.807 1.11H277.825ZM291.329 1.096H286.793V4.582H290.741V5.464H286.793V9.118H291.329V10H285.715V0.199999H291.329V1.096ZM292.798 2.748V2.482C292.798 0.634 294.268 0.116 295.57 0.102C296.536 0.102 297.376 0.129999 298.188 0.55L298.104 1.488C297.292 1.026 296.494 1.012 295.612 1.012C294.926 1.026 293.904 1.278 293.904 2.356V2.608C293.904 3.154 294.268 3.602 294.716 3.826L297.082 4.988C298.104 5.45 298.622 6.08 298.622 7.2V7.494C298.622 9.16 297.488 10.112 295.836 10.112C294.31 10.112 293.54 9.944 292.84 9.65L292.91 8.726C293.764 9.076 294.45 9.216 295.906 9.216C296.83 9.216 297.544 8.516 297.544 7.592V7.284C297.544 6.654 297.166 6.164 296.606 5.884L294.198 4.722C293.302 4.302 292.798 3.756 292.798 2.748ZM304.898 0.199999H308.412C310.232 0.199999 311.716 1.572 311.716 3.434V6.794C311.716 8.712 310.232 10 308.412 10H304.898V0.199999ZM305.976 1.096V9.118H308.37C309.63 9.118 310.638 8.166 310.638 6.822V3.406C310.638 2.118 309.63 1.096 308.37 1.096H305.976ZM319.575 1.096H315.039V4.582H318.987V5.464H315.039V9.118H319.575V10H313.961V0.199999H319.575V1.096ZM331.388 1.096H326.852V4.582H330.8V5.464H326.852V9.118H331.388V10H325.774V0.199999H331.388V1.096ZM333.459 0.199999H336.973C338.793 0.199999 340.277 1.572 340.277 3.434V6.794C340.277 8.712 338.793 10 336.973 10H333.459V0.199999ZM334.537 1.096V9.118H336.931C338.191 9.118 339.199 8.166 339.199 6.822V3.406C339.199 2.118 338.191 1.096 336.931 1.096H334.537ZM349.282 10H348.148L347.224 7.228H343.444L342.534 10H341.4L344.676 0.199999H346.006L349.282 10ZM343.626 6.332H347.028L345.334 1.194L343.626 6.332ZM351.26 0.199999H354.774C356.594 0.199999 358.078 1.572 358.078 3.434V6.794C358.078 8.712 356.594 10 354.774 10H351.26V0.199999ZM352.338 1.096V9.118H354.732C355.992 9.118 357 8.166 357 6.822V3.406C357 2.118 355.992 1.096 354.732 1.096H352.338Z" fill="#F5F5F5"/>
</svg>
