<svg width="180" height="37" viewBox="0 0 180 37" fill="none" xmlns="http://www.w3.org/2000/svg">
<g clip-path="url(#clip0_21_618)">
<path d="M69.6617 20.6449L68.3011 19.2842L69.6617 17.9236L71.0224 19.2842L69.6617 20.6449ZM67.4556 19.2842L69.3565 21.1852V36.7934H69.9697V21.1852L71.8707 19.2842L69.9697 17.3832V1.89258H69.3565V17.3804L67.4556 19.2814V19.2842Z" fill="white"/>
<path d="M87.059 5.4118C88.7276 5.4118 89.7719 6.56807 89.7719 8.20869V9.24457C89.7719 10.9356 88.7276 12.0415 87.059 12.0415H84.5701V15.3059H82.6747V5.4118H87.059ZM84.5701 10.5016H86.7734C87.4006 10.5016 87.8765 10.0397 87.8765 9.38455V8.0687C87.8765 7.45557 87.3978 6.95163 86.7734 6.95163H84.5701V10.5016Z" fill="white"/>
<path d="M96.5667 15.3031L95.8584 12.9541H92.6835L91.9836 15.3031H89.993L93.0867 5.409H95.4636L98.5601 15.3031H96.5695H96.5667ZM95.584 11.4451L94.271 6.97682L92.9579 11.4451H95.5868H95.584Z" fill="white"/>
<path d="M104.859 5.4118C106.528 5.4118 107.572 6.56807 107.572 8.20869V9.23057C107.572 10.3532 106.981 11.2379 106.139 11.5599L107.858 15.3059H105.663L104.333 12.0275H102.362V15.3059H100.467V5.4118H104.856H104.859ZM102.37 10.5072H104.574C105.201 10.5072 105.677 10.0509 105.677 9.39575V8.0659C105.677 7.45277 105.198 6.94883 104.574 6.94883H102.37V10.5072Z" fill="white"/>
<path d="M113.815 5.297C115.728 5.297 117.433 6.68284 117.433 8.71261V12.0134C117.433 13.2649 116.775 14.3036 115.812 14.8607L117.528 16.5741L115.582 16.6161L114.328 15.3451C114.16 15.3871 113.997 15.4151 113.72 15.4151H113.34C111.17 15.4151 109.742 13.9592 109.742 12.0134V8.71261C109.742 6.68284 111.315 5.297 113.34 5.297H113.813H113.815ZM113.426 6.81163C112.449 6.81443 111.637 7.57034 111.637 8.66502V12.0638C111.637 13.2117 112.474 13.906 113.426 13.9116H113.731C114.664 13.9116 115.537 13.2285 115.537 12.0638V8.66502C115.537 7.55074 114.664 6.81443 113.731 6.81163H113.424H113.426Z" fill="white"/>
<path d="M127.22 12.1338C127.22 14.3288 125.518 15.4179 123.64 15.4179H123.192C121.198 15.4179 119.633 14.298 119.633 12.1338V5.4118H121.531V12.1338C121.531 13.2929 122.349 13.9116 123.281 13.9116H123.586C124.488 13.9116 125.325 13.2873 125.325 12.1338V5.4118H127.223V12.1338H127.22Z" fill="white"/>
<path d="M131.434 6.92083V9.53853H135.074V11.0476H131.434V13.7884H135.605V15.3003H129.527V5.409H135.605V6.92083H131.434Z" fill="white"/>
<path d="M145.768 5.40338C147.722 5.40338 149.352 6.71923 149.352 8.81899V11.893C149.352 14.0348 147.722 15.3003 145.768 15.3003H142.028V5.40338H145.768ZM143.937 13.7856H145.67C146.645 13.7856 147.451 13.0857 147.451 11.9434V8.7714C147.451 7.67112 146.647 6.92361 145.67 6.92361H143.937V13.7884V13.7856Z" fill="white"/>
<path d="M153.322 6.92083V9.53853H156.961V11.0476H153.322V13.7884H157.493V15.3003H151.415V5.409H157.493V6.92083H153.322Z" fill="white"/>
<path d="M170.055 13.7996V15.303H163.919V5.41736H165.82V13.7996H170.055Z" fill="white"/>
<path d="M178.007 15.3031L177.298 12.9541H174.123L173.424 15.3031H171.433L174.527 5.409H176.904L180 15.3031H178.009H178.007ZM177.024 11.4451L175.711 6.97682L174.398 11.4451H177.027H177.024Z" fill="white"/>
<path d="M97.5158 21.104C100.307 21.104 101.866 22.8454 101.866 25.6535V26.709C101.866 28.2124 101.351 29.4135 100.478 30.1386L102.552 34.6405H97.6138L96.4743 31.2585H95.4384V34.6405H91.1913V21.104H97.5158ZM95.4552 27.9128H96.8298C97.2862 27.9128 97.6166 27.6189 97.6166 27.1093V25.3203C97.6166 24.8276 97.2862 24.5 96.8298 24.5H95.4552V27.9156V27.9128Z" fill="white"/>
<path d="M108.65 24.4328V26.1602H112.911V29.4834H108.65V31.306H113.533V34.6405H104.369V21.0984H113.533V24.4328H108.65Z" fill="white"/>
<path d="M115.221 25.4828C115.221 22.1511 116.965 20.9081 120.179 20.9081C122.173 20.9081 123.236 21.0481 124.381 21.4428L124.018 24.836C123.178 24.5561 122.128 24.3181 120.353 24.3181C120.006 24.3181 119.594 24.4665 119.594 24.892V24.99C119.594 25.2504 119.765 25.4576 119.992 25.5556L122.455 26.4738C124.659 27.283 125.317 27.9353 125.317 30.1302V30.3066C125.277 33.7222 123.393 34.8337 119.972 34.8337C117.883 34.8337 116.506 34.5957 115.428 34.2374L115.75 30.8414C117.494 31.3257 118.586 31.4769 120.288 31.4517C120.697 31.4489 121.008 31.1493 121.008 30.7434V30.5278C121.008 30.2506 120.845 30.0322 120.594 29.9203L117.939 28.9824C115.882 28.2069 115.232 27.6917 115.215 25.6199V25.48L115.221 25.4828Z" fill="white"/>
<path d="M131.431 24.4328V26.1602H135.692V29.4834H131.431V31.306H136.314V34.6405H127.15V21.0984H136.314V24.4328H131.431Z" fill="white"/>
<path d="M144.626 21.104C147.417 21.104 148.977 22.8454 148.977 25.6535V26.709C148.977 28.2124 148.462 29.4135 147.588 30.1386L149.663 34.6405H144.724L143.585 31.2585H142.549V34.6405H138.302V21.104H144.626ZM142.565 27.9128H143.94C144.396 27.9128 144.727 27.6189 144.727 27.1093V25.3203C144.727 24.8276 144.396 24.5 143.94 24.5H142.565V27.9156V27.9128Z" fill="white"/>
<path d="M153.619 34.6405L150.231 21.104H154.699L156.569 31.5664L158.442 21.104H162.911L159.506 34.6405H153.619Z" fill="white"/>
<path d="M171.069 34.6405L170.579 32.3671H167.53L167.043 34.6405H162.58L166.365 21.0984H171.752L175.537 34.6405H171.072H171.069ZM170.025 29.0411L169.053 24.416L168.082 29.0411H170.025Z" fill="white"/>
<path d="M9.30334 0.00561523C12.8365 0.00561523 15.751 2.59812 15.751 5.99974V7.25679C15.751 8.9926 14.7179 10.2861 13.6036 10.8684C15.1743 11.6103 16.0814 13.2509 16.0814 14.8495V17.2993C16.0814 20.7121 13.1669 23.3438 9.6337 23.3438H6.47006C2.85007 23.3438 -0.00280762 20.6141 -0.00280762 17.2993V14.8495C-0.00280762 13.0157 1.21785 11.5123 2.50011 10.86C1.08067 10.1181 0.347153 8.74343 0.347153 7.25679V5.99974C0.400347 2.60092 3.28682 0.00561523 6.82002 0.00561523H9.30334ZM7.55074 13.1501C6.54005 13.1501 5.87373 13.8416 5.87373 14.8243V17.0753C5.87373 18.058 6.54285 18.7495 7.55074 18.7495H8.55302C9.56371 18.7495 10.23 18.058 10.23 17.0753V14.8243C10.23 13.8416 9.56091 13.1501 8.55302 13.1501H7.55074ZM7.64873 4.5999C6.63804 4.5999 5.97171 5.29422 5.97171 6.27411V7.25679C5.97171 8.21429 6.64084 8.90581 7.64873 8.90581H8.51943C9.51051 8.88901 10.1516 8.20309 10.1516 7.25679V6.27411C10.1516 5.29142 9.48252 4.5999 8.47463 4.5999H7.64593H7.64873Z" fill="white"/>
<path d="M42.9779 0C47.1131 0 49.602 2.32374 49.602 7.40236V15.5746C49.602 20.4713 45.996 23.2766 41.2729 23.2766H39.7667C38.0001 23.2766 36.1663 22.907 34.5173 22.543V18.1923C36.5079 18.4975 38.2633 18.6319 39.6855 18.6571H40.9426C42.4432 18.6571 43.6219 17.6464 43.6247 15.8798V14.368C42.8324 14.522 41.9925 14.6675 40.9034 14.6675H39.3412C36.0767 14.6675 33.5598 12.6742 33.5598 8.62302V6.09491C33.5598 2.31534 36.5527 0 39.9795 0H42.9751L42.9779 0ZM41.0378 4.59428C40.1559 4.59428 39.4391 5.2774 39.4391 6.32168V8.34586C39.4391 9.38174 40.1559 10.0733 41.0378 10.0733H42.1352C42.8632 10.0733 43.4343 9.81849 43.7507 9.35654V6.32168C43.7507 5.2774 43.0927 4.59428 42.0736 4.59428H41.0378Z" fill="white"/>
<path d="M25.6759 18.2091H24.1304V14.8999L21.5659 10.1628H23.2205L24.9031 13.4833L26.5913 10.1628H28.246L25.6759 14.9111V18.2091Z" fill="#FBFAF2"/>
<path d="M27.9661 21.1685H21.6388V21.8012H27.9661V21.1685Z" fill="#FBFAF2"/>
<path d="M4.85183 27.2101C6.40006 27.2101 7.68791 28.2516 7.68791 29.9146V32.3503C7.68791 34.0469 6.39726 35.0492 4.85183 35.0492H1.88977V27.2129H4.85183V27.2101ZM3.4016 33.8453H4.77344C5.54616 33.8453 6.18168 33.291 6.18168 32.3867V29.8754C6.18168 29.0047 5.54616 28.4111 4.77344 28.4111H3.4016V33.8453Z" fill="#FBFAF2"/>
<path d="M10.832 28.4112V30.4829H13.7129V31.6784H10.832V33.8481H14.1328V35.0464H9.32019V27.2129H14.1328V28.4112H10.832Z" fill="#FBFAF2"/>
<path d="M22.529 32.4371C22.529 34.1337 21.2383 35.136 19.6929 35.136H18.6318V33.9349H19.6145C20.3872 33.9349 21.0228 33.3806 21.0228 32.4763V27.2157H22.529V32.4371Z" fill="#FBFAF2"/>
<path d="M30.3906 32.5379C30.3906 34.2765 29.0439 35.136 27.5573 35.136H27.2017C25.6227 35.136 24.3824 34.2485 24.3824 32.5379V27.2157H25.8859V32.5379C25.8859 33.4562 26.5326 33.9461 27.2717 33.9461H27.5125C28.2264 33.9461 28.8899 33.4506 28.8899 32.5379V27.2157H30.3934V32.5379H30.3906Z" fill="#FBFAF2"/>
<path d="M37.1826 33.8566V35.0464H32.3252V27.2213H33.8314V33.8566H37.1854H37.1826Z" fill="#FBFAF2"/>
<path d="M38.6692 35.0464V27.2157H40.1698V35.0464H38.6692Z" fill="#FBFAF2"/>
<path d="M45.0805 27.1261C46.5923 27.1261 47.9445 28.2208 47.9445 29.8306V32.4399C47.9445 34.0133 46.6987 35.136 45.0777 35.136H44.7025C42.9835 35.136 41.8552 33.9853 41.8552 32.4399V29.8306C41.8552 28.2236 43.0983 27.1261 44.7025 27.1261H45.0777H45.0805ZM44.7725 28.3244C43.997 28.3272 43.3559 28.9263 43.3559 29.7914V32.4819C43.3559 33.3918 44.0194 33.9405 44.7725 33.9433H45.0133C45.7524 33.9433 46.4439 33.403 46.4439 32.4819V29.7914C46.4439 28.9095 45.7524 28.3272 45.0133 28.3244H44.7697H44.7725Z" fill="#FBFAF2"/>
</g>
<defs>
<clipPath id="clip0_21_618">
<rect width="180" height="36.7906" fill="white"/>
</clipPath>
</defs>
</svg>
