<svg width="52" height="29" viewBox="0 0 52 29" fill="none" xmlns="http://www.w3.org/2000/svg">
<g clip-path="url(#clip0_622_1349)">
<path d="M43.8996 13.3746C45.6106 13.9195 46.5797 14.5474 46.5797 15.2108C46.5797 17.2484 37.5102 18.9069 26.311 18.9069C15.1117 18.9069 6.04224 17.2484 6.04224 15.2108C6.04224 14.4645 7.2507 13.7655 9.34458 13.1851" stroke="#F5F5F5" stroke-width="1.5" stroke-miterlimit="10" stroke-linecap="round"/>
<path d="M9.18921 15.2463C9.18921 15.2463 13.3889 1.80066 22.5661 3.50654C29.8648 4.85703 22.0396 16.3599 22.0396 16.3599" stroke="#F5F5F5" stroke-width="1.5" stroke-miterlimit="10" stroke-linecap="round"/>
<path d="M13.6162 16.0518C13.6162 16.0518 15.3033 5.53224 25.3778 5.50854" stroke="#F5F5F5" stroke-width="1.5" stroke-miterlimit="10" stroke-linecap="round"/>
<path d="M18.1389 16.6205C18.1389 16.6205 19.3952 8.84925 25.0068 9.95097" stroke="#F5F5F5" stroke-width="1.5" stroke-miterlimit="10" stroke-linecap="round"/>
<path d="M17.4331 3.99226C17.4331 3.99226 20.3167 -0.912152 25.9642 1.59929C31.6117 4.11072 29.3622 13.114 26.3112 16.9048" stroke="#F5F5F5" stroke-width="1.5" stroke-miterlimit="10" stroke-linecap="round"/>
<path d="M27.8545 2.59429C27.8545 2.59429 33.2746 2.36921 33.2746 8.57673C33.2746 14.7842 31.456 16.9166 31.456 16.9166" stroke="#F5F5F5" stroke-width="1.5" stroke-miterlimit="10" stroke-linecap="round"/>
<path d="M33.2747 5.50854C33.2747 5.50854 41.4707 6.37333 43.1458 15.4003" stroke="#F5F5F5" stroke-width="1.5" stroke-miterlimit="10" stroke-linecap="round"/>
<path d="M33.2627 8.31616C33.2627 8.31616 38.7546 8.90848 39.8076 16.0519" stroke="#F5F5F5" stroke-width="1.5" stroke-miterlimit="10" stroke-linecap="round"/>
<path d="M33.2627 11.7161C33.2627 11.7161 35.7754 12.2018 36.5291 16.4902" stroke="#F5F5F5" stroke-width="1.5" stroke-miterlimit="10" stroke-linecap="round"/>
<path d="M41.4469 10.259C47.226 11.5621 51.1027 13.8129 51.1027 16.0519C51.1027 19.9612 39.6163 22.8754 25.677 22.8754C11.7378 22.8754 0.897461 19.9612 0.897461 16.0519C0.897461 13.6826 4.58269 11.3252 10.96 10.0339" stroke="#F5F5F5" stroke-width="1.5" stroke-miterlimit="10" stroke-linecap="round"/>
<path d="M6.43726 20.3757C6.43726 20.3757 9.39262 28.3839 27.0291 28.0996C44.6655 27.8153 45.2997 20.743 45.2997 20.743" stroke="#F5F5F5" stroke-width="1.5" stroke-miterlimit="10" stroke-linecap="round"/>
</g>
<defs>
<clipPath id="clip0_622_1349">
<rect width="52" height="29" fill="white"/>
</clipPath>
</defs>
</svg>
