<svg width="46" height="39" viewBox="0 0 46 39" fill="none" xmlns="http://www.w3.org/2000/svg">
<g clip-path="url(#clip0_622_1253)">
<path d="M5.93698 9.2339C5.93698 9.2339 11.7837 0.0597728 23.0953 0.78772C34.407 1.51567 42.8455 9.96184 44.1715 14.7384C45.4976 19.5149 41.6601 22.1574 37.8527 22.1176C34.0453 22.0777 8.97083 22.8156 5.93698 21.8284C2.90313 20.8412 0.542357 15.8054 5.93698 9.2339Z" stroke="#F5F5F5" stroke-width="1.5" stroke-miterlimit="10" stroke-linecap="round"/>
<path d="M7.78557 13.3025C7.78557 13.3025 5.12342 16.5733 5.64581 18.3283C6.16819 20.0834 10.2267 19.505 10.2267 19.505" stroke="#F5F5F5" stroke-width="1.5" stroke-miterlimit="10" stroke-linecap="round"/>
<path d="M4.4905 20.9809C4.4905 20.9809 -0.341557 23.6933 0.984497 25.6378C2.31055 27.5823 5.64578 23.6235 6.1983 25.6378C6.75082 27.6521 8.33807 29.0183 10.2267 27.7319C12.1153 26.4455 12.7382 23.3243 14.9583 25.2389C17.1784 27.1535 17.6204 27.5524 21.247 25.8672C24.8736 24.1819 24.6124 28.1507 27.6763 28.2405C30.7403 28.3302 31.6344 24.3614 33.7742 25.4982C35.914 26.635 38.5862 27.4427 39.9122 25.5381C41.2383 23.6335 43.0365 25.8672 44.4328 25.6478C45.8292 25.4284 45.4877 21.1205 42.6849 20.4624" stroke="#F5F5F5" stroke-width="1.5" stroke-miterlimit="10" stroke-linecap="round"/>
<path d="M4.30966 25.0195C4.30966 25.0195 3.90782 30.7135 7.233 31.1123C10.5582 31.5112 35.3011 31.4015 38.5158 30.7135C41.7305 30.0254 42.9159 28.5895 42.9159 25.4982" stroke="#F5F5F5" stroke-width="1.5" stroke-miterlimit="10" stroke-linecap="round"/>
<path d="M5.57534 30.5539C5.57534 30.5539 2.50131 31.1821 2.31044 33.4856C2.11956 35.7891 3.82736 37.8134 6.30869 37.8134C8.79002 37.8134 32.6791 38.0727 32.6791 38.0727C32.6791 38.0727 39.892 38.9502 42.735 36.6766C45.578 34.403 44.4729 30.0353 41.2884 30.0752" stroke="#F5F5F5" stroke-width="1.5" stroke-miterlimit="10" stroke-linecap="round"/>
<path d="M10.6587 8.64555C10.6587 8.64555 10.6888 7.89766 11.4925 7.62842" stroke="#F5F5F5" stroke-width="1.5" stroke-miterlimit="10" stroke-linecap="round"/>
<path d="M16.3044 8.49605C16.3044 8.49605 16.5556 7.79802 17.4095 7.77808" stroke="#F5F5F5" stroke-width="1.5" stroke-miterlimit="10" stroke-linecap="round"/>
<path d="M23.2964 8.25659C23.2964 8.25659 23.9795 8.56572 23.9192 9.41333" stroke="#F5F5F5" stroke-width="1.5" stroke-miterlimit="10" stroke-linecap="round"/>
<path d="M28.3193 8.18701C28.3193 8.18701 29.0627 8.27676 29.2737 9.09445" stroke="#F5F5F5" stroke-width="1.5" stroke-miterlimit="10" stroke-linecap="round"/>
<path d="M32.8901 7.16968C32.8901 7.16968 33.6335 7.25942 33.8445 8.07712" stroke="#F5F5F5" stroke-width="1.5" stroke-miterlimit="10" stroke-linecap="round"/>
<path d="M25.647 3.65969C25.647 3.65969 26.3904 3.57992 26.7822 4.32781" stroke="#F5F5F5" stroke-width="1.5" stroke-miterlimit="10" stroke-linecap="round"/>
<path d="M20.1822 4.8762C20.1822 4.8762 20.1421 4.13828 20.9156 3.7793" stroke="#F5F5F5" stroke-width="1.5" stroke-miterlimit="10" stroke-linecap="round"/>
<path d="M14.1948 5.38485C14.1948 5.38485 14.4862 4.69679 15.33 4.71673" stroke="#F5F5F5" stroke-width="1.5" stroke-miterlimit="10" stroke-linecap="round"/>
<path d="M29.7859 5.71395C29.7859 5.71395 30.0772 5.02589 30.9211 5.04584" stroke="#F5F5F5" stroke-width="1.5" stroke-miterlimit="10" stroke-linecap="round"/>
</g>
<defs>
<clipPath id="clip0_622_1253">
<rect width="46" height="39" fill="white"/>
</clipPath>
</defs>
</svg>
