<svg width="53" height="45" viewBox="0 0 53 45" fill="none" xmlns="http://www.w3.org/2000/svg">
<g clip-path="url(#clip0_696_224)">
<path d="M7.10312 22.4272C6.68924 14.7688 1.87919 15.0148 1.87919 15.0148C1.87919 15.0148 0.234826 18.2235 6.20823 24.3949" stroke="#D2AF75" stroke-width="1.5" stroke-miterlimit="10" stroke-linecap="round"/>
<path d="M19.6877 9.80488C19.6877 9.80488 24.0392 11.4372 26.5784 15.2943C29.1177 19.1515 24.7886 21.8347 22.35 20.1353C19.9115 18.4359 17.2827 13.7179 19.6989 9.7937L19.6877 9.80488Z" stroke="#D2AF75" stroke-width="1.5" stroke-miterlimit="10" stroke-linecap="round"/>
<path d="M21.0299 18.9502C21.0299 18.9502 18.2669 25.3899 24.9898 26.4073" stroke="#D2AF75" stroke-width="1.5" stroke-miterlimit="10" stroke-linecap="round"/>
<path d="M10.3136 30.3875C10.3136 30.3875 3.93752 24.3055 7.1032 22.5838C10.515 20.7391 13.2332 26.2509 13.2332 26.2509" stroke="#D2AF75" stroke-width="1.5" stroke-miterlimit="10" stroke-linecap="round"/>
<path d="M12.2937 27.4918C12.2937 27.4918 14.5533 24.6968 17.5064 26.9105" stroke="#D2AF75" stroke-width="1.5" stroke-miterlimit="10" stroke-linecap="round"/>
<path d="M16.9247 29.9962C16.9247 29.9962 16.701 26.1055 19.5647 26.5974" stroke="#D2AF75" stroke-width="1.5" stroke-miterlimit="10" stroke-linecap="round"/>
<path d="M21.5221 30.3876C21.5221 30.3876 17.0924 27.4808 21.1529 24.9988" stroke="#D2AF75" stroke-width="1.5" stroke-miterlimit="10" stroke-linecap="round"/>
<path d="M27.2159 17.3628C27.2159 17.3628 33.0998 27.5702 25.6274 31.7293" stroke="#D2AF75" stroke-width="1.5" stroke-miterlimit="10" stroke-linecap="round"/>
<path d="M41.2435 18.313C41.2435 18.313 37.4514 19.6211 34.7555 22.6844C32.0596 25.7478 33.7264 29.1242 36.1761 29.2024C38.6259 29.2807 42.9885 25.1664 41.2435 18.313Z" stroke="#D2AF75" stroke-width="1.5" stroke-miterlimit="10" stroke-linecap="round"/>
<path d="M31.0303 31.8299C31.0303 31.8299 31.4777 28.4647 33.2787 26.0498" stroke="#D2AF75" stroke-width="1.5" stroke-miterlimit="10" stroke-linecap="round"/>
<path d="M39.5095 27.6372C39.5095 27.6372 40.3149 29.4037 40.3149 30.913" stroke="#D2AF75" stroke-width="1.5" stroke-miterlimit="10" stroke-linecap="round"/>
<path d="M40.3149 13.6956C40.3149 13.6956 41.579 15.1602 41.2098 18.5366" stroke="#D2AF75" stroke-width="1.5" stroke-miterlimit="10" stroke-linecap="round"/>
<path d="M43.6932 15.9988C43.6932 15.9988 43.2905 17.6758 41.0085 18.6708" stroke="#D2AF75" stroke-width="1.5" stroke-miterlimit="10" stroke-linecap="round"/>
<path d="M20.2581 5.10938C20.2581 5.10938 18.4012 7.08826 19.5645 9.86093" stroke="#D2AF75" stroke-width="1.5" stroke-miterlimit="10" stroke-linecap="round"/>
<path d="M16.9246 7.17773C16.9246 7.17773 17.3049 9.4473 19.1059 10.5989" stroke="#D2AF75" stroke-width="1.5" stroke-miterlimit="10" stroke-linecap="round"/>
<path d="M23.8936 16.8819C24.3693 16.8819 24.7549 16.4965 24.7549 16.021C24.7549 15.5456 24.3693 15.1602 23.8936 15.1602C23.4179 15.1602 23.0322 15.5456 23.0322 16.021C23.0322 16.4965 23.4179 16.8819 23.8936 16.8819Z" stroke="#D2AF75" stroke-width="1.5" stroke-miterlimit="10" stroke-linecap="round"/>
<path d="M36.3774 25.7925C36.8531 25.7925 37.2388 25.4071 37.2388 24.9317C37.2388 24.4562 36.8531 24.0708 36.3774 24.0708C35.9017 24.0708 35.5161 24.4562 35.5161 24.9317C35.5161 25.4071 35.9017 25.7925 36.3774 25.7925Z" stroke="#D2AF75" stroke-width="1.5" stroke-miterlimit="10" stroke-linecap="round"/>
<path d="M41.646 20.0459C47.9773 21.2422 52.0826 23.1763 52.0826 25.3453C52.0826 28.9788 40.6168 31.9304 26.4663 31.9304C12.3159 31.9304 0.838867 28.99 0.838867 25.3453C0.838867 24.2161 1.95748 23.1428 3.91506 22.2148" stroke="#D2AF75" stroke-width="1.5" stroke-miterlimit="10" stroke-linecap="round"/>
<path d="M28.0212 18.7715C31.7015 18.8274 35.1804 19.0845 38.2789 19.4982" stroke="#D2AF75" stroke-width="1.5" stroke-miterlimit="10" stroke-linecap="round"/>
<path d="M7.10327 21.0298C10.6045 19.9901 15.3363 19.241 20.7056 18.928" stroke="#D2AF75" stroke-width="1.5" stroke-miterlimit="10" stroke-linecap="round"/>
<path d="M0.838867 25.3455C0.838867 25.3455 1.36462 38.5604 18.3005 43.625C19.475 43.9715 20.7055 44.1504 21.936 44.1504H27.5402" stroke="#D2AF75" stroke-width="1.5" stroke-miterlimit="10" stroke-linecap="round"/>
<path d="M52.1611 25.3455C52.1611 25.3455 51.6353 38.5604 34.6995 43.625C33.5249 43.9715 32.2945 44.1504 31.064 44.1504H25.4597" stroke="#D2AF75" stroke-width="1.5" stroke-miterlimit="10" stroke-linecap="round"/>
<path d="M28.0996 10.4423C28.0996 10.4423 28.1779 10.5541 28.2227 10.5989C30.7955 13.6622 35.3594 14.0647 38.4244 11.5045C41.4894 8.94421 41.8921 4.37154 39.3305 1.30818C39.2858 1.25228 39.241 1.20756 39.1963 1.16284L28.1108 10.4423H28.0996Z" stroke="#D2AF75" stroke-miterlimit="10" stroke-linecap="round"/>
<path d="M29.5762 9.08937C29.5762 9.08937 29.6321 9.16763 29.6657 9.20117C31.5226 11.4148 34.8225 11.7055 37.0373 9.84962C39.2522 7.99372 39.543 4.69558 37.6861 2.48192C37.6526 2.44838 37.619 2.41484 37.5855 2.37012" stroke="#D2AF75" stroke-miterlimit="10" stroke-linecap="round"/>
<path d="M37.0374 9.68189L33.7263 5.72412L33.167 11.057" stroke="#D2AF75" stroke-linecap="round" stroke-linejoin="round"/>
<path d="M33.6367 5.80249L38.9837 6.18261" stroke="#D2AF75" stroke-linecap="round" stroke-linejoin="round"/>
</g>
<defs>
<clipPath id="clip0_696_224">
<rect width="53" height="45" fill="white"/>
</clipPath>
</defs>
</svg>
