<svg width="51" height="38" viewBox="0 0 51 38" fill="none" xmlns="http://www.w3.org/2000/svg">
<g clip-path="url(#clip0_622_1658)">
<path d="M8.69028 16.7243C7.74264 17.5181 7.80725 18.9895 8.83027 19.6775C10.7255 20.9477 13.4608 23.1917 15.2699 26.4413C18.2851 31.8608 29.6998 31.9772 31.1643 26.6C32.6288 21.2229 30.6474 14.4803 17.1759 16.0363C17.1759 16.0363 14.2576 17.1688 11.6947 15.7293C11.0271 15.3588 10.1763 15.4753 9.59484 15.9622L8.69028 16.7243Z" stroke="#F5F5F5" stroke-width="1.5" stroke-miterlimit="10"/>
<path d="M13.2347 16.3115C13.2347 16.3115 21.6234 4.7421 28.483 4.85854C35.3426 4.97497 43.1067 7.58946 47.4357 16.8195C51.7647 26.0496 52.0339 34.3906 40.8561 36.3382C29.6783 38.2858 9.49798 37.0792 9.11031 31.4268C8.72264 25.7744 11.544 21.7839 11.544 21.7839" stroke="#F5F5F5" stroke-width="1.5" stroke-miterlimit="10"/>
<path d="M7.88251 17.3063L6.5149 16.2796C6.138 15.9938 5.59957 16.0785 5.30882 16.449C4.72731 17.1899 3.71507 17.6027 2.64898 17.3275C1.80903 17.1158 1.11984 16.4384 0.904466 15.6127C0.473723 13.9721 1.72288 12.4902 3.3274 12.4902C3.48893 12.4902 3.65045 12.5114 3.81198 12.5325C3.40278 11.9292 3.23048 11.1459 3.44585 10.3309C3.68276 9.44172 4.42579 8.71136 5.34112 8.47849C7.15024 8.02333 8.76553 9.34645 8.76553 11.0506C8.76553 11.5693 8.61477 12.0562 8.35632 12.4584C8.13018 12.8077 8.14095 13.2629 8.44247 13.5593L10.4454 15.5175" stroke="#F5F5F5" stroke-width="1.5" stroke-linejoin="round"/>
<path d="M18.0374 9.92857L16.8528 8.70071C16.519 8.362 15.9806 8.35141 15.636 8.67954C14.936 9.32523 13.8807 9.56868 12.8685 9.12411C12.0716 8.77481 11.5116 8.00211 11.4255 7.15531C11.2639 5.46172 12.7392 4.20211 14.3222 4.44556C14.4838 4.46673 14.6345 4.50907 14.7853 4.57258C14.473 3.91631 14.4299 3.11186 14.7853 2.33916C15.1622 1.49236 16.0129 0.889016 16.9498 0.804336C18.802 0.634977 20.1911 2.20155 19.9219 3.87397C19.8357 4.38205 19.6096 4.83721 19.2865 5.20768C19.0066 5.52523 18.9419 5.9698 19.2004 6.30851L20.8588 8.56311" stroke="#F5F5F5" stroke-width="1.5" stroke-linejoin="round"/>
<path d="M21.3973 27.5739C21.9028 27.5739 22.3126 27.171 22.3126 26.6741C22.3126 26.1772 21.9028 25.7744 21.3973 25.7744C20.8917 25.7744 20.4819 26.1772 20.4819 26.6741C20.4819 27.171 20.8917 27.5739 21.3973 27.5739Z" stroke="#F5F5F5" stroke-width="1.5" stroke-linejoin="round"/>
<path d="M28.1276 24.2819C28.4844 24.2819 28.7737 23.9976 28.7737 23.6468C28.7737 23.2961 28.4844 23.0117 28.1276 23.0117C27.7707 23.0117 27.4814 23.2961 27.4814 23.6468C27.4814 23.9976 27.7707 24.2819 28.1276 24.2819Z" stroke="#F5F5F5" stroke-width="1.06" stroke-linejoin="round"/>
<path d="M27.2553 20.556C27.6835 20.556 28.0307 20.2148 28.0307 19.7939C28.0307 19.373 27.6835 19.0317 27.2553 19.0317C26.8271 19.0317 26.48 19.373 26.48 19.7939C26.48 20.2148 26.8271 20.556 27.2553 20.556Z" stroke="#F5F5F5" stroke-width="1.27" stroke-linejoin="round"/>
<path d="M25.3168 27.4361C25.745 27.4361 26.0922 27.0949 26.0922 26.674C26.0922 26.2531 25.745 25.9119 25.3168 25.9119C24.8886 25.9119 24.5415 26.2531 24.5415 26.674C24.5415 27.0949 24.8886 27.4361 25.3168 27.4361Z" stroke="#F5F5F5" stroke-width="1.27" stroke-linejoin="round"/>
<path d="M38.9499 29.638C39.3781 29.638 39.7252 29.2968 39.7252 28.8759C39.7252 28.455 39.3781 28.1138 38.9499 28.1138C38.5217 28.1138 38.1746 28.455 38.1746 28.8759C38.1746 29.2968 38.5217 29.638 38.9499 29.638Z" stroke="#F5F5F5" stroke-width="1.27" stroke-linejoin="round"/>
<path d="M40.8884 25.9227C41.3166 25.9227 41.6637 25.5815 41.6637 25.1606C41.6637 24.7397 41.3166 24.3984 40.8884 24.3984C40.4602 24.3984 40.113 24.7397 40.113 25.1606C40.113 25.5815 40.4602 25.9227 40.8884 25.9227Z" stroke="#F5F5F5" stroke-width="1.27" stroke-linejoin="round"/>
<path d="M42.6975 30.7069C43.1257 30.7069 43.4728 30.3656 43.4728 29.9447C43.4728 29.5238 43.1257 29.1826 42.6975 29.1826C42.2693 29.1826 41.9221 29.5238 41.9221 29.9447C41.9221 30.3656 42.2693 30.7069 42.6975 30.7069Z" stroke="#F5F5F5" stroke-width="1.27" stroke-linejoin="round"/>
<path d="M45.3034 27.1822C45.7316 27.1822 46.0788 26.841 46.0788 26.4201C46.0788 25.9992 45.7316 25.658 45.3034 25.658C44.8752 25.658 44.5281 25.9992 44.5281 26.4201C44.5281 26.841 44.8752 27.1822 45.3034 27.1822Z" stroke="#F5F5F5" stroke-width="1.27" stroke-linejoin="round"/>
<path d="M45.0234 23.1917C45.4516 23.1917 45.7987 22.8505 45.7987 22.4296C45.7987 22.0087 45.4516 21.6675 45.0234 21.6675C44.5952 21.6675 44.248 22.0087 44.248 22.4296C44.248 22.8505 44.5952 23.1917 45.0234 23.1917Z" stroke="#F5F5F5" stroke-width="1.27" stroke-linejoin="round"/>
<path d="M41.6635 21.5191C42.0917 21.5191 42.4389 21.1779 42.4389 20.757C42.4389 20.3361 42.0917 19.9949 41.6635 19.9949C41.2353 19.9949 40.8882 20.3361 40.8882 20.757C40.8882 21.1779 41.2353 21.5191 41.6635 21.5191Z" stroke="#F5F5F5" stroke-width="1.27" stroke-linejoin="round"/>
</g>
<defs>
<clipPath id="clip0_622_1658">
<rect width="51" height="38" fill="white"/>
</clipPath>
</defs>
</svg>
