<svg width="47" height="35" viewBox="0 0 47 35" fill="none" xmlns="http://www.w3.org/2000/svg">
<g clip-path="url(#clip0_696_169)">
<path d="M3.75236 10.331C3.75236 10.331 8.80244 3.45042 21.4679 1.48743C34.1334 -0.475569 44.0726 1.66956 44.9679 5.90922C45.8632 10.1489 35.3607 14.1457 33.1877 18.8812C31.0148 23.6167 17.464 34.9494 8.47046 30.9324C-0.523116 26.9153 -1.02611 14.1356 3.75236 10.331Z" stroke="#F5F5F5" stroke-width="1.5" stroke-linecap="round" stroke-linejoin="round"/>
<path d="M1.35809 22.4227C1.35809 22.4227 -1.46875 34.6155 16.0758 34.2209C27.1618 33.978 30.8538 24.416 36.0146 20.4293C41.1753 16.4426 44.7868 15.4409 45.9538 12.4863C47.1207 9.53166 44.2738 4.49263 44.2738 4.49263" stroke="#F5F5F5" stroke-width="1.5" stroke-linecap="round" stroke-linejoin="round"/>
<path d="M4.00385 18.9621C4.07427 15.4308 6.11644 12.2333 9.15454 10.4524C12.4542 8.5198 17.7759 5.96993 23.7113 5.23127C33.6304 4.00693 33.7913 2.83318 37.6241 3.88551C41.457 4.93784 42.1813 10.159 35.7329 12.7493C29.2845 15.3397 26.2363 23.9202 20.2406 26.3082C15.2408 28.2914 3.84289 27.6337 4.00385 18.9621Z" stroke="#F5F5F5" stroke-width="1.5" stroke-linecap="round" stroke-linejoin="round"/>
<path d="M15.5003 18.4426C17.3676 17.7867 18.5087 16.1815 18.0489 14.8573C17.5891 13.533 15.7026 12.9912 13.8353 13.6471C11.968 14.303 10.8269 15.9082 11.2867 17.2325C11.7465 18.5567 13.633 19.0985 15.5003 18.4426Z" stroke="#F5F5F5" stroke-width="1.5" stroke-linecap="round" stroke-linejoin="round"/>
<path d="M29.1336 6.45562C29.1336 6.45562 32.8356 5.10986 35.7228 6.83001" stroke="#F5F5F5" stroke-width="1.5" stroke-linecap="round" stroke-linejoin="round"/>
</g>
<defs>
<clipPath id="clip0_696_169">
<rect width="47" height="35" fill="white"/>
</clipPath>
</defs>
</svg>
