<svg width="46" height="41" viewBox="0 0 46 41" fill="none" xmlns="http://www.w3.org/2000/svg">
<g clip-path="url(#clip0_622_1301)">
<path d="M20.2171 11.4609C30.2955 14.3039 34.6178 7.48871 34.2467 5.88397C33.8757 4.27924 26.9762 -0.465629 16.5567 1.03014C6.13727 2.52591 0.832275 9.27175 0.832275 9.27175C0.832275 9.27175 2.34656 14.0166 11.3119 11.9364" stroke="#F5F5F5" stroke-width="1.5" stroke-miterlimit="10" stroke-linecap="round"/>
<path d="M2.34658 11.1341C2.34658 11.1341 2.08584 15.3638 4.38233 16.7804C6.67882 18.1969 9.95809 17.1271 14.6413 16.2653C19.3246 15.4035 25.5722 17.5827 28.5607 17.4738C31.5491 17.3648 37.867 15.7997 33.9158 7.30054" stroke="#F5F5F5" stroke-width="1.5" stroke-miterlimit="10" stroke-linecap="round"/>
<path d="M12.9065 1.81274C12.9065 1.81274 9.04555 9.24207 12.726 16.6417" stroke="#F5F5F5" stroke-width="1.5" stroke-miterlimit="10" stroke-linecap="round"/>
<path d="M22.3532 0.802246C22.3532 0.802246 17.329 8.39007 21.8718 16.6317" stroke="#F5F5F5" stroke-width="1.5" stroke-miterlimit="10" stroke-linecap="round"/>
<path d="M6.99989 9.22226C6.99989 9.22226 5.95695 5.25005 9.85797 2.88257" stroke="#F5F5F5" stroke-width="1.5" stroke-miterlimit="10" stroke-linecap="round"/>
<path d="M22.7242 6.59725C22.7242 6.59725 21.8918 2.88259 26.8358 1.5354" stroke="#F5F5F5" stroke-width="1.5" stroke-miterlimit="10" stroke-linecap="round"/>
<path d="M14.6816 3.28882C14.6816 3.28882 13.0169 6.24074 13.7189 9.62851" stroke="#F5F5F5" stroke-width="1.5" stroke-miterlimit="10" stroke-linecap="round"/>
<path d="M13.5484 10.8071C13.5484 10.8071 13.5384 12.6991 13.8292 13.4718" stroke="#F5F5F5" stroke-width="1.5" stroke-miterlimit="10" stroke-linecap="round"/>
<path d="M8.6646 13.8186C8.6646 13.8186 7.15032 14.7002 7.81219 15.2847C8.47406 15.8691 9.7276 15.2847 9.7276 15.2847" stroke="#F5F5F5" stroke-width="1.5" stroke-miterlimit="10" stroke-linecap="round"/>
<path d="M26.8057 13.4619C26.8057 13.4619 25.2914 14.3435 25.9533 14.928C26.6152 15.5124 27.8687 14.928 27.8687 14.928" stroke="#F5F5F5" stroke-width="1.5" stroke-miterlimit="10" stroke-linecap="round"/>
<path d="M13.8291 24.2197C13.8291 24.2197 17.8505 21.2678 19.1842 22.9815C20.518 24.6952 18.3017 26.5178 19.5854 28.4098C20.869 30.3018 24.4993 30.5098 24.3488 31.9264C24.1984 33.3429 20.3977 36.1462 16.1156 35.6708" stroke="#F5F5F5" stroke-width="1.5" stroke-miterlimit="10" stroke-linecap="round"/>
<path d="M19.6155 24.0809C19.6155 24.0809 25.2113 21.5648 26.2743 24.0809C27.3373 26.597 25.6525 27.6173 27.8788 29.6579C30.1051 31.6984 29.9647 36.4037 22.6741 34.3235" stroke="#F5F5F5" stroke-width="1.5" stroke-miterlimit="10" stroke-linecap="round"/>
<path d="M5.85658 32.9368C5.85658 32.9368 3.93114 38.7019 7.64162 39.643C11.3521 40.584 20.9191 38.4444 25.0508 39.643C29.1825 40.8416 34.2468 40.2968 35.3499 37.751C36.453 35.2052 35.6107 32.5405 35.6107 32.5405" stroke="#F5F5F5" stroke-width="1.5" stroke-miterlimit="10" stroke-linecap="round"/>
<path d="M4.86377 29.2913C4.86377 29.2913 8.63443 21.9214 12.9165 22.0006C17.1986 22.0799 11.1114 24.804 12.9165 29.0932C14.7216 33.3824 18.1513 33.8083 15.4938 36.4036C12.8363 38.9989 6.26774 37.4338 4.86377 29.4795V29.3012V29.2913Z" stroke="#F5F5F5" stroke-width="1.5" stroke-miterlimit="10" stroke-linecap="round"/>
<path d="M26.5349 24.8535C26.5349 24.8535 31.0376 25.4181 34.7983 28.2611C38.5589 31.1041 34.4272 34.9673 29.4431 32.9663" stroke="#F5F5F5" stroke-width="1.5" stroke-miterlimit="10" stroke-linecap="round"/>
<path d="M34.0261 28.0829C34.0261 28.0829 35.6106 24.4574 43.4427 22.4465C43.4427 22.4465 42.5402 28.7367 36.1822 30.0839" stroke="#F5F5F5" stroke-width="1.5" stroke-miterlimit="10" stroke-linecap="round"/>
<path d="M35.9216 31.8174C35.9216 31.8174 40.7753 34.6801 45.1377 30.0839C45.1377 30.0839 44.5059 28.4494 40.1135 28.5187" stroke="#F5F5F5" stroke-width="1.5" stroke-miterlimit="10" stroke-linecap="round"/>
</g>
<defs>
<clipPath id="clip0_622_1301">
<rect width="46" height="41" fill="white"/>
</clipPath>
</defs>
</svg>
