<svg width="37" height="42" viewBox="0 0 37 42" fill="none" xmlns="http://www.w3.org/2000/svg">
<g clip-path="url(#clip0_622_782)">
<path d="M31.1299 15.4399H6.02994C3.7711 15.4399 1.93994 17.2711 1.93994 19.5299V26.6999C1.93994 28.9588 3.7711 30.7899 6.02994 30.7899H31.1299C33.3888 30.7899 35.2199 28.9588 35.2199 26.6999V19.5299C35.2199 17.2711 33.3888 15.4399 31.1299 15.4399Z" stroke="#D2AF75" stroke-width="1.5" stroke-miterlimit="10"/>
<path d="M1.93994 20.9099C5.26994 20.9099 5.26994 24.9099 8.58994 24.9099C11.9099 24.9099 11.9099 20.9099 15.2399 20.9099C18.5699 20.9099 18.5699 24.9099 21.8899 24.9099C25.2099 24.9099 25.2199 20.9099 28.5499 20.9099C31.8799 20.9099 31.8799 24.9099 35.2099 24.9099" stroke="#D2AF75" stroke-width="1.5" stroke-miterlimit="10"/>
<path d="M35.63 1.23999L32.27 2.90999L30.91 3.58999L30.53 3.77999C29.6 4.23999 29.25 5.32999 29.59 6.29999C29.83 6.97999 29.88 7.74999 29.67 8.54999C29.32 9.89999 28.21 10.99 26.86 11.3C24.34 11.89 22.08 9.96999 22.08 7.54999C22.08 6.60999 22.42 5.75999 22.97 5.08999C23.47 4.48999 23.74 3.68999 23.45 2.95999C22.87 1.49999 21.05 1.23999 20.09 2.30999C18.63 3.92999 17.84 6.15999 18.14 8.57999C18.59 12.11 21.49 14.97 25.02 15.36C29.77 15.89 33.79 12.19 33.79 7.54999C33.79 7.36999 33.79 7.18999 33.77 7.01999C33.7 6.17999 33.89 5.34999 34.21 4.57999L35.62 1.23999H35.63Z" stroke="#D2AF75" stroke-width="1.5" stroke-linejoin="round"/>
<path d="M17.8601 9.09009H22.2201" stroke="#D2AF75" stroke-width="1.5" stroke-linejoin="round"/>
<path d="M20.3999 13.3699L23.3399 10.3999" stroke="#D2AF75" stroke-width="1.5" stroke-linejoin="round"/>
<path d="M25.2 11.3401V15.0001" stroke="#D2AF75" stroke-width="1.5" stroke-linejoin="round"/>
<path d="M27.3999 11.1299L30.2799 14.3299" stroke="#D2AF75" stroke-width="1.5" stroke-linejoin="round"/>
<path d="M29.54 8.94995H33.4" stroke="#D2AF75" stroke-width="1.5" stroke-linejoin="round"/>
<path d="M19.6101 3.39991C19.6101 3.39991 14.6001 -0.270092 9.41005 1.02991C4.22005 2.32991 7.20005 13.9499 11.8901 15.4399" stroke="#D2AF75" stroke-width="1.5" stroke-linejoin="round"/>
<path d="M18.44 11.1301C17.81 12.2601 16.6 13.0201 15.21 13.0201C13.17 13.0201 11.51 11.3601 11.51 9.32012C11.51 7.28012 13.17 5.62012 15.21 5.62012C16.2 5.62012 17.1 6.01012 17.77 6.65012" stroke="#D2AF75" stroke-width="1.5" stroke-linejoin="round"/>
<path d="M6.68 6.64012C6.57 6.63012 6.46 6.62012 6.34 6.62012C4.7 6.62012 3.37 7.95012 3.37 9.59012C3.37 9.72012 3.39 9.84012 3.41 9.96012C1.92 10.1101 0.75 11.3501 0.75 12.8801C0.75 14.5101 2.07 15.8301 3.7 15.8301C4.11 15.8301 4.5 15.7501 4.85 15.6001" stroke="#D2AF75" stroke-width="1.5" stroke-linejoin="round"/>
<path d="M31.1299 30.8301H6.02994C3.7711 30.8301 1.93994 32.6612 1.93994 34.9201V37.0901C1.93994 39.3489 3.7711 41.1801 6.02994 41.1801H31.1299C33.3888 41.1801 35.2199 39.3489 35.2199 37.0901V34.9201C35.2199 32.6612 33.3888 30.8301 31.1299 30.8301Z" stroke="#D2AF75" stroke-width="1.5" stroke-miterlimit="10"/>
</g>
<defs>
<clipPath id="clip0_622_782">
<rect width="36.38" height="41.93" fill="white"/>
</clipPath>
</defs>
</svg>
