<svg width="42" height="39" viewBox="0 0 42 39" fill="none" xmlns="http://www.w3.org/2000/svg">
<g clip-path="url(#clip0_622_1418)">
<path d="M5.23999 14.5205C5.63564 15.1017 6.18075 15.586 6.82257 15.9558C6.37417 16.4401 6.08403 17.0829 6.08403 17.7962" stroke="#D2AF75" stroke-width="1.5" stroke-miterlimit="10" stroke-linecap="round"/>
<path d="M22.4989 11.1479C22.7891 10.5315 22.9473 9.8535 22.9473 9.13144C22.9473 6.49856 20.8197 4.36761 18.1908 4.36761C17.549 4.36761 16.9335 4.49969 16.3708 4.72864C15.8873 2.68574 14.0673 1.15356 11.8781 1.15356C9.31955 1.15356 7.2534 3.23169 7.2534 5.78531C7.2534 6.57781 7.4732 7.31748 7.82489 7.9691C5.89062 8.5943 4.51025 10.2321 4.51025 12.1694C4.51025 13.0235 4.78281 13.8248 5.24879 14.5029" stroke="#D2AF75" stroke-width="1.5" stroke-miterlimit="10" stroke-linecap="round"/>
<path d="M37.5336 15.0047C39.9075 15.8676 41.3054 16.9155 41.3054 18.0514C41.3054 20.9484 32.2056 23.2995 20.978 23.2995C9.75049 23.2995 0.659424 20.9572 0.659424 18.0514C0.659424 16.7922 2.38268 15.6299 5.24012 14.7317" stroke="#D2AF75" stroke-width="1.5" stroke-miterlimit="10" stroke-linecap="round"/>
<path d="M19.4219 23.3084L32.3199 8.2156C32.7859 7.66965 33.6124 7.64324 34.1135 8.15396C35.7137 9.783 38.4656 13.8336 36.3731 21.0982" stroke="#D2AF75" stroke-width="1.5" stroke-miterlimit="10" stroke-linecap="round"/>
<path d="M13.7246 9.52759L17.2239 23.009" stroke="#D2AF75" stroke-width="1.5" stroke-miterlimit="10" stroke-linecap="round"/>
<path d="M10.5242 11.729C10.7176 11.729 14.8587 13.8952 14.8587 13.8952" stroke="#D2AF75" stroke-width="1.5" stroke-miterlimit="10" stroke-linecap="round"/>
<path d="M16.2742 19.3458L18.6129 14.7317" stroke="#D2AF75" stroke-width="1.5" stroke-miterlimit="10" stroke-linecap="round"/>
<path d="M20.3977 4.9135C20.3977 4.9135 21.8748 -0.0264433 26.6049 0.739644C31.3351 1.50573 31.4582 9.21944 31.4582 9.21944" stroke="#D2AF75" stroke-width="1.5" stroke-miterlimit="10" stroke-linecap="round"/>
<path d="M24.9258 21.195C24.9258 21.195 25.2775 18.4389 28.5833 18.3772C31.8891 18.3156 29.102 13.2259 32.7596 12.9354C36.4171 12.6448 33.6652 20.0327 32.5046 20.2" stroke="#D2AF75" stroke-width="1.5" stroke-miterlimit="10" stroke-linecap="round"/>
<path d="M24.9258 4.34106C24.9258 4.34106 26.6402 6.77141 26.6051 10.9893" stroke="#D2AF75" stroke-width="1.5" stroke-miterlimit="10" stroke-linecap="round"/>
<path d="M0.756117 18.5623C0.756117 18.5623 -1.6793 38.3396 21.6286 38.3396" stroke="#D2AF75" stroke-width="1.5" stroke-miterlimit="10" stroke-linecap="round"/>
<path d="M41.2702 18.5623C41.2702 18.5623 43.7056 38.3396 20.3977 38.3396" stroke="#D2AF75" stroke-width="1.5" stroke-miterlimit="10" stroke-linecap="round"/>
<path d="M35.7663 25.9236C35.7663 25.9236 34.6321 29.9742 31.0449 32.5718" stroke="#D2AF75" stroke-width="1.5" stroke-miterlimit="10" stroke-linecap="round"/>
</g>
<defs>
<clipPath id="clip0_622_1418">
<rect width="42" height="39" fill="white"/>
</clipPath>
</defs>
</svg>
