<svg width="47" height="35" viewBox="0 0 47 35" fill="none" xmlns="http://www.w3.org/2000/svg">
<g clip-path="url(#clip0_620_2645)">
<path d="M3.7524 10.3309C3.7524 10.3309 8.80249 3.45034 21.4679 1.48735C34.1334 -0.475646 44.0726 1.66948 44.9679 5.90915C45.8633 10.1488 35.3607 14.1456 33.1878 18.8811C31.0148 23.6166 17.4641 34.9493 8.47051 30.9323C-0.52307 26.9152 -1.02607 14.1355 3.7524 10.3309Z" stroke="#D2AF75" stroke-width="1.5" stroke-linecap="round" stroke-linejoin="round"/>
<path d="M1.35809 22.4227C1.35809 22.4227 -1.46875 34.6155 16.0758 34.2209C27.1618 33.9781 30.8538 24.4161 36.0146 20.4294C41.1753 16.4427 44.7868 15.4409 45.9538 12.4863C47.1207 9.5317 44.2738 4.49268 44.2738 4.49268" stroke="#D2AF75" stroke-width="1.5" stroke-linecap="round" stroke-linejoin="round"/>
<path d="M4.00388 18.9621C4.0743 15.4307 6.11647 12.2332 9.15457 10.4524C12.4542 8.51974 17.7759 5.96987 23.7113 5.23121C33.6304 4.00687 33.7913 2.83312 37.6242 3.88545C41.457 4.93778 42.1813 10.1589 35.7329 12.7493C29.2845 15.3396 26.2363 23.9201 20.2406 26.3081C15.2408 28.2913 3.84293 27.6336 4.00388 18.9621Z" stroke="#D2AF75" stroke-width="1.5" stroke-linecap="round" stroke-linejoin="round"/>
<path d="M15.5002 18.4426C17.3675 17.7867 18.5086 16.1815 18.0488 14.8572C17.589 13.533 15.7025 12.9912 13.8352 13.6471C11.9679 14.303 10.8268 15.9082 11.2866 17.2325C11.7464 18.5567 13.6328 19.0985 15.5002 18.4426Z" stroke="#D2AF75" stroke-width="1.5" stroke-linecap="round" stroke-linejoin="round"/>
<path d="M29.1335 6.45574C29.1335 6.45574 32.8356 5.10998 35.7228 6.83013" stroke="#D2AF75" stroke-width="1.5" stroke-linecap="round" stroke-linejoin="round"/>
</g>
<defs>
<clipPath id="clip0_620_2645">
<rect width="47" height="35" fill="white"/>
</clipPath>
</defs>
</svg>
