<svg width="45" height="39" viewBox="0 0 45 39" fill="none" xmlns="http://www.w3.org/2000/svg">
<g clip-path="url(#clip0_622_676)">
<path d="M40.8683 33.299L42.085 30.4275C43.1242 27.9842 42.1188 25.1547 39.7699 23.8953L32.1319 19.8148C31.8362 19.6553 31.5067 19.5713 31.1687 19.5713C30.8308 19.5713 30.5013 19.6553 30.2055 19.8148L22.5675 23.8953C20.2187 25.1547 19.2132 27.9758 20.2525 30.4275L21.4692 33.299" stroke="#D2AF75" stroke-width="1.5" stroke-miterlimit="10" stroke-linecap="round"/>
<path d="M28.8369 24.6763L26.1248 28.1019" stroke="#D2AF75" stroke-width="1.5" stroke-miterlimit="10" stroke-linecap="round"/>
<path d="M32.8923 24.6763L35.5961 28.1019" stroke="#D2AF75" stroke-width="1.5" stroke-miterlimit="10" stroke-linecap="round"/>
<path d="M33.1881 20.5453L33.6275 19.5041C34.6667 17.0609 33.6613 14.2314 31.3124 12.972L23.6744 8.89144C23.3787 8.73191 23.0492 8.64795 22.7112 8.64795C22.3733 8.64795 22.0437 8.73191 21.748 8.89144L14.11 12.972C11.7612 14.2314 10.7557 17.0525 11.795 19.5041L12.0822 20.1842" stroke="#D2AF75" stroke-width="1.5" stroke-miterlimit="10" stroke-linecap="round"/>
<path d="M20.3793 13.7529L17.6755 17.1785" stroke="#D2AF75" stroke-width="1.5" stroke-miterlimit="10" stroke-linecap="round"/>
<path d="M24.4348 13.7529L27.147 17.1785" stroke="#D2AF75" stroke-width="1.5" stroke-miterlimit="10" stroke-linecap="round"/>
<path d="M22.0099 23.8953L14.3719 19.8148C14.0762 19.6553 13.7467 19.5713 13.4087 19.5713C13.0708 19.5713 12.7413 19.6553 12.4455 19.8148L4.80754 23.8953C2.45868 25.1547 1.45324 27.9758 2.49248 30.4275L3.70915 33.299" stroke="#D2AF75" stroke-width="1.5" stroke-miterlimit="10" stroke-linecap="round"/>
<path d="M11.0768 24.6763L8.37305 28.1019" stroke="#D2AF75" stroke-width="1.5" stroke-miterlimit="10" stroke-linecap="round"/>
<path d="M15.1323 24.6763L17.8445 28.1019" stroke="#D2AF75" stroke-width="1.5" stroke-miterlimit="10" stroke-linecap="round"/>
<path d="M4.3683 36.1201H2.10394C1.29282 36.1201 0.633789 35.4652 0.633789 34.6592C0.633789 33.8531 1.29282 33.1982 2.10394 33.1982H42.9047C43.7158 33.1982 44.3749 33.8531 44.3749 34.6592C44.3749 35.4652 43.7158 36.1201 42.9047 36.1201H32.5461" stroke="#D2AF75" stroke-width="1.5" stroke-miterlimit="10" stroke-linecap="round"/>
<path d="M41.2655 36.9346C41.2655 37.7322 40.6149 38.3703 39.8207 38.3703H5.01877C4.21611 38.3703 3.57397 37.7238 3.57397 36.9346" stroke="#D2AF75" stroke-width="1.5" stroke-miterlimit="10" stroke-linecap="round"/>
<path d="M16.8137 8.64802C17.2784 8.18623 17.2784 7.43058 16.8137 6.9688C16.349 6.50701 16.349 5.75136 16.8137 5.28957C17.2784 4.82778 17.2784 4.07213 16.8137 3.61035L16.0786 2.87988" stroke="#D2AF75" stroke-width="1.5" stroke-miterlimit="10" stroke-linecap="round"/>
<path d="M22.9055 6.39778C23.3702 5.93599 23.3702 5.18034 22.9055 4.71855C22.4408 4.25676 22.4408 3.50111 22.9055 3.03933C23.3702 2.57754 23.3702 1.82189 22.9055 1.3601L22.1704 0.629639" stroke="#D2AF75" stroke-width="1.5" stroke-miterlimit="10" stroke-linecap="round"/>
<path d="M27.6709 9.0677C28.1356 8.60591 28.1356 7.85026 27.6709 7.38847C27.2062 6.92669 27.2062 6.17104 27.6709 5.70925C28.1356 5.24746 28.1356 4.49181 27.6709 4.03002L26.9358 3.29956" stroke="#D2AF75" stroke-width="1.5" stroke-miterlimit="10" stroke-linecap="round"/>
</g>
<defs>
<clipPath id="clip0_622_676">
<rect width="45" height="39" fill="white"/>
</clipPath>
</defs>
</svg>
