<svg width="90" height="71" viewBox="0 0 90 71" fill="none" xmlns="http://www.w3.org/2000/svg">
<g clip-path="url(#clip0_849_1021)">
<path d="M37.7161 45.1967H51.7516C53.2369 45.1991 54.708 44.9088 56.0809 44.3422C57.4538 43.7757 58.7014 42.9441 59.7525 41.8951C60.8036 40.846 61.6375 39.6001 62.2064 38.2286C62.7754 36.8571 63.0682 35.3869 63.0682 33.9021V13.1494C63.0682 10.149 61.8759 7.27148 59.7536 5.14988C57.6314 3.02828 54.753 1.83643 51.7516 1.83643H13.1723C11.6871 1.83642 10.2163 2.12916 8.84438 2.69791C7.47242 3.26667 6.22615 4.10025 5.17678 5.151C4.1274 6.20175 3.2955 7.44902 2.72879 8.82147C2.16208 10.1939 1.87162 11.6646 1.87404 13.1494V33.9021C1.87404 36.8976 3.06445 39.7704 5.18328 41.8886C7.30211 44.0067 10.1758 45.1967 13.1723 45.1967H16.8465V58.6768L26.6016 48.9249C28.9979 46.5582 32.2349 45.2374 35.6035 45.2518H37.7161" stroke="#2D2A26" stroke-width="4" stroke-linejoin="round"/>
<path d="M62.8845 22.479H78.849C81.3193 22.479 83.6884 23.46 85.4351 25.2062C87.1818 26.9523 88.1632 29.3207 88.1632 31.7902V48.8515C88.1583 51.3177 87.1748 53.6814 85.4286 55.4236C83.6824 57.1658 81.3161 58.1443 78.849 58.1443H75.7994V69.1635L67.7896 61.1378C65.8397 59.188 63.1991 58.0859 60.4412 58.0708H47.1405C44.6751 58.0708 42.3107 57.0917 40.5674 55.349C38.8241 53.6063 37.8447 51.2426 37.8447 48.778V44.9397" stroke="#2D2A26" stroke-width="4" stroke-linejoin="round"/>
<path d="M13.833 14.582H35.7681" stroke="#2D2A26" stroke-width="4" stroke-linecap="round" stroke-linejoin="round"/>
<path d="M41.3896 14.582H52.3021" stroke="#2D2A26" stroke-width="4" stroke-linecap="round" stroke-linejoin="round"/>
<path d="M52.3023 23.7646H30.3672" stroke="#2D2A26" stroke-width="4" stroke-linecap="round" stroke-linejoin="round"/>
<path d="M24.7454 23.7646H13.833" stroke="#2D2A26" stroke-width="4" stroke-linecap="round" stroke-linejoin="round"/>
<path d="M13.833 32.9473H35.7681" stroke="#2D2A26" stroke-width="4" stroke-linecap="round" stroke-linejoin="round"/>
<path d="M41.3896 32.9473H52.3021" stroke="#2D2A26" stroke-width="4" stroke-linecap="round" stroke-linejoin="round"/>
</g>
<defs>
<clipPath id="clip0_849_1021">
<rect width="90" height="71" fill="white"/>
</clipPath>
</defs>
</svg>
