<svg width="34" height="48" viewBox="0 0 34 48" fill="none" xmlns="http://www.w3.org/2000/svg">
<g clip-path="url(#clip0_622_1699)">
<path d="M14.6199 13.35C14.6199 13.35 9.7099 8.35003 9.7599 5.87003C9.8099 3.39003 12.1399 0.980028 13.9299 1.07003C15.7199 1.16003 17.4599 1.82003 17.4599 1.82003C17.4599 1.82003 20.3899 -0.109972 22.4799 0.720028C24.5699 1.55003 28.0599 5.74003 27.3099 7.35003C26.5599 8.96003 21.8399 13.37 21.8399 13.37" stroke="#F5F5F5" stroke-width="1.5" stroke-miterlimit="10" stroke-linecap="round"/>
<path d="M12.9099 5.22998C12.9099 5.22998 13.6299 8.81998 14.4799 10.03C15.3299 11.24 18.0099 13.18 18.0099 13.18C18.0099 13.18 20.3599 11.66 21.4599 9.28998" stroke="#F5F5F5" stroke-width="1.5" stroke-miterlimit="10" stroke-linecap="round"/>
<path d="M17.72 5.57007L18.1 12.2901" stroke="#F5F5F5" stroke-width="1.5" stroke-miterlimit="10" stroke-linecap="round"/>
<path d="M13.2699 16.4099L23.0399 17.7099C23.0399 17.7099 28.3999 24.9699 28.5899 25.4099C28.7199 25.7099 31.17 29.9799 32.74 32.6999C33.55 34.0999 33.45 35.8299 32.5 37.1299C30.39 40.0099 26.4599 44.8799 23.0099 46.3099C19.5599 47.7399 13.1999 46.8099 9.74995 46.1099C8.20995 45.7999 6.84995 44.9099 5.96995 43.5999C4.46995 41.3699 2.14995 37.7099 1.30995 35.1799C0.779949 33.5599 0.569949 31.7399 0.499949 30.1699C0.399949 27.8699 1.40995 25.6599 3.21995 24.2399L13.2599 16.4099H13.2699Z" stroke="#F5F5F5" stroke-width="1.5" stroke-miterlimit="10" stroke-linecap="round"/>
<path d="M13.2701 15.09L6.93012 13.74C6.49012 13.65 6.08012 13.45 5.73012 13.16L4.73012 12.35C4.33012 12.02 4.53012 11.38 5.05012 11.34L6.33012 11.25C6.80012 11.22 7.26012 11.3 7.69012 11.49L13.7301 14.16" stroke="#F5F5F5" stroke-width="1.5" stroke-linecap="round" stroke-linejoin="round"/>
<path d="M13.08 15.0499L5.28002 17.3499C4.83002 17.4799 4.52002 17.8999 4.52002 18.3699C4.52002 19.1199 5.27002 19.6299 5.97002 19.3599L13.54 16.4499L13.49 15.0799C13.45 14.1599 14.19 13.3999 15.1 13.3999H22.7C23.58 13.3999 24.31 14.0899 24.35 14.9699L24.38 15.6199C24.43 16.5299 23.76 17.3299 22.86 17.4499L22.01 17.5599" stroke="#F5F5F5" stroke-width="1.5" stroke-miterlimit="10" stroke-linecap="round"/>
<path d="M13.72 15.64L19.57 15.27" stroke="#F5F5F5" stroke-width="1.5" stroke-miterlimit="10" stroke-linecap="round"/>
<path d="M16.6499 18.8999C16.6499 18.8999 24.3999 30.4099 17.4999 43.9099" stroke="#F5F5F5" stroke-width="1.5" stroke-miterlimit="10" stroke-linecap="round"/>
<path d="M24.54 23.1201C24.54 23.1201 32.41 35.5201 26.33 44.5401" stroke="#F5F5F5" stroke-width="1.5" stroke-miterlimit="10" stroke-linecap="round"/>
<path d="M13.7201 18.24C13.7201 18.24 9.6801 24.45 8.6001 28.51" stroke="#F5F5F5" stroke-width="1.5" stroke-miterlimit="10" stroke-linecap="round"/>
</g>
<defs>
<clipPath id="clip0_622_1699">
<rect width="33.79" height="47.57" fill="white"/>
</clipPath>
</defs>
</svg>
