<svg width="48" height="41" viewBox="0 0 48 41" fill="none" xmlns="http://www.w3.org/2000/svg">
<g clip-path="url(#clip0_176_1220)">
<path d="M12.7018 28.6799V33.0358L3.24821 37.9269C2.4033 38.3587 1.3988 37.7485 1.3988 36.8003V8.02663C1.3988 7.55724 1.66166 7.11601 2.08412 6.90009L12.7018 1.4082V12.7018" stroke="#2D2A26" stroke-width="3" stroke-linecap="round" stroke-linejoin="round"/>
<path d="M12.7017 33.0358L23.9953 38.8751V7.25682L12.7017 1.4082" stroke="#2D2A26" stroke-width="3" stroke-linecap="round" stroke-linejoin="round"/>
<path d="M35.2983 22.7092V33.0358L23.9953 38.8751V7.25682L35.2983 1.4082V6.74049" stroke="#2D2A26" stroke-width="3" stroke-linecap="round" stroke-linejoin="round"/>
<path d="M35.2983 33.0358L44.7518 37.9269C45.5967 38.3587 46.6012 37.7485 46.6012 36.8003V8.02663C46.6012 7.55724 46.3384 7.11601 45.9159 6.90009L35.3077 1.4082" stroke="#2D2A26" stroke-width="3" stroke-linecap="round" stroke-linejoin="round"/>
<path d="M13.1993 19.3953C13.1993 17.2455 11.1903 15.5275 8.8058 15.734C6.73108 15.9124 5.20087 17.6304 5.20087 19.5549V19.7239C5.20087 20.0243 5.24781 20.3247 5.35107 20.6063C5.66087 21.5263 6.59965 23.77 9.20008 27.666C11.8005 23.7606 12.7393 21.5263 13.0491 20.6063C13.143 20.3153 13.1993 20.0243 13.1993 19.7239V19.3953Z" stroke="#2D2A26" stroke-width="1.5" stroke-linecap="round" stroke-linejoin="round"/>
<path d="M9.1907 21.2259C9.99952 21.2259 10.6552 20.5702 10.6552 19.7614C10.6552 18.9526 9.99952 18.2969 9.1907 18.2969C8.38188 18.2969 7.7262 18.9526 7.7262 19.7614C7.7262 20.5702 8.38188 21.2259 9.1907 21.2259Z" stroke="#2D2A26" stroke-linecap="round" stroke-linejoin="round"/>
<path d="M42.3579 13.143C42.3579 10.9931 40.3489 9.27517 37.9644 9.48171C35.8897 9.66007 34.3595 11.378 34.3595 13.3026V13.4715C34.3595 13.7719 34.4064 14.0724 34.5097 14.354C34.8195 15.274 35.7583 17.5177 38.3587 21.4136C40.9591 17.5083 41.8979 15.274 42.2077 14.354C42.3016 14.063 42.3579 13.7719 42.3579 13.4715V13.143Z" stroke="#2D2A26" stroke-width="1.5" stroke-linecap="round" stroke-linejoin="round"/>
<path d="M38.3493 14.9736C39.1581 14.9736 39.8138 14.3179 39.8138 13.5091C39.8138 12.7002 39.1581 12.0446 38.3493 12.0446C37.5405 12.0446 36.8848 12.7002 36.8848 13.5091C36.8848 14.3179 37.5405 14.9736 38.3493 14.9736Z" stroke="#2D2A26" stroke-linecap="round" stroke-linejoin="round"/>
</g>
<defs>
<clipPath id="clip0_176_1220">
<rect width="48" height="40.2832" fill="white"/>
</clipPath>
</defs>
</svg>
