<svg width="54" height="32" viewBox="0 0 54 32" fill="none" xmlns="http://www.w3.org/2000/svg">
<g clip-path="url(#clip0_622_876)">
<path d="M1.44111 9.45019C1.44111 9.45019 8.24927 10.7342 11.3016 14.8455C11.3016 14.8455 23.1591 2.24146 32.9742 2.24146C42.7893 2.24146 48.8486 11.6916 50.5619 16.6251H53.149C53.149 16.6251 44.2531 31.4255 29.8878 30.5582C15.5226 29.6909 10.9612 17.6952 10.9612 17.6952C10.9612 17.6952 7.45498 22.7525 0.851074 22.2119C0.851074 22.2119 7.36421 16.3661 1.44111 9.43892V9.45019Z" stroke="#D2AF75" stroke-width="1.5" stroke-linecap="round" stroke-linejoin="round"/>
<path d="M17.8487 9.37138L13.2986 7.09613C13.2986 7.09613 21.9903 -2.70324 35.1414 2.23023" stroke="#D2AF75" stroke-width="1.5" stroke-linecap="round" stroke-linejoin="round"/>
<path d="M14.3426 23.0342L12.1753 25.4559C12.1753 25.4559 16.8502 32.9237 29.1276 30.761" stroke="#D2AF75" stroke-width="1.5" stroke-linecap="round" stroke-linejoin="round"/>
<path d="M34.3924 9.82178C34.3924 9.82178 32.35 22.5046 39.7822 28.9812" stroke="#D2AF75" stroke-width="1.5" stroke-linecap="round" stroke-linejoin="round"/>
<path d="M30.7614 14.5413L27.9133 14.2034C26.6651 14.057 25.5758 15.1495 25.8255 16.3773C25.9616 17.0644 26.2226 17.8528 26.6878 18.6863C27.1985 19.5987 28.3785 19.9028 29.2863 19.3847L31.9301 17.8753" stroke="#D2AF75" stroke-width="1.5" stroke-linecap="round" stroke-linejoin="round"/>
<path d="M44.8545 16.6814H51.118" stroke="#D2AF75" stroke-width="1.5" stroke-linecap="round" stroke-linejoin="round"/>
<path d="M32.1685 4.49409C32.1685 4.49409 37.2065 4.03228 39.6234 7.44517" stroke="#D2AF75" stroke-width="1.5" stroke-linecap="round" stroke-linejoin="round"/>
<path d="M40.9965 13.7867L40.9398 12.9194C40.8831 12.1309 41.5185 11.4551 42.3241 11.4551C43.0617 11.4551 43.6631 12.0295 43.7085 12.7504L43.7652 13.7867" stroke="#D2AF75" stroke-width="1.5" stroke-linecap="round" stroke-linejoin="round"/>
</g>
<defs>
<clipPath id="clip0_622_876">
<rect width="54" height="32" fill="white"/>
</clipPath>
</defs>
</svg>
