<svg width="42" height="39" viewBox="0 0 42 39" fill="none" xmlns="http://www.w3.org/2000/svg">
<g clip-path="url(#clip0_622_1373)">
<path d="M35.4409 18.1264C27.621 8.14746 17.9717 6.04216 14.9954 5.61732C14.4551 5.54179 13.9338 5.82502 13.7063 6.32538L0.758402 34.1097C0.758402 34.1097 0.19916 36.2622 3.09963 36.1584C6.00011 36.0545 12.0665 31.4663 13.5641 31.8817C15.0617 32.2971 12.7963 36.6398 15.1375 36.8475C17.4788 37.0552 15.0712 31.5324 16.7394 30.0029C18.4077 28.4735 20.9954 29.7575 20.2939 34.5251C19.5925 39.2927 23.4314 39.0095 23.6778 36.5738C23.9243 34.138 21.621 27.8504 25.4883 26.2172C28.0854 25.122 32.3129 22.7335 34.8153 21.2796C35.9338 20.6282 36.2276 19.1366 35.4314 18.1264H35.4409Z" stroke="#D2AF75" stroke-width="1.5" stroke-miterlimit="10"/>
<path d="M0.710938 35.1576C0.710938 35.1576 1.09956 37.9049 5.11852 37.7255C9.13748 37.5461 14.1043 33.5149 14.1043 33.5149" stroke="#D2AF75" stroke-width="1.5" stroke-miterlimit="10"/>
<path d="M23.2322 30.2199C23.2322 30.2199 37.327 23.753 39.3459 22.1197C41.3649 20.4864 41.9241 16.7007 40.4928 15.8321C39.0616 14.9636 35.7061 15.6905 35.8862 19.0986" stroke="#D2AF75" stroke-width="1.5" stroke-miterlimit="10"/>
<path d="M14.1042 5.83434C14.1042 5.83434 11.9146 0.925115 17.0805 0.717417C22.2464 0.509719 33.2037 4.47486 40.872 16.1154" stroke="#D2AF75" stroke-width="1.5" stroke-miterlimit="10"/>
<path d="M19.0046 3.01172C19.0046 3.01172 23.2985 3.98412 26.7866 6.41985" stroke="#D2AF75" stroke-width="1.5" stroke-miterlimit="10" stroke-linecap="round"/>
<path d="M15.8295 15.8701C15.8295 15.8701 19.8769 15.9739 20.2276 13.4721C20.5783 10.9703 17.5735 8.74224 16.1138 9.61079C14.6541 10.4793 11.365 13.7836 15.8389 15.8701H15.8295Z" stroke="#D2AF75" stroke-width="1.5" stroke-miterlimit="10" stroke-linecap="round"/>
<path d="M23.5356 18.9289C23.5356 18.9289 25.109 17.4373 27.4123 18.438C29.7157 19.4387 28.8436 23.064 26.1232 23.2717C23.4029 23.4794 21.583 20.836 23.545 18.9289H23.5356Z" stroke="#D2AF75" stroke-width="1.5" stroke-miterlimit="10" stroke-linecap="round"/>
<path d="M8.7109 25.5658C8.7109 25.5658 9.75355 22.7525 13.0711 23.7626C16.3886 24.7728 13.6682 28.7663 12.1611 28.7663C10.654 28.7663 8.38862 27.69 8.7109 25.5658Z" stroke="#D2AF75" stroke-width="1.5" stroke-miterlimit="10" stroke-linecap="round"/>
<path d="M10.635 17.1162C10.635 17.1162 12.7582 17.8715 11.0047 20.0334" stroke="#D2AF75" stroke-width="1.5" stroke-miterlimit="10" stroke-linecap="round"/>
<path d="M8.19916 30.6072C8.19916 30.6072 6.2276 31.6929 5.75366 28.9551" stroke="#D2AF75" stroke-width="1.5" stroke-miterlimit="10" stroke-linecap="round"/>
<path d="M17.8672 26.6893C17.8672 26.6893 17.8577 24.4424 20.4928 25.3487" stroke="#D2AF75" stroke-width="1.5" stroke-miterlimit="10" stroke-linecap="round"/>
<path d="M19.8862 21.7895C19.8862 21.7895 17.6872 22.2898 17.9999 19.5237" stroke="#D2AF75" stroke-width="1.5" stroke-miterlimit="10" stroke-linecap="round"/>
<path d="M31.6872 20.6847C31.6872 20.6847 29.5071 20.1183 31.0616 17.8147" stroke="#D2AF75" stroke-width="1.5" stroke-miterlimit="10" stroke-linecap="round"/>
<path d="M23.4692 12.9527C23.4692 12.9527 25.5451 12.0936 25.7062 14.8692" stroke="#D2AF75" stroke-width="1.5" stroke-miterlimit="10" stroke-linecap="round"/>
</g>
<defs>
<clipPath id="clip0_622_1373">
<rect width="42" height="39" fill="white"/>
</clipPath>
</defs>
</svg>
