<svg width="50" height="27" viewBox="0 0 50 27" fill="none" xmlns="http://www.w3.org/2000/svg">
<g clip-path="url(#clip0_622_1729)">
<path d="M21.4817 9.83616C21.4817 9.83616 20.4931 1.67229 14.201 1.03358C7.90879 0.394874 5.12908 4.54068 4.95462 8.68649C4.78016 12.8323 9.53708 14.9691 12.5727 14.9691C15.6083 14.9691 35.9502 15.3523 39.3696 14.9691C42.789 14.5858 45.1035 11.1252 45.3128 7.57165C45.5222 4.0181 42.882 -2.009 30.3791 2.4852" stroke="#F5F5F5" stroke-width="1.5" stroke-miterlimit="10" stroke-linecap="round"/>
<path d="M17.574 2.34585C17.574 2.34585 30.7631 -4.27351 32.9845 10.5446" stroke="#F5F5F5" stroke-width="1.5" stroke-miterlimit="10" stroke-linecap="round"/>
<path d="M4.14051 9.02331C4.14051 9.02331 0.628063 10.0917 0.883936 14.4117C1.13981 18.7317 8.11818 19.0336 11.2817 18.1278C14.4452 17.222 18.7253 18.8594 20.7839 19.9627C22.8425 21.0659 26.7388 16.4556 30.9723 18.5111C35.2059 20.5665 42.8704 19.4982 46.4759 16.7575C50.0814 14.0169 48.1391 9.91751 45.3129 8.84912" stroke="#F5F5F5" stroke-width="1.5" stroke-miterlimit="10" stroke-linecap="round"/>
<path d="M3.30313 17.6516C3.30313 17.6516 2.03539 20.4387 6.95514 21.8439C11.8749 23.249 16.5504 21.031 16.5504 21.031" stroke="#F5F5F5" stroke-width="1.5" stroke-miterlimit="10" stroke-linecap="round"/>
<path d="M14.5266 17.9419C14.5266 17.9419 16.12 21.8554 23.0984 22.9587C30.0767 24.0619 34.1823 21.5071 34.1823 21.5071" stroke="#F5F5F5" stroke-width="1.5" stroke-miterlimit="10" stroke-linecap="round"/>
<path d="M32.9961 19.0335C32.9961 19.0335 34.6244 23.0515 40.0559 23.0051C45.4874 22.9586 48.5811 21.3793 49.0463 19.3702C49.5116 17.3612 47.7437 15.4451 47.7437 15.4451" stroke="#F5F5F5" stroke-width="1.5" stroke-miterlimit="10" stroke-linecap="round"/>
<path d="M7.60645 22.4941C7.60645 22.4941 10.2233 25.6529 14.7593 25.8735C19.2952 26.0941 32.6123 26.338 36.9737 25.8735C41.3352 25.409 43.6497 23.0051 43.6497 23.0051" stroke="#F5F5F5" stroke-width="1.5" stroke-miterlimit="10" stroke-linecap="round"/>
</g>
<defs>
<clipPath id="clip0_622_1729">
<rect width="50" height="27" fill="white"/>
</clipPath>
</defs>
</svg>
