<svg width="90" height="25" viewBox="0 0 90 25" fill="none" xmlns="http://www.w3.org/2000/svg">
<g clip-path="url(#clip0_21_648)">
<path d="M0.609255 -5.83404e-06C0.27477 -5.8048e-06 2.45464e-05 0.340593 2.45828e-05 0.756882C2.46192e-05 1.17317 0.274771 1.52134 0.609255 1.52134L19.6748 1.52133L19.6748 5.1771C19.6748 5.38146 19.6868 5.57069 19.6927 5.76748L11.6651 6.90281C11.3366 6.94822 11.0977 7.32667 11.1336 7.74296C11.1694 8.12897 11.4262 8.41658 11.7308 8.41658C11.7547 8.41658 11.7786 8.41658 11.7965 8.41658L19.7764 7.28882C19.9137 8.74961 20.1945 10.0439 20.6365 11.1641L13.8453 15.0091C13.5406 15.1832 13.4092 15.6297 13.5406 16.0157C13.6422 16.2958 13.8572 16.4699 14.0901 16.4699C14.1738 16.4699 14.2574 16.4472 14.335 16.4018L21.2696 12.4735C21.9326 13.6088 22.8046 14.5171 23.9037 15.1907L18.4504 21.9043C18.2115 22.1995 18.2055 22.6764 18.4384 22.9791C18.5579 23.1305 18.7132 23.2062 18.8685 23.2062C19.0238 23.2062 19.1671 23.1381 19.2866 22.9942L25.1281 15.8038C26.3526 16.3185 27.792 16.6213 29.4525 16.7121L26.9737 23.9479C26.8423 24.3339 26.9797 24.7805 27.2843 24.947C27.362 24.9924 27.4456 25.0076 27.5233 25.0076C27.7562 25.0076 27.9772 24.8335 28.0728 24.5459L30.7427 16.7424L35.6882 16.7424L34.9118 24.1447C34.8699 24.561 35.0969 24.947 35.4254 25C35.4553 25 35.4792 25 35.5031 25C35.8017 25 36.0586 24.72 36.0944 24.3415L36.8888 16.7424L41.7627 16.7424L41.7627 24.2355C41.7627 24.6594 42.0315 25 42.36 25C42.6885 25 42.9633 24.6594 42.9633 24.2355L42.9633 15.9703C42.9633 15.554 42.6945 15.2134 42.36 15.2134L30.5635 15.2134C22.0162 15.2134 20.8634 10.1347 20.8634 5.16953L20.8634 0.75688C20.8634 0.340591 20.5947 -7.58122e-06 20.2602 -7.55198e-06L0.591337 -5.83247e-06L0.609255 -5.83404e-06Z" fill="#BC8B44"/>
<path d="M48.9899 5.48981e-05C48.8227 5.49127e-05 48.6734 0.0833107 48.5659 0.219551C48.53 0.249826 48.4882 0.280102 48.4524 0.317947L44.9941 4.91226L41.4402 0.227122C41.3326 0.0833123 41.1774 5.55811e-05 41.0101 5.55957e-05L26.251 5.6886e-05C24.6682 5.70244e-05 23.9634 0.908322 23.9634 2.93678L23.9634 6.13085C23.9634 8.65885 24.9788 11.6713 29.8228 11.6713L42.4197 11.6713C42.6646 11.6713 42.8796 11.4896 42.9752 11.202C43.0708 10.9144 43.017 10.5889 42.8498 10.377L38.7165 5.10148C38.603 4.95767 38.4477 4.87441 38.2924 4.87441L29.1837 4.87441C28.8552 4.87441 28.5805 5.21501 28.5805 5.6313C28.5805 6.04759 28.8492 6.39576 29.1837 6.39576L38.0416 6.39576L40.9862 10.1499L29.8348 10.1499C25.6597 10.1499 25.1759 7.85655 25.1759 6.13085L25.1759 2.93678C25.1759 1.69549 25.4088 1.51383 26.263 1.51383L40.7652 1.51383L44.5759 6.53957C44.6894 6.69094 44.8447 6.7742 45.012 6.7742C45.1732 6.7742 45.3285 6.69094 45.448 6.53957L49.2289 1.51383L63.7669 1.51383C64.6211 1.51383 64.854 1.68791 64.854 2.93678L64.854 6.13085C64.854 7.85655 64.3702 10.1499 60.1951 10.1499L49.0437 10.1499L51.9824 6.39576L60.8402 6.39576C61.1687 6.39576 61.4375 6.05516 61.4375 5.6313C61.4375 5.20744 61.1687 4.87441 60.8402 4.87441L51.7315 4.87441C51.5702 4.87441 51.4209 4.95767 51.3074 5.10148L47.1742 10.377C47.001 10.5965 46.9532 10.9219 47.0487 11.202C47.1443 11.482 47.3593 11.6713 47.6042 11.6713L60.2011 11.6713C65.0452 11.6713 66.0605 8.65885 66.0605 6.13085L66.0605 2.93678C66.0605 0.900749 65.3557 5.34674e-05 63.7729 5.36058e-05L49.0138 5.4896e-05L48.9899 5.48981e-05Z" fill="#BC8B44"/>
<path d="M69.7219 -7.76398e-06C69.3934 -7.73526e-06 69.1187 0.340593 69.1187 0.756882L69.1187 5.16954C69.1187 10.1347 67.9659 15.2134 59.4186 15.2134L47.6221 15.2134C47.2876 15.2134 47.0188 15.554 47.0188 15.9703L47.0188 24.2355C47.0188 24.6594 47.2876 25 47.6221 25C47.9566 25 48.2194 24.6594 48.2194 24.2355L48.2194 16.7348L53.0933 16.7348L53.8877 24.3339C53.9295 24.7124 54.1864 24.9924 54.485 24.9924C54.5089 24.9924 54.5388 24.9924 54.5626 24.9924C54.8912 24.9395 55.1241 24.5534 55.0763 24.1372L54.2998 16.7348L59.2454 16.7348L61.9273 24.5383C62.0228 24.8259 62.2438 25 62.4768 25C62.5544 25 62.638 24.9773 62.7157 24.9395C63.0203 24.7729 63.1577 24.3264 63.0263 23.9404L60.5475 16.7045C62.208 16.6137 63.6475 16.3109 64.8719 15.7962L70.7134 22.9867C70.8329 23.1305 70.9822 23.1986 71.1315 23.1986C71.2809 23.1986 71.4421 23.1229 71.5616 22.9715C71.7945 22.6688 71.7886 22.1919 71.5496 21.8968L66.0964 15.1832C67.1954 14.502 68.0674 13.6013 68.7304 12.4659L75.665 16.3942C75.7426 16.4396 75.8263 16.4623 75.9099 16.4623C76.1368 16.4623 76.3578 16.2958 76.4594 16.0082C76.5968 15.6297 76.4594 15.1756 76.1548 15.0015L69.3636 11.1565C69.8055 10.0439 70.0863 8.74962 70.2177 7.28125L78.1975 8.40902C78.1975 8.40902 78.2453 8.40902 78.2632 8.40902C78.5678 8.40902 78.8247 8.1214 78.8605 7.73539C78.8963 7.3191 78.6634 6.94065 78.3289 6.89524L70.3013 5.75991C70.3013 5.56312 70.3192 5.3739 70.3192 5.16954L70.3192 1.51377L89.3908 1.51377C89.7193 1.51377 89.9881 1.1883 90 0.779585L90 0.734171C89.9881 0.325451 89.7193 -9.5122e-06 89.3908 -9.48348e-06L69.7219 -7.76398e-06Z" fill="#BC8B44"/>
</g>
<defs>
<clipPath id="clip0_21_648">
<rect width="90" height="25" fill="white" transform="translate(90 25) rotate(180)"/>
</clipPath>
</defs>
</svg>
