<svg width="90" height="30" viewBox="0 0 90 30" fill="none" xmlns="http://www.w3.org/2000/svg">
<g clip-path="url(#clip0_176_1195)">
<path d="M3.92955 0L0 25.919L46.7208 29.7973V25.9118H86.009L90 0H3.92955Z" fill="#C91214"/>
<path d="M44.0528 22.166C43.5612 22.7897 42.8418 22.9475 40.6475 22.2162C39.1147 21.7037 38.6231 21.6176 37.6108 21.8004C37.6108 21.8004 37.947 20.89 38.3808 20.3774C38.8906 19.7717 39.581 19.7143 41.7754 20.4455C43.3081 20.9545 43.7926 21.0441 44.8048 20.8577C44.8048 20.8577 44.4577 21.6571 44.0565 22.1625" fill="white"/>
<path d="M64.9116 3.64175C65.4141 3.04674 66.1877 2.87827 68.3531 3.59874C69.8642 4.10056 70.3414 4.18658 71.3391 4.00736C71.3391 4.00736 70.9849 4.91064 70.5908 5.40887C70.1064 6.02181 69.4087 6.06482 67.2469 5.34077C65.7358 4.83895 65.2514 4.75292 64.2537 4.93214C64.2537 4.93214 64.4923 4.14357 64.9152 3.64175" fill="white"/>
<path d="M12.5226 20.1158C9.27269 20.1158 8.40509 18.0332 8.39062 13.4882C8.40509 8.94315 9.27269 6.8606 12.5226 6.8606C13.6722 6.8606 14.8037 7.05057 15.5123 7.24413V9.74964C14.782 9.50948 13.9469 9.28008 12.7178 9.28008C10.9681 9.28008 10.7946 11.2694 10.7946 13.4918C10.7946 15.7141 10.9681 17.7035 12.7178 17.7035C13.9469 17.7035 14.7856 17.4705 15.5159 17.2303L16.0581 19.5494C15.5484 19.786 14.0518 20.1194 12.5226 20.1194" fill="white"/>
<path d="M25.3196 16.4669C25.3196 19.7681 22.8867 20.1194 21.2057 20.1194C19.5247 20.1194 17.0918 19.7681 17.0918 16.4669V7.16528H19.4524V16.2231C19.4524 17.6891 20.3815 17.8648 21.2057 17.8648C22.0299 17.8648 22.959 17.6425 22.959 16.2231V7.16528H25.3196V16.4669Z" fill="white"/>
<path d="M30.6158 20.1373C28.8228 20.1373 27.5358 19.6821 27.5358 19.6821C26.9032 19.4993 26.4224 19.3093 26.4224 19.3093L27.1237 16.9328C27.778 17.1837 29.0975 17.7429 30.5941 17.7429C31.7762 17.7429 32.2643 17.1013 32.2064 16.259C32.1558 15.4955 31.7582 15.2051 30.7821 14.879C29.9217 14.5922 29.5096 14.4381 28.9927 14.2445C27.1309 13.5456 26.7658 12.5348 26.6393 10.9684C26.4947 9.1403 27.525 6.90363 30.5399 6.90363C32.333 6.90363 33.6199 7.35885 33.6199 7.35885L33.8513 9.91454C33.1969 9.66363 32.0184 9.25501 30.5182 9.25501C29.3361 9.25501 28.8951 9.98264 28.9565 10.8286C29.0143 11.5956 29.5783 11.9182 30.4025 12.2086C31.2665 12.5168 31.5304 12.6064 32.1414 12.8323C34.0067 13.5205 34.4008 14.5528 34.5273 16.1192C34.6719 17.9436 33.6308 20.1409 30.6158 20.1409" fill="white"/>
<path d="M53.5747 16.5565C53.5747 19.8577 51.1418 20.1158 49.4608 20.1158C47.7798 20.1158 45.3469 19.8577 45.3469 16.5565V7.16168H47.7075V16.2195C47.7075 17.6855 48.6366 17.7931 49.4608 17.7931C50.2851 17.7931 51.2141 17.6389 51.2141 16.2195V7.16168H53.5747V16.5565Z" fill="white"/>
<path d="M61.0146 12.3161V14.6065H57.5188V17.5709H62.2111V19.9079H55.1582V7.16528H62.2111V9.52025H57.5188V12.3161H61.0146Z" fill="white"/>
<path d="M71.7369 19.9079H69.4052L65.8371 12.6136L65.895 19.9079H63.5669V7.16528H65.7865L69.4666 15.0689L69.4052 7.16528H71.7369V19.9079Z" fill="white"/>
<path d="M39.8017 6.88928C38.1207 6.88928 35.6877 7.14736 35.6877 10.4486V16.5565C35.6877 19.8577 38.1207 20.1158 39.8017 20.1158C41.4826 20.1158 43.9156 19.8577 43.9156 16.5565V10.4486C43.9156 7.14736 41.4826 6.88928 39.8017 6.88928ZM41.5549 16.2195C41.5549 17.639 40.6259 17.8612 39.8017 17.8612C38.9774 17.8612 38.0484 17.6856 38.0484 16.2195V10.7855C38.0484 9.31952 38.9774 9.14388 39.8017 9.14388C40.6259 9.14388 41.5549 9.36253 41.5549 10.7855V16.2195Z" fill="white"/>
<path d="M78.5438 7.16528H75.8289L72.7598 19.9115H75.2686L75.7856 17.6856H78.5872L79.1042 19.9115H81.613L78.5438 7.16528ZM76.2447 15.4095L77.1882 10.1475L78.1317 15.4095H76.2447Z" fill="white"/>
<path d="M79.6357 8.10078C79.6357 7.58821 80.0515 7.15808 80.5829 7.15808C81.1143 7.15808 81.5264 7.58104 81.5264 8.09003V8.0972C81.5264 8.6026 81.1107 9.03273 80.5793 9.03273C80.0479 9.03273 79.6394 8.60977 79.6394 8.10078M81.4433 8.0972V8.09003C81.4433 7.62406 81.0745 7.24052 80.5865 7.24052C80.0985 7.24052 79.7261 7.63123 79.7261 8.0972C79.7261 8.57034 80.0949 8.95388 80.5829 8.95388C81.0709 8.95388 81.4433 8.56317 81.4433 8.0972ZM80.2142 7.58821H80.648C80.7709 7.58821 80.8721 7.62764 80.9335 7.68858C80.9842 7.73159 81.0131 7.79611 81.0131 7.87497C81.0131 8.03626 80.9082 8.12946 80.7636 8.16172L81.0637 8.54884H80.8865L80.6082 8.18681H80.3587V8.54884H80.2142V7.58821ZM80.6335 8.05777C80.7709 8.05777 80.8649 7.99684 80.8649 7.88572C80.8649 7.77819 80.7817 7.71367 80.6443 7.71367H80.3587V8.05419H80.6335V8.05777Z" fill="white"/>
</g>
<defs>
<clipPath id="clip0_176_1195">
<rect width="90" height="29.7973" fill="white"/>
</clipPath>
</defs>
</svg>
