<svg width="240" height="134" viewBox="0 0 240 134" fill="none" xmlns="http://www.w3.org/2000/svg">
<g clip-path="url(#clip0_284_133)">
<path d="M78.9295 104L75 129.919L121.721 133.797V129.912H161.009L165 104H78.9295Z" fill="#C91214"/>
<path d="M119.053 126.166C118.561 126.79 117.842 126.947 115.647 126.216C114.115 125.704 113.623 125.618 112.611 125.8C112.611 125.8 112.947 124.89 113.381 124.377C113.891 123.772 114.581 123.714 116.775 124.446C118.308 124.955 118.793 125.044 119.805 124.858C119.805 124.858 119.458 125.657 119.056 126.162" fill="white"/>
<path d="M139.912 107.642C140.414 107.047 141.188 106.878 143.353 107.599C144.864 108.101 145.341 108.187 146.339 108.007C146.339 108.007 145.985 108.911 145.591 109.409C145.106 110.022 144.409 110.065 142.247 109.341C140.736 108.839 140.251 108.753 139.254 108.932C139.254 108.932 139.492 108.144 139.915 107.642" fill="white"/>
<path d="M87.5225 124.116C84.2726 124.116 83.405 122.033 83.3905 117.488C83.405 112.943 84.2726 110.861 87.5225 110.861C88.6721 110.861 89.8036 111.051 90.5121 111.244V113.75C89.7819 113.509 88.9468 113.28 87.7177 113.28C85.968 113.28 85.7945 115.269 85.7945 117.492C85.7945 119.714 85.968 121.703 87.7177 121.703C88.9468 121.703 89.7855 121.47 90.5157 121.23L91.058 123.549C90.5483 123.786 89.0517 124.119 87.5225 124.119" fill="white"/>
<path d="M100.32 120.467C100.32 123.768 97.8868 124.119 96.2058 124.119C94.5248 124.119 92.0919 123.768 92.0919 120.467V111.165H94.4525V120.223C94.4525 121.689 95.3816 121.865 96.2058 121.865C97.0301 121.865 97.9591 121.643 97.9591 120.223V111.165H100.32V120.467Z" fill="white"/>
<path d="M105.616 124.137C103.823 124.137 102.536 123.682 102.536 123.682C101.903 123.499 101.422 123.309 101.422 123.309L102.124 120.933C102.778 121.184 104.097 121.743 105.594 121.743C106.776 121.743 107.264 121.101 107.206 120.259C107.156 119.495 106.758 119.205 105.782 118.879C104.922 118.592 104.51 118.438 103.993 118.245C102.131 117.546 101.766 116.535 101.639 114.968C101.495 113.14 102.525 110.904 105.54 110.904C107.333 110.904 108.62 111.359 108.62 111.359L108.851 113.915C108.197 113.664 107.018 113.255 105.518 113.255C104.336 113.255 103.895 113.983 103.957 114.829C104.014 115.596 104.578 115.918 105.403 116.209C106.267 116.517 106.53 116.606 107.141 116.832C109.007 117.52 109.401 118.553 109.527 120.119C109.672 121.944 108.631 124.141 105.616 124.141" fill="white"/>
<path d="M128.575 120.556C128.575 123.858 126.142 124.116 124.461 124.116C122.78 124.116 120.347 123.858 120.347 120.556V111.162H122.708V120.22C122.708 121.686 123.637 121.793 124.461 121.793C125.285 121.793 126.214 121.639 126.214 120.22V111.162H128.575V120.556Z" fill="white"/>
<path d="M136.015 116.316V118.607H132.519V121.571H137.211V123.908H130.158V111.165H137.211V113.52H132.519V116.316H136.015Z" fill="white"/>
<path d="M146.737 123.908H144.405L140.837 116.614L140.895 123.908H138.567V111.165H140.786L144.467 119.069L144.405 111.165H146.737V123.908Z" fill="white"/>
<path d="M114.802 110.889C113.121 110.889 110.688 111.147 110.688 114.449V120.556C110.688 123.858 113.121 124.116 114.802 124.116C116.483 124.116 118.915 123.858 118.915 120.556V114.449C118.915 111.147 116.483 110.889 114.802 110.889ZM116.555 120.22C116.555 121.639 115.626 121.861 114.802 121.861C113.977 121.861 113.048 121.686 113.048 120.22V114.786C113.048 113.32 113.977 113.144 114.802 113.144C115.626 113.144 116.555 113.363 116.555 114.786V120.22Z" fill="white"/>
<path d="M153.544 111.165H150.829L147.76 123.911H150.269L150.786 121.686H153.587L154.104 123.911H156.613L153.544 111.165ZM151.245 119.409L152.188 114.148L153.132 119.409H151.245Z" fill="white"/>
<path d="M154.636 112.101C154.636 111.588 155.051 111.158 155.583 111.158C156.114 111.158 156.526 111.581 156.526 112.09V112.097C156.526 112.603 156.111 113.033 155.579 113.033C155.048 113.033 154.639 112.61 154.639 112.101M156.443 112.097V112.09C156.443 111.624 156.075 111.241 155.586 111.241C155.098 111.241 154.726 111.631 154.726 112.097C154.726 112.57 155.095 112.954 155.583 112.954C156.071 112.954 156.443 112.563 156.443 112.097ZM155.214 111.588H155.648C155.771 111.588 155.872 111.628 155.934 111.689C155.984 111.732 156.013 111.796 156.013 111.875C156.013 112.036 155.908 112.129 155.764 112.162L156.064 112.549H155.887L155.608 112.187H155.359V112.549H155.214V111.588ZM155.633 112.058C155.771 112.058 155.865 111.997 155.865 111.886C155.865 111.778 155.782 111.714 155.644 111.714H155.359V112.054H155.633V112.058Z" fill="white"/>
</g>
<g clip-path="url(#clip1_284_133)">
<path d="M29.375 50.1606C29.1682 50.7179 29.0933 51.1043 29.0933 51.4219C29.0933 51.8683 29.2222 52.108 29.351 52.2578V52.3506C27.7182 52.3446 26.1064 52.3416 24.4736 52.3357V52.2428C25.2735 51.3919 25.8727 49.9659 26.3011 48.8724L29.327 41.2777C29.5697 40.6486 29.6086 40.352 29.6086 40.2591C29.6086 39.8517 29.4798 39.609 29.351 39.4622V39.3693L33.6891 39.3813L37.407 48.9053C37.8294 50.0018 38.4196 51.4309 39.2135 52.2847V52.3776C37.5808 52.3716 35.969 52.3686 34.3362 52.3626V52.2697C34.465 52.1229 34.5968 51.8803 34.5968 51.4369C34.5968 51.1223 34.5249 50.7149 34.3032 50.1756L34.0636 49.5644L29.3899 50.1247L29.372 50.1606H29.375ZM31.8616 43.9201L30.4026 47.6231L33.1858 47.2785L31.8616 43.9171V43.9201Z" fill="white"/>
<path d="M39.9595 52.2878C40.5557 51.6767 40.6875 50.1937 40.6935 48.4141L40.7085 43.369C40.7145 41.6074 40.5887 40.1064 39.9985 39.4922V39.3994L46.1551 39.4173C47.7489 39.4233 49.3457 39.4263 49.9749 39.1507L50.0678 39.1866L50.7239 43.1383L50.631 43.1562C49.5585 42.2635 48.2972 42.2605 46.6854 42.2545L44.052 42.2455L44.046 44.6572L46.1611 44.6632C47.3654 44.6662 48.423 44.5973 48.9623 44.1329L49.0551 44.1689C49.0522 45.4302 49.0462 46.6735 49.0432 47.9318L48.9503 47.9677C47.8777 47.036 46.7093 47.033 45.0766 47.03H44.037L44.028 49.5496L46.94 49.5585C48.5518 49.5645 49.8131 49.5675 50.8916 48.6807L50.9845 48.6987L50.3044 52.6473L50.2116 52.6833C49.5824 52.4047 47.9886 52.3987 46.3918 52.3927L39.9565 52.3747V52.2818L39.9595 52.2878Z" fill="white"/>
<path d="M52.3808 47.4853C53.3245 48.6927 55.7302 49.8311 58.121 49.8401C58.9928 49.8401 59.6249 49.6035 59.6249 48.9533V48.8605C59.6279 47.9138 57.9592 47.5962 55.9969 46.997C54.0315 46.3978 52.4796 45.4481 52.4856 43.1652V42.9795C52.4946 39.7169 55.4276 39.2436 57.7255 39.2496C58.9119 39.2526 60.2451 39.5342 60.8772 39.5372C61.2487 39.5372 61.6172 39.5372 61.8958 39.3724L61.9887 39.3904C62.1145 40.8374 62.2403 42.2844 62.3452 43.7315L62.2703 43.7674C61.4404 42.7278 59.2534 42.0537 57.6955 42.0478C56.6949 42.0448 55.9339 42.2665 55.9309 42.8596C55.9309 43.6386 56.9675 43.8094 58.2078 44.1838C60.3949 44.8399 63.0822 45.4032 63.0702 48.5759V48.7616C63.0612 51.8025 60.4817 52.6473 57.9232 52.6413C55.6224 52.6353 54.5139 51.9642 53.717 51.9612C53.4204 51.9612 53.0489 52.0691 52.8631 52.2548L52.7702 52.2369L52.2849 47.5063L52.3778 47.4883L52.3808 47.4853Z" fill="white"/>
<path d="M67.0366 52.3687C67.6507 51.7575 67.7646 50.2745 67.7706 48.4949L67.7885 42.3204C66.2127 42.3144 64.9873 42.3293 63.9298 43.1982L63.8369 43.1802L64.517 39.2316L64.6099 39.1956C65.239 39.4772 66.8328 39.4802 68.4297 39.4862L70.5058 39.4922C72.0997 39.4982 73.6965 39.5012 74.3436 39.2256L74.4365 39.2615L75.0926 43.2131L74.9997 43.2311C73.9452 42.3563 72.7019 42.3353 71.126 42.3293L71.108 48.5039C71.102 50.2835 71.2279 51.7665 71.821 52.3806V52.4735L67.0366 52.4585V52.3657V52.3687Z" fill="white"/>
<path d="M81.7795 39.5252C86.0457 39.5372 87.8762 41.4157 87.8672 44.0131C87.8612 46.0893 86.8935 47.2727 85.4825 47.9737L85.6862 48.3093C86.7557 50.017 87.8103 51.6707 88.8289 51.8984V51.9913C88.2537 52.4706 87.4538 52.7283 86.6569 52.7253C84.9132 52.7193 83.8946 52.162 82.8071 50.3944L81.8275 48.8336C81.2702 48.8875 80.713 48.9055 80.1587 48.9205C80.1737 50.5143 80.3175 51.8505 80.8718 52.4107V52.5036L76.0873 52.4886V52.3957C76.6835 51.7846 76.8183 50.3016 76.8213 48.522L76.8363 43.4769C76.8423 41.7153 76.7164 40.2143 76.1262 39.6001V39.5073L81.7825 39.5252H81.7795ZM84.3979 44.1509C84.4009 42.9286 83.3464 42.2755 81.4919 42.2695H80.1737L80.1617 46.4938C82.2019 46.4248 84.392 46.0803 84.3979 44.1509Z" fill="white"/>
<path d="M103.401 46.1372C103.386 50.736 100.211 52.7672 96.4477 52.7552H96.208C92.4242 52.7432 89.2605 50.694 89.2725 46.0953V46.0024C89.2875 41.3857 92.4631 39.3545 96.247 39.3664H96.4867C100.253 39.3784 103.416 41.4276 103.401 46.0444V46.1372ZM96.214 49.954H96.4537C98.5688 49.96 99.926 48.3902 99.9499 46.0713C99.938 43.7705 98.5898 42.1736 96.4747 42.1676H96.235C94.1019 42.1616 92.7448 43.7525 92.7178 46.0504C92.7298 48.3692 94.0779 49.9481 96.211 49.954" fill="white"/>
<path d="M104.884 47.6442C105.825 48.8515 108.234 49.99 110.624 49.999C111.496 49.999 112.128 49.7623 112.128 49.1122V49.0193C112.131 48.0726 110.463 47.752 108.5 47.1558C106.535 46.5566 104.983 45.6069 104.989 43.324V43.1383C104.998 39.8757 107.931 39.4024 110.229 39.4084C111.415 39.4114 112.748 39.693 113.381 39.696C113.752 39.696 114.124 39.696 114.402 39.5312L114.495 39.5492C114.621 40.9962 114.747 42.4432 114.852 43.8903L114.777 43.9262C113.944 42.8866 111.76 42.2126 110.202 42.2066C109.201 42.2036 108.44 42.4253 108.437 43.0185C108.437 43.7974 109.474 43.9682 110.714 44.3427C112.901 44.9988 115.589 45.562 115.58 48.7347V48.9204C115.571 51.9613 112.991 52.8061 110.43 52.8001C108.129 52.7941 107.02 52.1231 106.223 52.1201C105.927 52.1201 105.555 52.2309 105.369 52.4137L105.277 52.3957L104.791 47.6651L104.884 47.6472V47.6442Z" fill="white"/>
<path d="M126.79 39.66C130.832 39.672 133.627 41.85 133.615 46.1701C133.603 50.4903 130.796 52.6533 126.754 52.6414L121.134 52.6234V52.5305C121.73 51.9193 121.865 50.4363 121.868 48.6568L121.883 43.6116C121.889 41.85 121.763 40.3491 121.173 39.7349V39.642L126.793 39.66H126.79ZM130.164 46.1612C130.169 43.7315 128.764 42.4103 126.485 42.4043C126.113 42.4043 125.538 42.4193 125.223 42.4552L125.202 49.8342C125.535 49.8731 126.092 49.8911 126.464 49.8941C128.743 49.9001 130.158 48.5879 130.164 46.1582" fill="white"/>
<path d="M134.894 52.5725C135.491 51.9613 135.622 50.4783 135.628 48.6987L135.643 43.6566C135.649 41.895 135.524 40.3911 134.933 39.7799V39.687L141.09 39.705C142.684 39.711 144.281 39.714 144.91 39.4384L145.003 39.4743L145.659 43.4259L145.566 43.4439C144.493 42.5511 143.232 42.5481 141.62 42.5421L138.987 42.5331L138.981 44.9449L141.096 44.9508C142.3 44.9538 143.358 44.8849 143.897 44.4206L143.99 44.4565C143.987 45.7178 143.981 46.9611 143.978 48.2224L143.885 48.2583C142.813 47.3266 141.644 47.3236 140.011 47.3206H138.972L138.963 49.8402L141.875 49.8492C143.49 49.8552 144.748 49.8582 145.826 48.9714L145.919 48.9893L145.239 52.938L145.146 52.9739C144.517 52.6953 142.923 52.6893 141.327 52.6833L134.891 52.6653V52.5725H134.894Z" fill="white"/>
<path d="M151.938 39.7349V39.8278C151.342 40.4389 151.207 41.9399 151.204 43.7015L151.186 49.8761L153.487 49.8821C155.12 49.8881 156.381 49.8911 157.456 49.0043L157.549 49.0222L156.851 52.9708L156.758 53.0068C156.183 52.7641 154.811 52.7222 153.385 52.7192L147.118 52.7012V52.6083C147.714 51.9972 147.849 50.5142 147.852 48.7346L147.867 43.6895C147.873 41.9279 147.747 40.4269 147.157 39.8128V39.7199L151.941 39.7349H151.938Z" fill="white"/>
<path d="M163.301 47.8179C164.242 49.0252 166.651 50.1637 169.042 50.1727C169.913 50.1727 170.546 49.936 170.546 49.2859V49.193C170.549 48.2463 168.88 47.9287 166.918 47.3265C164.952 46.7274 163.4 45.7776 163.406 43.4948V43.309C163.415 40.0465 166.348 39.5731 168.646 39.5791C169.833 39.5821 171.166 39.8637 171.798 39.8667C172.169 39.8667 172.541 39.8667 172.819 39.7019L172.912 39.7199C173.038 41.1669 173.164 42.614 173.269 44.061L173.194 44.0969C172.361 43.0574 170.177 42.3833 168.619 42.3773C167.619 42.3743 166.858 42.596 166.855 43.1892C166.855 43.9681 167.891 44.1389 169.131 44.5134C171.319 45.1695 174.006 45.7327 173.994 48.9054V49.0911C173.985 52.132 171.405 52.9768 168.844 52.9708C166.543 52.9649 165.435 52.2938 164.638 52.2908C164.341 52.2908 163.97 52.4016 163.784 52.5844L163.691 52.5664L163.206 47.8358L163.298 47.8179H163.301Z" fill="white"/>
<path d="M179.261 50.6101C179.054 51.1643 178.979 51.5538 178.979 51.8714C178.979 52.3178 179.108 52.5574 179.237 52.7072V52.8001C177.604 52.7941 175.992 52.7911 174.359 52.7851V52.6922C175.159 51.8414 175.758 50.4153 176.187 49.3218L179.213 41.7272C179.455 41.098 179.494 40.8014 179.494 40.7086C179.494 40.3011 179.365 40.0585 179.237 39.9117V39.8188L183.575 39.8308L187.293 49.3548C187.715 50.4513 188.305 51.8804 189.099 52.7342V52.8271C187.466 52.8211 185.855 52.8181 184.222 52.8121V52.7192C184.354 52.5724 184.482 52.3297 184.482 51.8863C184.482 51.5718 184.411 51.1643 184.189 50.6251L183.949 50.0109L179.276 50.5711L179.258 50.6071L179.261 50.6101ZM181.744 44.3696L180.285 48.0755L183.068 47.731L181.744 44.3696Z" fill="white"/>
<path d="M189.842 52.8301V52.7372C190.438 52.126 190.573 50.6431 190.576 48.8635L190.591 43.8213C190.597 42.0597 190.471 40.5558 189.881 39.9446V39.8517L195.591 39.8697C198.225 39.8787 201.062 40.2562 201.053 43.2431C201.05 44.5404 200.433 45.523 199.411 46.2241C200.615 46.6165 201.688 47.734 201.682 49.235C201.673 51.7396 199.854 52.863 197.574 52.8571L189.842 52.8331V52.8301ZM193.919 47.6501L193.913 50.0409C194.543 50.0798 195.1 50.1008 195.564 50.1008C196.565 50.1038 198.216 49.9959 198.219 48.7167C198.219 47.9377 197.389 47.3056 196.667 47.3026C195.777 47.5033 194.848 47.6112 193.922 47.6471M197.625 43.6895C197.625 43.0035 196.942 42.611 195.42 42.608C194.938 42.608 194.402 42.6409 193.937 42.6949L193.928 45.2534C196.433 45.2624 197.619 44.7651 197.622 43.6895" fill="white"/>
<path d="M217.03 46.4757C217.015 51.0745 213.839 53.1057 210.077 53.0937H209.837C206.053 53.0817 202.889 51.0325 202.901 46.4338V46.3409C202.916 41.7242 206.092 39.693 209.876 39.7049H210.116C213.881 39.7169 217.045 41.7661 217.03 46.3829V46.4757ZM209.843 50.2925H210.083C212.198 50.2985 213.555 48.7287 213.579 46.4098C213.567 44.109 212.219 42.5121 210.104 42.5061H209.864C207.731 42.5001 206.374 44.091 206.347 46.3889C206.359 48.7077 207.707 50.2865 209.84 50.2925" fill="white"/>
<path d="M16.2288 44.7382L11.3485 52.0272L6.54302 44.7112L6.3363 52.0123C6.27039 53.9356 6.54002 55.3737 7.11824 56.0178V56.1706L-0.00305176 56.1496V55.9968C0.581151 55.3557 0.766898 53.9207 0.835804 51.9973L1.14438 40.9693C1.17734 40.4809 1.17734 40.0226 1.18033 39.5342C1.18633 37.7636 1.03653 36.3256 0.0928175 34.9175V34.7647L5.95882 34.7827L11.3724 42.8657L16.8669 34.8156L22.7329 34.8336V34.9864C21.7802 36.3885 21.6245 37.8565 21.6185 39.5971C21.6185 40.0855 21.6155 40.5439 21.6454 41.0322L21.8881 52.0632C21.945 53.9896 22.1218 55.4246 22.7 56.0687V56.2215L15.5787 56.2006V56.0478C16.1629 55.4066 16.4415 53.9716 16.3846 52.0482L16.2228 44.7441L16.2288 44.7382Z" fill="white"/>
<path d="M228.391 35.4417C235.42 35.4627 238.434 38.5575 238.422 42.8357C238.413 46.257 236.816 48.2104 234.491 49.3638L234.826 49.9151C236.591 52.7312 238.323 55.4545 240.003 55.829V55.9818C239.054 56.7727 237.738 57.1981 236.423 57.1952C233.55 57.1862 231.872 56.2634 230.078 53.3574L228.466 50.7869C227.549 50.8767 226.633 50.9037 225.716 50.9307C225.737 53.5581 225.977 55.7601 226.89 56.6799V56.8326L219.005 56.8087V56.6559C219.988 55.6493 220.206 53.2076 220.215 50.2746L220.239 41.9639C220.248 39.0608 220.042 36.5862 219.068 35.5736V35.4208L228.388 35.4477L228.391 35.4417ZM232.708 43.0634C232.714 41.0471 230.977 39.9716 227.921 39.9626L225.752 39.9566L225.731 46.9221C229.092 46.8113 232.699 46.2391 232.708 43.0634Z" fill="white"/>
<path d="M147.165 21.2501C146.608 20.582 146.68 19.5604 147.333 18.8503L162.373 2.52858C162.756 2.11214 163.287 1.86348 163.829 1.84551C164.371 1.82753 164.871 2.04024 165.198 2.43271L176.262 15.6986C176.588 16.0911 176.708 16.6184 176.594 17.1487C176.478 17.6789 176.139 18.1583 175.66 18.4609L156.902 30.3277C156.087 30.843 155.069 30.7321 154.511 30.0611L147.165 21.2531V21.2501ZM171.597 15.7675L155.985 25.6451C155.455 25.9806 155.26 26.6487 155.548 27.137C155.575 27.182 155.602 27.2209 155.635 27.2599C155.956 27.6434 156.549 27.7183 157.031 27.4127L172.643 17.5351C173.173 17.1996 173.368 16.5315 173.08 16.0432C172.793 15.5548 172.127 15.432 171.597 15.7675ZM153.097 22.4394C152.615 22.8409 152.516 23.521 152.879 23.9554C153.241 24.3898 153.927 24.4168 154.41 24.0123L168.475 12.2803C168.958 11.8788 169.057 11.1988 168.694 10.7644C168.332 10.3299 167.646 10.303 167.163 10.7074L153.097 22.4394ZM150.125 20.6509C150.158 20.6898 150.191 20.7258 150.23 20.7587C150.659 21.1302 151.351 21.0583 151.776 20.597L164.296 7.01347C164.722 6.55209 164.716 5.87502 164.29 5.50652C163.862 5.13503 163.17 5.20693 162.744 5.6683L150.224 19.2518C149.838 19.6712 149.805 20.2674 150.125 20.6539M150.072 26.1035C149.892 25.9237 149.715 25.732 149.535 25.5163C149.359 25.3035 149.2 25.0908 149.056 24.8811L138.981 33.2847L141.452 33.2907L150.075 26.1005L150.072 26.1035ZM103.144 14.6051C111.724 12.9544 116.484 13.236 116.484 13.236C116.484 13.236 106.912 14.2786 103.141 15.2612C104.531 22.4484 105.534 28.4013 106.259 33.3266L108.099 33.3326C107.598 29.9203 106.966 26.0106 106.16 21.5317C106.598 21.4238 108.398 21.1662 109.007 21.0793C109.093 21.6635 109.582 27.3857 110.133 33.3386L112.236 33.3446C112.452 26.9962 112.641 20.8366 112.641 20.8366C115.711 20.6779 119.75 20.5191 121.032 20.5041C123.537 20.552 132.593 20.7767 135.898 21.6186C135.065 26.0915 134.409 29.9981 133.888 33.4075L135.727 33.4135C136.482 28.4942 137.519 22.5443 138.951 15.3661C137.405 14.9556 134.882 14.5272 132.447 14.1647C133.004 14.1497 133.561 14.1258 134.118 14.0778C134.364 14.0569 134.628 14.0329 134.9 13.9999C136.138 14.1887 137.489 14.4194 138.954 14.71C139.784 14.665 140.074 12.8255 139.109 12.5979C139.109 12.5979 138.984 12.5439 138.69 12.4511C138.969 12.1035 139.154 11.6841 139.196 11.1628C139.475 9.8506 138.675 8.34965 137.764 7.4269C137.348 7.00448 136.872 6.65695 136.371 6.33339C136.197 6.22254 136.144 5.84506 136.066 5.67129C135.356 4.26921 134.034 3.30152 132.357 3.31051C131.928 3.31051 131.515 3.39739 131.095 3.47529C130.982 3.49626 130.682 2.90606 130.607 2.8012C129.966 1.91741 128.935 1.27928 127.809 1.15345C127.294 1.09653 126.772 1.1145 126.269 1.24333C125.793 1.36616 125.868 1.38114 125.957 1.80956C126.002 2.02227 126.029 2.23498 126.038 2.45068C126.062 2.8042 126.026 3.19966 125.933 3.5412C126.092 1.57288 120.361 -2.54351 115.532 2.19903C115.436 2.30388 115.187 2.72631 115.025 2.67538C114.249 2.4357 111.685 2.54056 111.415 5.30579C111.229 4.69462 111.298 4.04751 111.55 3.46929C110.037 2.948 108.267 3.30751 107.122 4.40102C106.855 4.65568 106.673 5.02118 106.403 5.25786C106.136 5.49154 105.711 5.62935 105.414 5.84206C104.591 6.43825 103.91 7.25014 103.557 8.18187C103.272 8.92486 103.12 9.88356 103.38 10.6535C103.704 11.6092 104.932 11.5912 105.798 11.5792C106.553 11.5673 107.314 11.5313 108.075 11.5014C104.24 11.9477 102.994 12.487 102.994 12.487C102.029 12.7087 102.311 14.5512 103.138 14.5991M86.1177 20.6059C87.5018 18.9642 76.3181 9.12858 72.4563 2.90307C85.7073 15.9952 95.7406 19.7341 91.3066 24.986C86.8727 30.2378 81.504 20.9774 66.3746 10.1082C73.1634 12.8705 84.7336 22.2477 86.1207 20.6059M86.2705 24.6654C87.7115 26.0016 89.6978 25.8248 90.7824 24.5426C91.8639 23.2603 91.7081 21.265 90.1472 20.0757C90.5157 21.1422 90.7045 22.3586 89.6619 23.5959C88.6852 24.7553 87.6277 24.8871 86.2735 24.6654M91.774 25.3784C91.5942 25.5912 91.4145 25.7829 91.2347 25.9597L99.7701 33.1648L102.242 33.1738L92.2623 24.7493C92.1185 24.956 91.9598 25.1657 91.777 25.3784" fill="white"/>
<path d="M212.351 35.4148C161.873 34.4381 80.12 34.2134 30.5315 34.8726C80.3357 35.8312 162.106 36.0859 212.351 35.4148Z" fill="white"/>
<path d="M212.285 56.8596C161.807 55.883 80.0541 55.6583 30.4656 56.3174C80.2698 57.2761 162.041 57.5307 212.285 56.8596Z" fill="white"/>
<path d="M57.8091 85.3958C58.7708 84.4101 58.9865 82.0194 58.9955 79.1463L59.0194 71.0064C59.0284 68.1632 58.8247 65.7396 57.872 64.7509V64.6011L67.8065 64.6311C70.38 64.64 72.9535 64.646 73.9721 64.1996L74.1219 64.2596L75.1794 70.6349L75.0296 70.6648C73.298 69.2238 71.2638 69.2178 68.6603 69.2088L64.4121 69.1968L64.4001 73.3252L67.8125 73.3342C69.7568 73.3402 71.4645 73.2263 72.3333 72.4804L72.4831 72.5403L72.4651 78.613L72.3153 78.6729C70.5837 77.172 68.6992 77.166 66.0658 77.157L64.3911 77.151L64.3851 79.1553C64.3761 82.0283 64.5799 84.4221 65.5326 85.4107V85.5605L57.8121 85.5366V85.3868L57.8091 85.3958Z" fill="white"/>
<path d="M140.392 64.8466V64.9964C139.43 65.9821 139.214 68.4028 139.205 71.2459L139.181 79.3858C139.172 82.2589 139.376 84.6526 140.329 85.6413V85.7911L132.608 85.7671V85.6173C133.57 84.6317 133.786 82.2409 133.795 79.3678L133.819 71.2279C133.828 68.3848 133.624 65.9611 132.671 64.9724V64.8226L140.392 64.8466Z" fill="white"/>
<path d="M75.5571 83.1367C76.5188 82.1511 76.7345 79.7604 76.7435 76.8873L76.7675 68.7503C76.7765 65.9072 76.5727 63.4835 75.62 62.4919V62.3421L85.5545 62.372C88.128 62.381 90.7015 62.387 91.7201 61.9406L91.8699 62.0005L92.9275 68.3758L92.7777 68.4058C91.046 66.9648 89.0118 66.9588 86.4084 66.9498L82.1601 66.9378L82.1482 70.8265L85.5605 70.8355C87.5049 70.8415 89.2125 70.7276 90.0813 69.9817L90.2311 70.0416C90.2252 72.0758 90.2192 74.0801 90.2132 76.1143L90.0634 76.1742C88.3317 74.6733 86.4473 74.6673 83.8139 74.6583L82.1392 74.6523L82.1272 78.7208L86.8248 78.7357C89.4282 78.7447 91.4625 78.7507 93.2031 77.3187L93.3529 77.3486L92.2564 83.718L92.1066 83.7779C91.091 83.3255 88.5175 83.3195 85.944 83.3105L75.5601 83.2806V83.1308L75.5571 83.1367Z" fill="white"/>
<path d="M118.887 83.9578C119.879 82.9721 120.064 80.5814 120.073 77.7083L120.103 67.7438C117.56 67.7348 115.585 67.7588 113.875 69.1609L113.725 69.1309L114.821 62.7616L114.971 62.7017C115.987 63.154 118.56 63.163 121.134 63.169L124.486 63.178C127.06 63.187 129.633 63.193 130.682 62.7466L130.832 62.8065L131.889 69.1819L131.739 69.2118C130.038 67.8007 128.033 67.7648 125.49 67.7558L125.46 77.7203C125.451 80.5933 125.655 82.9871 126.607 83.9757V84.1255L118.887 84.1016V83.9518V83.9578Z" fill="white"/>
<path d="M194.543 63.3907V63.5405C193.581 64.5262 193.365 66.9469 193.356 69.79L193.326 79.7544L197.035 79.7664C199.669 79.7754 201.703 79.7814 203.444 78.3494L203.593 78.3793L202.467 84.7487L202.317 84.8086C201.391 84.4161 199.177 84.3502 196.874 84.3442L186.759 84.3142V84.1644C187.721 83.1788 187.937 80.788 187.946 77.915L187.97 69.775C187.979 66.9319 187.775 64.5082 186.822 63.5166V63.3668L194.543 63.3907Z" fill="white"/>
<path d="M157.172 66.809C158.017 64.6879 157.6 63.849 157.241 63.4296V63.2798L165.111 63.3038V63.4536C163.94 64.6759 163.068 66.6203 162.163 68.8912L156.072 84.2213C154.128 84.2153 152.184 84.2093 150.239 84.2033L144.241 68.8372C143.352 66.5603 142.489 64.613 141.326 63.3817V63.2319L149.197 63.2558V63.4056C148.837 63.852 148.415 64.6909 149.245 66.8479L153.163 76.8843L157.172 66.812V66.809Z" fill="white"/>
<path d="M95.6448 78.7387C97.1667 80.689 101.049 82.5255 104.908 82.5375C106.313 82.5405 107.332 82.157 107.335 81.1085V80.9587C107.341 79.4338 104.648 78.9155 101.481 77.9478C98.3112 76.9801 95.8036 75.4462 95.8126 71.7672V71.4676C95.8305 66.2008 100.558 65.4368 104.27 65.4488C106.184 65.4548 108.338 65.9102 109.354 65.9132C109.953 65.9132 110.549 65.9162 111.002 65.6495L111.152 65.6795C111.355 68.0133 111.556 70.3471 111.73 72.6839L111.61 72.7439C110.268 71.0632 106.742 69.9756 104.228 69.9696C102.613 69.9637 101.385 70.3202 101.382 71.2789C101.379 72.5371 103.054 72.8098 105.055 73.415C108.584 74.4725 112.919 75.3833 112.904 80.5003V80.7999C112.889 85.7072 108.725 87.0703 104.597 87.0584C100.888 87.0464 99.0931 85.9648 97.8078 85.9619C97.3285 85.9619 96.7293 86.1386 96.4297 86.4352L96.2799 86.4053L95.495 78.7716L95.6448 78.7417V78.7387Z" fill="white"/>
<path d="M169.842 83.3885C169.509 84.2842 169.389 84.9134 169.386 85.4227C169.386 86.1417 169.593 86.5312 169.803 86.7709V86.9206C167.169 86.9117 164.566 86.9057 161.932 86.8967V86.7469C163.224 85.3747 164.188 83.0739 164.88 81.3093L169.764 69.0559C170.156 68.0403 170.216 67.561 170.219 67.4112C170.219 66.7521 170.012 66.3626 169.803 66.1229V65.9731L176.804 65.9941L182.802 81.3602C183.485 83.1278 184.435 85.4347 185.717 86.8158V86.9656C183.084 86.9566 180.48 86.9506 177.847 86.9416V86.7918C178.057 86.5522 178.269 86.1657 178.269 85.4466C178.269 84.9373 178.152 84.2782 177.796 83.4094L177.409 82.4208L169.866 83.3255L169.836 83.3855L169.842 83.3885ZM173.85 73.3162L171.498 79.293L175.989 78.7388L173.85 73.3162Z" fill="white"/>
<path d="M212.416 65.7454H212.761V66.0899H213.105V65.7484H213.45V65.4069H213.795V65.0653V64.7208V64.3763H213.45V64.0317H213.105V63.6872H212.761V64.0287H212.416V64.3703H212.072V64.7118V65.0563V65.4009H212.416V65.7454ZM212.761 65.0593V64.7148V64.3703H213.105V64.7148V65.0593V65.4039H212.761V65.0593Z" fill="white"/>
<path d="M227.531 65.7904H227.875V66.135H228.22V65.7934H228.564V65.4519H228.909V65.1104V64.7658V64.4213H228.564V64.0768H228.22V63.7322H227.875V64.0738H227.531V64.4153H227.186V64.7568V65.1014V65.4459H227.531V65.7904ZM227.875 65.1044V64.7598V64.4153H228.22V64.7598V65.1044V65.4489H227.875V65.1044Z" fill="white"/>
<path d="M228.163 83.9995V83.655H228.508V83.3104H228.852V82.9659V82.6214V82.2768H228.511V81.9323H228.169V81.5878H227.828V81.9323H227.483V82.2768H227.138V82.6214V82.9659V83.3104H227.48V83.655H227.822V83.9995H228.163ZM227.822 82.9689V82.6244V82.2798H228.166V82.6244V82.9689V83.3134H227.822V82.9689Z" fill="white"/>
<path d="M212.362 83.6073H212.707V83.9518H213.051V83.6103H213.396V83.2687H213.74V82.9272V82.5827V82.2381H213.396V81.8936H213.051V81.5491H212.707V81.8906H212.362V82.2321H212.018V82.5737V82.9182V83.2627H212.362V83.6073ZM212.707 82.9212V82.5767V82.2321H213.051V82.5767V82.9212V83.2657H212.707V82.9212Z" fill="white"/>
<path d="M217.908 67.4801V67.8246H218.25V68.1691H218.591V68.5137H218.933V68.8582H219.275V69.2027H219.616V69.5473H219.958V69.8918H220.299H220.644H220.988V69.5473H221.333V69.2027H221.677V68.8582H222.022V68.5137H222.366V68.1691H222.711V67.8246H223.055V67.4801H223.4V67.1355V66.791V66.4465V66.1019V65.7574V65.4129H223.055V65.0684H222.711V64.7238H222.366V64.3793H222.022V64.0348H221.677V63.6902H221.333V63.3457H220.988V63.0012H220.644H220.299H219.955V63.3427H219.61V63.6842H219.266V64.0258H218.921V64.3673H218.576V64.7088H218.235V65.0504H217.89V65.3919H217.546V65.7334V66.078V66.4225V66.767V67.1116V67.4561H217.89L217.908 67.4801ZM219.29 65.7664H219.634V65.4249H219.979V65.0833H220.323V64.7418H220.665V65.0863H221.009V65.4309H221.354V65.7754H221.698V66.1199H222.043V66.4645V66.809H221.698V67.1535H221.354V67.498H221.009V67.8426H220.665V68.1871H220.32V67.8426H219.979V67.498H219.637V67.1535H219.296V66.809H218.954V66.4645V66.1199H219.298V65.7784L219.29 65.7664Z" fill="white"/>
<path d="M212.402 70.8985V71.243H212.743V71.5875H213.085V71.9321H213.427V72.2766H213.768V72.6211H214.11V72.9657H214.451V73.3102H214.793H215.137H215.482V72.9657H215.826V72.6211H216.171V72.2766H216.515V71.9321H216.86V71.5875H217.204V71.243H217.549V70.8985H217.893V70.5539V70.2094V69.8649V69.5203V69.1758V68.8313H217.549V68.4867H217.204V68.1422H216.86V67.7977H216.515V67.4531H216.171V67.1086H215.826V66.7641H215.482V66.4196H215.137H214.793H214.448V66.7611H214.104V67.1026H213.759V67.4442H213.415V67.7857H213.07V68.1272H212.728V68.4688H212.384V68.8103H212.039V69.1518V69.4964V69.8409V70.1854V70.53V70.8745H212.384L212.402 70.8985ZM213.783 69.1848H214.128V68.8433H214.472V68.5017H214.817V68.1602H215.158V68.5047H215.503V68.8493H215.847V69.1938H216.192V69.5383H216.536V69.8828V70.2274H216.192V70.5719H215.847V70.9164H215.503V71.261H215.158V71.6055H214.814V71.261H214.472V70.9164H214.131V70.5719H213.789V70.2274H213.448V69.8828V69.5383H213.792V69.1968L213.783 69.1848Z" fill="white"/>
<path d="M223.055 69.2118V69.5563V69.9009V70.2454V70.5899V70.9345H223.4V71.279H223.741V71.6235H224.083V71.9681H224.424V72.3126H224.766V72.6571H225.107V73.0017H225.449V73.3462H225.79H226.135H226.479V73.0017H226.824V72.6571H227.168V72.3126H227.513V71.9681H227.858V71.6235H228.202V71.279H228.547V70.9345H228.891V70.5899V70.2454V69.9009V69.5563V69.2118V68.8673H228.547V68.5228H228.202V68.1782H227.858V67.8337H227.513V67.4892H227.168V67.1446H226.824V66.8001H226.479V66.4556H226.135H225.79H225.446V66.7971H225.101V67.1386H224.757V67.4802H224.412V67.8217H224.068V68.1632H223.726V68.5048H223.382V68.8463H223.037V69.1878L223.055 69.2118ZM224.772 69.2178H225.116V68.8763H225.461V68.5347H225.805V68.1932H226.147V68.5377H226.491V68.8823H226.836V69.2268H227.18V69.5713H227.525V69.9159V70.2604H227.18V70.6049H226.836V70.9495H226.491V71.294H226.147V71.6385H225.802V71.294H225.461V70.9495H225.119V70.6049H224.778V70.2604H224.436V69.9159V69.5713H224.781V69.2298L224.772 69.2178Z" fill="white"/>
<path d="M221.982 83.2926H222.327V82.951H222.671V82.6095H223.016V82.268H223.36V81.9264V81.5819V81.2374V80.8928V80.5483V80.2038H223.019V79.8592H222.677V79.5147H222.336V79.1702H221.994V78.8256H221.653V78.4811H221.311V78.1366H220.97V77.7921H220.628H220.284H219.939V78.1366H219.595V78.4811H219.25V78.8256H218.905V79.1702H218.561V79.5147H218.216V79.8592H217.872V80.2038H217.527V80.5483V80.8928V81.2374V81.5819V81.9264V82.271H217.872V82.6155H218.216V82.96H218.558V83.3046H218.902V83.6491H219.247V83.9936H219.592V84.3382H219.936V84.6827H220.281H220.625H220.97V84.3411H221.311V83.9996H221.656V83.6581H222V83.3165L221.982 83.2926ZM219.241 80.8809V80.5363H219.586V80.1918H219.93V79.8503H220.275V79.5087H220.619V79.8533H220.964V80.1978H221.308V80.5423H221.653V80.8868H221.997V81.2314V81.5759H221.653V81.9204H221.308V82.265H220.964V82.6095H220.619V82.954H220.275V82.6095H219.933V82.265H219.592V81.9204H219.25V81.5759H218.908V81.2314V80.8868H219.253L219.241 80.8809Z" fill="white"/>
<path d="M212.036 78.4543V78.7988H212.377V79.1433H212.719V79.4879H213.061V79.8324H213.402V80.1769H213.744V80.5214H214.085V80.866H214.427V81.2105H214.768H215.113H215.457V80.866H215.802V80.5214H216.146V80.1769H216.491V79.8324H216.835V79.4879H217.18V79.1433H217.524V78.7988H217.869V78.4543V78.1097V77.7652V77.4207V77.0761V76.7316H217.524V76.3871H217.18V76.0425H216.835V75.698H216.491V75.3535H216.146V75.0089H215.802V74.6644H215.457V74.3199H215.113H214.768H214.424V74.6614H214.079V75.003H213.735V75.3445H213.39V75.686H213.046V76.0276H212.701V76.3691H212.357V76.7106H212.012V77.0522V77.3967V77.7412V78.0858V78.4303L212.036 78.4543ZM213.756 77.4297V77.0851H214.1V76.7406H214.445V76.3991H214.789V76.0575H215.134V76.4021H215.478V76.7466H215.823V77.0911H216.167V77.4356H216.512V77.7802V78.1247H216.167V78.4692H215.823V78.8138H215.478V79.1583H215.134V79.5028H214.789V79.1583H214.448V78.8138H214.106V78.4692H213.765V78.1247H213.423V77.7802V77.4356H213.768L213.756 77.4297Z" fill="white"/>
<path d="M225.767 81.2435H226.111H226.456V80.8989H226.8V80.5544H227.145V80.2099H227.489V79.8653H227.834V79.5208H228.178V79.1763H228.523V78.8318H228.867V78.4872V78.1427V77.7982V77.4536V77.1091V76.7646H228.523V76.42H228.178V76.0755H227.834V75.731H227.489V75.3864H227.145V75.0419H226.8V74.6974H226.456V74.3528H226.111H225.767H225.422V74.6944H225.078V75.0359H224.733V75.3775H224.388V75.719H224.044V76.0605H223.699V76.4021H223.355V76.7436H223.01V77.0851V77.4297V77.7742V78.1187V78.4633V78.8078H223.355V79.1523H223.699V79.4969H224.041V79.8414H224.385V80.1859H224.73V80.5304H225.075V80.875H225.419V81.2195H225.764L225.767 81.2435ZM224.748 77.4626V77.1181H225.093V76.7736H225.437V76.432H225.782V76.0905H226.126V76.435H226.471V76.7795H226.815V77.1241H227.16V77.4686H227.504V77.8131V78.1577H227.16V78.5022H226.815V78.8467H226.471V79.1913H226.126V79.5358H225.782V79.1913H225.44V78.8467H225.099V78.5022H224.757V78.1577H224.415V77.8131V77.4686H224.76L224.748 77.4626Z" fill="white"/>
<path d="M218.585 70.2304V70.5719H218.241V70.9165H218.582V71.261H218.927V70.9165L219.271 70.9195V70.5749H218.93V70.2304H218.585Z" fill="white"/>
<path d="M222.708 70.5839H222.363L222.366 70.2393H222.022V70.5839L221.677 70.5809V70.9254H222.019V71.2699H222.363V70.9284H222.708V70.5839Z" fill="white"/>
<path d="M224.074 73.337L224.071 73.6816L223.729 73.6786L223.726 74.0231H224.071V74.3676H224.412L224.415 74.0261H224.757L224.76 73.6816H224.415V73.337H224.074Z" fill="white"/>
<path d="M216.857 74.3467V74.0022L217.201 74.0052V73.6606L216.857 73.6576L216.86 73.3161L216.515 73.3131V73.6576H216.171V74.0022H216.512V74.3467H216.857Z" fill="white"/>
<path d="M218.908 77.4445V77.1L219.253 77.103V76.7585H218.908L218.911 76.4139H218.567V76.7555H218.222V77.1H218.564V77.4445H218.908Z" fill="white"/>
<path d="M222.342 77.4536L222.345 77.112H222.687L222.69 76.7675H222.345V76.423H222.004L222.001 76.7675L221.659 76.7645L221.656 77.109H222.001V77.4536H222.342Z" fill="white"/>
<path d="M220.287 75.7309H220.632H220.976V75.3863H221.321V75.0418H221.665V74.6973H222.01V74.3528H222.354V74.0082V73.6637V73.3192H222.013V72.9746H221.671V72.6301H221.33V72.2856H220.988V71.941H220.647H220.302H219.958V72.2856H219.613V72.6301H219.269V72.9746H218.924V73.3192H218.58V73.6637V74.0082V74.3528H218.921V74.6973H219.263V75.0418H219.604V75.3863H219.946V75.7309H220.287ZM219.604 74.3558V74.0112V73.6667V73.3222H219.949V72.9776H220.293H220.638H220.982V73.3222H221.324V73.6667V74.0112V74.3558H220.979V74.7003H220.635H220.29H219.946V74.3558H219.604Z" fill="white"/>
<path d="M10.5696 65.1403H10.9142V65.4849H11.2587V65.1433H11.6032V64.8018H11.9477V64.4603V64.1157V63.7712H11.6032V63.4267H11.2587V63.0822H10.9142V63.4237H10.5696V63.7652H10.2251V64.1068V64.4513V64.7958H10.5696V65.1403ZM10.9142 64.4543V64.1098V63.7652H11.2587V64.1098V64.4543V64.7988H10.9142V64.4543Z" fill="white"/>
<path d="M25.684 65.1852H26.0285V65.5297H26.3731V65.1881H26.7176V64.8466H27.0621V64.5051V64.1605V63.816H26.7176V63.4715H26.3731V63.127H26.0285V63.4685H25.684V63.81H25.3395V64.1516V64.4961V64.8406H25.684V65.1852ZM26.0285 64.4991V64.1546V63.81H26.3731V64.1546V64.4991V64.8436H26.0285V64.4991Z" fill="white"/>
<path d="M26.3192 83.3943V83.0498H26.6637V82.7053H27.0082V82.3607V82.0162V81.6717H26.6667V81.3271H26.3252V80.9826H25.9836V81.3271H25.6391V81.6717H25.2946V82.0162V82.3607V82.7053H25.6361V83.0498H25.9776V83.3943H26.3192ZM25.9776 82.3637V82.0192V81.6747H26.3222V82.0192V82.3637V82.7083H25.9776V82.3637Z" fill="white"/>
<path d="M10.5157 83.005H10.8602V83.3495H11.2047V83.008H11.5493V82.6664H11.8938V82.3249V81.9804V81.6358H11.5493V81.2913H11.2047V80.9468H10.8602V81.2883H10.5157V81.6298H10.1711V81.9714V82.3159V82.6604H10.5157V83.005ZM10.8602 82.3189V81.9744V81.6298H11.2047V81.9744V82.3189V82.6634H10.8632V82.3189H10.8602Z" fill="white"/>
<path d="M16.0611 66.875V67.2196H16.4026V67.5641H16.7442V67.9086H17.0857V68.2532H17.4272V68.5977H17.7688V68.9422H18.1103V69.2867H18.4519H18.7964H19.1409V68.9422H19.4854V68.5977H19.83V68.2532H20.1745V67.9086H20.519V67.5641H20.8636V67.2196H21.2081V66.875H21.5526V66.5305V66.186V65.8414V65.4969V65.1524V64.8078H21.2081V64.4633H20.8636V64.1188H20.519V63.7742H20.1745V63.4297H19.83V63.0852H19.4854V62.7406H19.1409V62.3961H18.7964H18.4519H18.1073V62.7377H17.7628V63.0792H17.4183V63.4207H17.0737V63.7623H16.7292V64.1038H16.3877V64.4453H16.0431V64.7869H15.6986V65.1284V65.4729V65.8175V66.162V66.5065V66.8511H16.0431L16.0611 66.875ZM17.4422 65.1614H17.7868V64.8198H18.1313V64.4783H18.4758V64.1367H18.8174V64.4813H19.1619V64.8258H19.5064V65.1703H19.8509V65.5149H20.1955V65.8594V66.2039H19.8509V66.5485H19.5064V66.893H19.1619V67.2375H18.8174V67.5821H18.4728V67.2375H18.1313V66.893H17.7898V66.5485H17.4482V66.2039H17.1067V65.8594V65.5149H17.4512V65.1733L17.4422 65.1614Z" fill="white"/>
<path d="M10.5546 70.2934V70.6379H10.8962V70.9824H11.2377V71.327H11.5792V71.6715H11.9208V72.016H12.2623V72.3606H12.6038V72.7051H12.9454H13.2899H13.6344V72.3606H13.979V72.016H14.3235V71.6715H14.668V71.327H15.0126V70.9824H15.3571V70.6379H15.7016V70.2934H16.0462V69.9488V69.6043V69.2598V68.9152V68.5707V68.2262H15.7016V67.8816H15.3571V67.5371H15.0126V67.1926H14.668V66.8481H14.3235V66.5035H13.979V66.159H13.6344V65.8145H13.2899H12.9454H12.6009V66.156H12.2563V66.4975H11.9118V66.8391H11.5673V67.1806H11.2227V67.5221H10.8812V67.8637H10.5367V68.2052H10.1921V68.5467V68.8913V69.2358V69.5803V69.9249V70.2694H10.5367L10.5546 70.2934ZM11.9358 68.5797H12.2803V68.2382H12.6248V67.8966H12.9693V67.5551H13.3109V67.8996H13.6554V68.2441H13.9999V68.5887H14.3445V68.9332H14.689V69.2777V69.6223H14.3445V69.9668H13.9999V70.3113H13.6554V70.6559H13.3109V71.0004H12.9664V70.6559H12.6248V70.3113H12.2833V69.9668H11.9418V69.6223H11.6002V69.2777V68.9332H11.9447V68.5917L11.9358 68.5797Z" fill="white"/>
<path d="M21.2111 68.6065V68.9511V69.2956V69.6401V69.9847V70.3292H21.5556V70.6737H21.8972V71.0183H22.2387V71.3628H22.5802V71.7073H22.9218V72.0518H23.2633V72.3964H23.6048V72.7409H23.9464H24.2909H24.6354V72.3964H24.9799V72.0518H25.3245V71.7073H25.669V71.3628H26.0135V71.0183H26.3581V70.6737H26.7026V70.3292H27.0471V69.9847V69.6401V69.2956V68.9511V68.6065V68.262H26.7026V67.9175H26.3581V67.5729H26.0135V67.2284H25.669V66.8839H25.3245V66.5393H24.9799V66.1948H24.6354V65.8503H24.2909H23.9464H23.6018V66.1918H23.2573V66.5334H22.9128V66.8749H22.5682V67.2164H22.2237V67.558H21.8822V67.8995H21.5376V68.241H21.1931V68.5826L21.2111 68.6065ZM22.9277 68.6125H23.2723V68.271H23.6168V67.9295H23.9613V67.5879H24.3029V67.9324H24.6474V68.277H24.9919V68.6215H25.3365V68.966H25.681V69.3106V69.6551H25.3365V69.9996H24.9919V70.3442H24.6474V70.6887H24.3029V71.0332H23.9583V70.6887H23.6168V70.3442H23.2753V69.9996H22.9337V69.6551H22.5922V69.3106V68.966H22.9367V68.6245L22.9277 68.6125Z" fill="white"/>
<path d="M20.1356 82.6903H20.4801V82.3488H20.8247V82.0073H21.1692V81.6657H21.5137V81.3242V80.9797V80.6351V80.2906V79.9461V79.6015H21.1722V79.257H20.8306V78.9125H20.4891V78.5679H20.1476V78.2234H19.806V77.8789H19.4645V77.5343H19.123V77.1898H18.7814H18.4369H18.0924V77.5343H17.7478V77.8789H17.4033V78.2234H17.0588V78.5679H16.7143V78.9125H16.3697V79.257H16.0252V79.6015H15.6807V79.9461V80.2906V80.6351V80.9797V81.3242V81.6687H16.0252V82.0133H16.3697V82.3578H16.7113V82.7023H17.0558V83.0469H17.4003V83.3914H17.7449V83.7359H18.0894V84.0804H18.4339H18.7784H19.123V83.7389H19.4675V83.3974H19.812V83.0558H20.1566V82.7143L20.1356 82.6903ZM17.3943 80.2786V79.9341H17.7389V79.5896H18.0834V79.248H18.4279V78.9065H18.7725V79.251H19.117V79.5955H19.4615V79.9401H19.806V80.2846H20.1506V80.6291V80.9737H19.806V81.3182H19.4615V81.6627H19.117V82.0073H18.7725V82.3518H18.4279V82.0073H18.0864V81.6627H17.7449V81.3182H17.4033V80.9737H17.0618V80.6291V80.2846H17.4063L17.3943 80.2786Z" fill="white"/>
<path d="M10.1891 77.8489V78.1934H10.5307V78.538H10.8722V78.8825H11.2137V79.227H11.5553V79.5716H11.8968V79.9161H12.2383V80.2606H12.5799V80.6052H12.9214H13.2659H13.6105V80.2606H13.955V79.9161H14.2995V79.5716H14.6441V79.227H14.9886V78.8825H15.3331V78.538H15.6776V78.1934H16.0222V77.8489V77.5044V77.1598V76.8153V76.4708V76.1263H15.6776V75.7817H15.3331V75.4372H14.9886V75.0927H14.6441V74.7481H14.2995V74.4036H13.955V74.0591H13.6105V73.7145H13.2659H12.9214H12.5769V74.0561H12.2323V74.3976H11.8878V74.7391H11.5433V75.0807H11.1988V75.4222H10.8542V75.7638H10.5097V76.1053H10.1652V76.4468V76.7914V77.1359V77.4804V77.8249L10.1891 77.8489ZM11.9088 76.8243V76.4798H12.2533V76.1352H12.5978V75.7937H12.9424V75.4522H13.2869V75.7967H13.6314V76.1412H13.976V76.4858H14.3205V76.8303H14.665V77.1748V77.5194H14.3205V77.8639H13.976V78.2084H13.6314V78.553H13.2869V78.8975H12.9424V78.553H12.6008V78.2084H12.2593V77.8639H11.9178V77.5194H11.5762V77.1748V76.8303H11.9208L11.9088 76.8243Z" fill="white"/>
<path d="M23.9224 80.6381H24.2669H24.6114V80.2936H24.956V79.9491H25.3005V79.6045H25.645V79.26H25.9896V78.9155H26.3341V78.5709H26.6786V78.2264H27.0231V77.8819V77.5373V77.1928V76.8483V76.5037V76.1592H26.6786V75.8147H26.3341V75.4702H25.9896V75.1256H25.645V74.7811H25.3005V74.4366H24.956V74.092H24.6114V73.7475H24.2669H23.9224H23.5778V74.089H23.2333V74.4306H22.8888V74.7721H22.5443V75.1136H22.1997V75.4552H21.8552V75.7967H21.5107V76.1382H21.1661V76.4798V76.8243V77.1688V77.5134V77.8579V78.2024H21.5107V78.547H21.8552V78.8915H22.1967V79.236H22.5413V79.5806H22.8858V79.9251H23.2303V80.2696H23.5749V80.6142H23.9194L23.9224 80.6381ZM22.9038 76.8573V76.5127H23.2483V76.1682H23.5928V75.8267H23.9374V75.4851H24.2819V75.8297H24.6264V76.1742H24.9709V76.5187H25.3155V76.8633H25.66V77.2078V77.5523H25.3155V77.8969H24.9709V78.2414H24.6264V78.5859H24.2819V78.9304H23.9374V78.5859H23.5958V78.2414H23.2543V77.8969H22.9128V77.5523H22.5712V77.2078V76.8633H22.9158L22.9038 76.8573Z" fill="white"/>
<path d="M16.7412 69.6253L16.7382 69.9668H16.3967L16.3937 70.3114H16.7382V70.6559H17.0797L17.0827 70.3114L17.4243 70.3144L17.4273 69.9698H17.0827V69.6253H16.7412Z" fill="white"/>
<path d="M20.8605 69.9817L20.519 69.9787V69.6372L20.1745 69.6342V69.9787H19.83V70.3203L20.1745 70.3233L20.1715 70.6648L20.516 70.6678V70.3233H20.8605V69.9817Z" fill="white"/>
<path d="M22.2267 72.7319V73.0765H21.8822V73.418L22.2237 73.421V73.7625L22.5683 73.7655V73.421H22.9128V73.0795L22.5713 73.0765V72.7349L22.2267 72.7319Z" fill="white"/>
<path d="M15.0095 73.7415V73.397L15.3541 73.4L15.3571 73.0555H15.0125V72.7109H14.671L14.668 73.0525H14.3265L14.3235 73.397H14.668V73.7415H15.0095Z" fill="white"/>
<path d="M17.0618 76.8394V76.4979H17.4063V76.1534H17.0648V75.8088H16.7203V76.1504H16.3757V76.4949H16.7203L16.7173 76.8394H17.0618Z" fill="white"/>
<path d="M20.4981 76.8515V76.5069H20.8426V76.1654L20.5011 76.1624V75.8209L20.1565 75.8179V76.1624H19.812V76.5039L20.1535 76.5069V76.8485L20.4981 76.8515Z" fill="white"/>
<path d="M18.4429 75.1257H18.7874H19.132V74.7812H19.4765V74.4367H19.821V74.0921H20.1656V73.7476H20.5101V73.4031V73.0585V72.714H20.1686V72.3695H19.827V72.0249H19.4855V71.6804H19.1439V71.3359H18.8024H18.4579H18.1134V71.6804H17.7688V72.0249H17.4243V72.3695H17.0798V72.714H16.7352V73.0585V73.4031V73.7476H17.0768V74.0921H17.4183V74.4367H17.7598V74.7812H18.1014V75.1257H18.4429ZM17.7598 73.7506V73.4061V73.0615V72.717H18.1044V72.3725H18.4489H18.7934H19.138V72.717H19.4795V73.0615V73.4061V73.7506H19.135V74.0951H18.7904H18.4459H18.1014V73.7506H17.7598Z" fill="white"/>
<path d="M33.5363 75.1468C34.0187 74.6525 34.1265 73.4481 34.1325 72.0071L34.1445 67.9176C34.1475 66.4886 34.0456 65.2692 33.5663 64.7719V64.697L38.5575 64.712C39.8517 64.715 41.1429 64.721 41.6553 64.4963L41.7301 64.5262L42.2634 67.7289L42.1885 67.7439C41.3197 67.0188 40.2951 67.0158 38.9889 67.0129L36.8528 67.0069L36.8468 68.9602L38.5605 68.9662C39.5371 68.9662 40.394 68.9123 40.8314 68.5378L40.9063 68.5677C40.9033 69.5893 40.9003 70.599 40.8973 71.6206L40.8224 71.6505C39.9536 70.8956 39.0039 70.8926 37.6827 70.8896H36.8408L36.8348 72.9328L39.1956 72.9388C40.5048 72.9418 41.5264 72.9448 42.4012 72.2258L42.4761 72.2407L41.9249 75.4404L41.85 75.4703C41.3377 75.2427 40.0464 75.2397 38.7522 75.2367L33.5333 75.2217V75.1468H33.5363Z" fill="white"/>
<path d="M48.0756 64.7418V64.8167C47.5932 65.3111 47.4824 66.5304 47.4794 67.9595L47.4644 72.9656L49.3279 72.9716C50.6521 72.9746 51.6737 72.9776 52.5485 72.2586L52.6234 72.2736L52.0571 75.4732L51.9822 75.5032C51.5179 75.3054 50.4034 75.2725 49.247 75.2695L44.1659 75.2545V75.1796C44.6482 74.6853 44.7591 73.4809 44.7621 72.0399L44.7741 67.9505C44.7771 66.5214 44.6752 65.3021 44.1959 64.8048V64.7299L48.0756 64.7418Z" fill="white"/>
<path d="M32.8606 80.1184L32.8575 81.1639L52.0193 81.2208L52.0224 80.1752L32.8606 80.1184Z" fill="white"/>
</g>
<defs>
<clipPath id="clip0_284_133">
<rect width="90" height="29.7973" fill="white" transform="translate(75 104)"/>
</clipPath>
<clipPath id="clip1_284_133">
<rect width="240" height="87.0525" fill="white"/>
</clipPath>
</defs>
</svg>
