<svg width="380" height="20" viewBox="0 0 380 20" fill="none" xmlns="http://www.w3.org/2000/svg">
<g opacity="0.5" clip-path="url(#clip0_21_809)">
<g opacity="0.5">
<path d="M3.7794 8.15285V19.256H3.10716V8.15285H0.0078125V7.45288H6.7908V8.15285H3.77744H3.7794Z" fill="white"/>
<path d="M13.2084 7.34302C14.8675 7.34302 16.3547 9.05728 16.3547 11.1302V15.6039C16.3547 17.7385 14.9007 19.3718 13.2084 19.3718H12.6866C10.8907 19.3718 9.54626 17.7288 9.54626 15.6039V11.1302C9.54626 9.05728 10.9259 7.34302 12.6866 7.34302H13.2084ZM12.7081 8.04685C11.3168 8.04685 10.2166 9.46222 10.2166 11.1167V15.6212C10.2166 17.3683 11.3246 18.6737 12.7081 18.6756H13.1869C14.4943 18.6756 15.6824 17.3721 15.6824 15.6212V11.1167C15.6824 9.45643 14.4943 8.04878 13.1869 8.04685H12.7081Z" fill="white"/>
<path d="M27.9938 19.2541L27.6909 8.96081L24.443 16.1322H23.9388L20.691 8.96081L20.3822 19.2541H19.7197L20.0773 7.45288H20.7437L24.1831 15.1564L27.6264 7.45288H28.2947L28.6582 19.2541H27.9938Z" fill="white"/>
<path d="M38.4096 19.2541L37.3758 15.6327H33.3424L32.3203 19.2541H31.6149L34.9643 7.45093H35.7636L39.1131 19.2541H38.4076H38.4096ZM37.2351 14.9289L35.3571 8.29745L33.4792 14.9289H37.2332H37.2351Z" fill="white"/>
<path d="M46.2771 7.45288C47.5454 7.45288 48.4756 8.69663 48.4756 10.1583V11.6778C48.4756 13.0507 47.688 14.1094 46.6621 14.2444L48.5459 19.256H47.7799L45.9918 14.3832H42.8749V19.256H42.2046V7.45481H46.2771V7.45288ZM42.8788 13.6774H46.2087C47.1096 13.6774 47.8073 12.8463 47.8073 11.7279V10.1178C47.8073 9.08808 47.1096 8.16635 46.2087 8.16635H42.8788V13.6774Z" fill="white"/>
<path d="M61.3341 7.45288C62.5262 7.45288 63.3978 8.63107 63.3978 9.98474V10.8004C63.3978 11.859 62.9209 12.7171 62.194 13.1124C63.0304 13.4364 63.5912 14.3523 63.5912 15.5209V16.6952C63.5912 18.153 62.7216 19.256 61.5276 19.256H57.2362V7.45481H61.3341V7.45288ZM57.9084 12.8598H61.1524C62.065 12.8598 62.749 12.0268 62.749 10.9238V10.085C62.749 9.0553 62.0631 8.13357 61.1524 8.13357H57.9084V12.8598ZM57.9084 18.5503H61.3361C62.2487 18.5503 62.9327 17.7172 62.9327 16.6007V15.4071C62.9327 14.3041 62.2467 13.4711 61.3361 13.4711H57.9084V18.5522V18.5503Z" fill="white"/>
<path d="M67.7537 8.15669V12.8945H71.8281V13.5983H67.7537V18.5502H72.4242V19.2541H67.0775V7.45093H72.4242V8.15476H67.7537V8.15669Z" fill="white"/>
<path d="M79.7408 7.45288C80.9328 7.45288 81.8044 8.63107 81.8044 9.98474V10.8004C81.8044 11.859 81.3276 12.7171 80.6006 13.1124C81.437 13.4364 81.9979 14.3523 81.9979 15.5209V16.6952C81.9979 18.153 81.1282 19.256 79.9342 19.256H75.6428V7.45481H79.7408V7.45288ZM76.3151 12.8598H79.559C80.4716 12.8598 81.1556 12.0268 81.1556 10.9238V10.085C81.1556 9.0553 80.4697 8.13357 79.559 8.13357H76.3151V12.8598ZM76.3151 18.5503H79.7427C80.6553 18.5503 81.3393 17.7172 81.3393 16.6007V15.4071C81.3393 14.3041 80.6534 13.4711 79.7427 13.4711H76.3151V18.5522V18.5503Z" fill="white"/>
<path d="M85.5037 19.2541V7.45288H86.1739V19.2541H85.5037Z" fill="white"/>
<path d="M93.4122 7.45093C95.1554 7.45093 96.5507 9.1459 96.5507 11.2381V15.4804C96.5507 17.6613 95.1554 19.2541 93.4122 19.2541H90.0276V7.45093H93.4122ZM90.7037 18.5502H93.3888C94.7782 18.5502 95.8784 17.2409 95.8784 15.4977V11.2265C95.8784 9.57013 94.7802 8.15861 93.3888 8.15861H90.7037V18.5522V18.5502Z" fill="white"/>
<path d="M106.114 19.2541L105.081 15.6327H101.047L100.025 19.2541H99.3197L102.669 7.45093H103.468L106.818 19.2541H106.112H106.114ZM104.94 14.9289L103.062 8.29745L101.184 14.9289H104.938H104.94Z" fill="white"/>
<path d="M109.286 9.977C109.286 7.88672 110.781 7.35644 111.862 7.34294C112.727 7.33137 113.566 7.34873 114.359 7.88479L114.322 8.65419C113.47 8.0352 112.683 8.04677 111.883 8.05641C111.133 8.06798 109.97 8.41315 109.97 9.90372V10.2489C109.97 10.9894 110.379 11.5929 110.877 11.9092L113.333 13.4248C114.222 13.9454 114.752 14.7476 114.752 15.9894V16.3867C114.748 18.1838 113.679 19.3717 112.214 19.3717C110.748 19.3717 109.986 19.175 109.308 18.8125L109.341 18.072C110.093 18.4769 110.746 18.6678 112.214 18.6678C113.253 18.6678 114.076 17.7211 114.076 16.4407V16.0376C114.076 15.1641 113.656 14.5027 113.038 14.1132L110.562 12.5937C109.783 12.1367 109.29 11.4213 109.288 10.326V9.977H109.286Z" fill="white"/>
<path d="M129.209 19.2541L128.175 15.6327H124.142L123.12 19.2541H122.414L125.764 7.45093H126.563L129.913 19.2541H129.207H129.209ZM128.035 14.9289L126.157 8.29745L124.279 14.9289H128.033H128.035Z" fill="white"/>
<path d="M138.38 18.5522V19.2541H133.02V7.45483H133.692V18.5522H138.38Z" fill="white"/>
<path d="M144.649 7.32942C145.271 7.32942 145.953 7.44704 146.484 7.5801L146.457 8.24922C145.927 8.13159 145.269 8.03325 144.671 8.03132H144.299C142.91 8.03132 141.81 9.34064 141.81 11.0857V15.6038C141.81 17.3489 142.91 18.6582 144.299 18.6582H144.671C145.269 18.6582 145.927 18.5598 146.457 18.4403L146.484 19.1094C145.953 19.2425 145.271 19.3524 144.649 19.3524H144.276C142.531 19.3524 141.137 17.7692 141.137 15.5883V11.0992C141.137 8.91834 142.531 7.32556 144.276 7.32556H144.649V7.32942Z" fill="white"/>
<path d="M153.029 7.34302C154.688 7.34302 156.175 9.05728 156.175 11.1302V15.6039C156.175 17.7385 154.721 19.3718 153.029 19.3718H152.507C150.711 19.3718 149.367 17.7288 149.367 15.6039V11.1302C149.367 9.05728 150.746 7.34302 152.507 7.34302H153.029ZM152.528 8.04685C151.137 8.04685 150.037 9.46222 150.037 11.1167V15.6212C150.037 17.3683 151.145 18.6737 152.528 18.6756H153.007C154.315 18.6756 155.503 17.3721 155.503 15.6212V11.1167C155.503 9.45643 154.315 8.04878 153.007 8.04685H152.528Z" fill="white"/>
<path d="M165.786 19.2541V13.6118H160.351V19.2541H159.679V7.45093H160.351V12.908H165.786V7.45093H166.458V19.2541H165.786Z" fill="white"/>
<path d="M173.632 7.34297C175.291 7.34297 176.778 9.05723 176.778 11.1302V15.6038C176.778 17.7384 175.324 19.3717 173.632 19.3717H173.11C171.314 19.3717 169.97 17.7288 169.97 15.6038V11.1302C169.97 9.05723 171.349 7.34297 173.11 7.34297H173.632ZM173.131 8.0468C171.74 8.0468 170.64 9.46217 170.64 11.1167V15.6212C170.64 17.3682 171.748 18.6737 173.131 18.6756H173.61C174.918 18.6756 176.106 17.3721 176.106 15.6212V11.1167C176.106 9.45639 174.918 8.04873 173.61 8.0468H173.13H173.131ZM172.502 5.80419L173.403 3.79297H174.255L173.057 5.80419H172.502Z" fill="white"/>
<path d="M185.66 18.5522V19.2541H180.299V7.45483H180.972V18.5522H185.66Z" fill="white"/>
<path d="M188.747 19.2541V7.45288H189.418V19.2541H188.747Z" fill="white"/>
<path d="M196.435 7.32942C197.057 7.32942 197.739 7.44704 198.27 7.5801L198.243 8.24922C197.713 8.13159 197.055 8.03325 196.457 8.03132H196.085C194.696 8.03132 193.596 9.34064 193.596 11.0857V15.6038C193.596 17.3489 194.696 18.6582 196.085 18.6582H196.457C197.055 18.6582 197.713 18.5598 198.243 18.4403L198.27 19.1094C197.739 19.2425 197.057 19.3524 196.435 19.3524H196.062C194.317 19.3524 192.923 17.7692 192.923 15.5883V11.0992C192.923 8.91834 194.317 7.32556 196.062 7.32556H196.435V7.32942Z" fill="white"/>
<path d="M207.533 19.2541L206.499 15.6327H202.466L201.444 19.2541H200.738L204.088 7.45093H204.887L208.237 19.2541H207.531H207.533ZM206.359 14.9289L204.481 8.29745L202.603 14.9289H206.357H206.359Z" fill="white"/>
<path d="M210.705 9.977C210.705 7.88672 212.2 7.35644 213.28 7.34294C214.146 7.33137 214.984 7.34873 215.778 7.88479L215.741 8.65419C214.889 8.0352 214.101 8.04677 213.302 8.05641C212.551 8.06798 211.389 8.41315 211.389 9.90372V10.2489C211.389 10.9894 211.797 11.5929 212.295 11.9092L214.752 13.4248C215.641 13.9454 216.17 14.7476 216.17 15.9894V16.3867C216.167 18.1838 215.098 19.3717 213.632 19.3717C212.166 19.3717 211.404 19.175 210.726 18.8125L210.759 18.072C211.512 18.4769 212.164 18.6678 213.632 18.6678C214.672 18.6678 215.494 17.7211 215.494 16.4407V16.0376C215.494 15.1641 215.074 14.5027 214.457 14.1132L211.981 12.5937C211.201 12.1367 210.709 11.4213 210.707 10.326V9.977H210.705Z" fill="white"/>
<path d="M225.234 8.15669V12.8945H229.309V13.5983H225.234V18.5502H229.905V19.2541H224.558V7.45093H229.905V8.15476H225.234V8.15669Z" fill="white"/>
<path d="M239.158 19.2541L233.649 8.8104V19.2541H232.984V7.45288H233.684L239.193 17.9216V7.45288H239.859V19.2541H239.158Z" fill="white"/>
<path d="M249.405 8.15669V12.8945H253.48V13.5983H249.405V18.5502H254.076V19.2541H248.729V7.45093H254.076V8.15476H249.405V8.15669Z" fill="white"/>
<path d="M262.946 19.2541H262.219L259.706 13.9898L257.195 19.2541H256.468L259.319 13.3535L256.479 7.45288H257.206L259.718 12.7191L262.231 7.45288H262.958L260.12 13.3535L262.946 19.2541Z" fill="white"/>
<path d="M269.147 7.32942C269.768 7.32942 270.45 7.44704 270.982 7.5801L270.954 8.24922C270.425 8.13159 269.766 8.03325 269.168 8.03132H268.797C267.407 8.03132 266.307 9.34064 266.307 11.0857V15.6038C266.307 17.3489 267.407 18.6582 268.797 18.6582H269.168C269.766 18.6582 270.425 18.5598 270.954 18.4403L270.982 19.1094C270.45 19.2425 269.768 19.3524 269.147 19.3524H268.773C267.028 19.3524 265.635 17.7692 265.635 15.5883V11.0992C265.635 8.91834 267.028 7.32556 268.773 7.32556H269.147V7.32942Z" fill="white"/>
<path d="M274.851 8.15669V12.8945H278.925V13.5983H274.851V18.5502H279.521V19.2541H274.175V7.45093H279.521V8.15476H274.851V8.15669Z" fill="white"/>
<path d="M282.115 9.977C282.115 7.88672 283.61 7.35644 284.69 7.34294C285.556 7.33137 286.394 7.34873 287.188 7.88479L287.151 8.65419C286.299 8.0352 285.511 8.04677 284.712 8.05641C283.961 8.06798 282.799 8.41315 282.799 9.90372V10.2489C282.799 10.9894 283.207 11.5929 283.705 11.9092L286.162 13.4248C287.051 13.9454 287.58 14.7476 287.58 15.9894V16.3867C287.577 18.1838 286.508 19.3717 285.042 19.3717C283.576 19.3717 282.814 19.175 282.136 18.8125L282.169 18.072C282.922 18.4769 283.574 18.6678 285.042 18.6678C286.082 18.6678 286.904 17.7211 286.904 16.4407V16.0376C286.904 15.1641 286.484 14.5027 285.867 14.1132L283.391 12.5937C282.611 12.1367 282.119 11.4213 282.117 10.326V9.977H282.115Z" fill="white"/>
<path d="M294.135 7.34302C295.794 7.34302 297.281 9.05728 297.281 11.1302V15.6039C297.281 17.7385 295.827 19.3718 294.135 19.3718H293.613C291.817 19.3718 290.473 17.7288 290.473 15.6039V11.1302C290.473 9.05728 291.852 7.34302 293.613 7.34302H294.135ZM293.635 8.04685C292.243 8.04685 291.143 9.46222 291.143 11.1167V15.6212C291.143 17.3683 292.251 18.6737 293.635 18.6756H294.113C295.421 18.6756 296.609 17.3721 296.609 15.6212V11.1167C296.609 9.45643 295.421 8.04878 294.113 8.04685H293.635Z" fill="white"/>
<path d="M306.628 8.15669V12.8945H310.703V13.5983H306.628V18.5502H311.299V19.2541H305.952V7.45093H311.299V8.15476H306.628V8.15669Z" fill="white"/>
<path d="M313.894 9.977C313.894 7.88672 315.389 7.35644 316.469 7.34294C317.335 7.33137 318.173 7.34873 318.967 7.88479L318.93 8.65419C318.078 8.0352 317.29 8.04677 316.491 8.05641C315.74 8.06798 314.578 8.41315 314.578 9.90372V10.2489C314.578 10.9894 314.986 11.5929 315.484 11.9092L317.941 13.4248C318.83 13.9454 319.36 14.7476 319.36 15.9894V16.3867C319.356 18.1838 318.287 19.3717 316.821 19.3717C315.355 19.3717 314.593 19.175 313.915 18.8125L313.948 18.072C314.701 18.4769 315.353 18.6678 316.821 18.6678C317.861 18.6678 318.683 17.7211 318.683 16.4407V16.0376C318.683 15.1641 318.263 14.5027 317.646 14.1132L315.17 12.5937C314.39 12.1367 313.898 11.4213 313.896 10.326V9.977H313.894Z" fill="white"/>
<path d="M331.165 7.45093C332.908 7.45093 334.303 9.1459 334.303 11.2381V15.4804C334.303 17.6613 332.91 19.2541 331.165 19.2541H327.78V7.45093H331.165ZM328.456 18.5502H331.141C332.531 18.5502 333.631 17.2409 333.631 15.4977V11.2265C333.631 9.57013 332.533 8.15861 331.141 8.15861H328.456V18.5522V18.5502Z" fill="white"/>
<path d="M343.869 19.2541L342.835 15.6327H338.802L337.78 19.2541H337.074L340.424 7.45093H341.223L344.572 19.2541H343.867H343.869ZM342.694 14.9289L340.816 8.29745L338.939 14.9289H342.693H342.694Z" fill="white"/>
<path d="M353.699 19.254L348.19 8.80842V19.254H347.525V7.45282H348.227L353.736 17.9216V7.45282H354.402V19.254H353.701H353.699ZM352.909 4.68186C352.606 5.07137 352.268 5.33941 351.955 5.33941C351.643 5.33941 351.314 5.14465 351.06 4.92675C350.806 4.69342 350.502 4.4466 350.195 4.4466C349.915 4.4466 349.558 4.79177 349.306 5.04245L349.01 4.60858C349.378 4.23256 349.792 3.85461 350.201 3.85461C350.652 3.85461 350.961 4.12265 351.258 4.39839C351.461 4.59315 351.696 4.74549 351.953 4.74549C352.137 4.74549 352.37 4.53916 352.579 4.27498L352.913 4.67993L352.909 4.68186Z" fill="white"/>
<path d="M358.105 19.2541V7.45288H358.776V19.2541H358.105Z" fill="white"/>
<path d="M368.648 19.2541L363.139 8.8104V19.2541H362.475V7.45288H363.174L368.683 17.9216V7.45288H369.35V19.2541H368.648Z" fill="white"/>
<path d="M376.387 7.34302C378.046 7.34302 379.533 9.05728 379.533 11.1302V15.6039C379.533 17.7385 378.079 19.3718 376.387 19.3718H375.865C374.069 19.3718 372.725 17.7288 372.725 15.6039V11.1302C372.725 9.05728 374.104 7.34302 375.865 7.34302H376.387ZM375.886 8.04685C374.495 8.04685 373.395 9.46222 373.395 11.1167V15.6212C373.395 17.3683 374.503 18.6737 375.886 18.6756H376.365C377.673 18.6756 378.861 17.3721 378.861 15.6212V11.1167C378.861 9.45643 377.673 8.04878 376.365 8.04685H375.886Z" fill="white"/>
</g>
<path opacity="0.5" d="M0 0.115723H380" stroke="white" stroke-width="1.2" stroke-miterlimit="10"/>
</g>
<defs>
<clipPath id="clip0_21_809">
<rect width="380" height="19.3736" fill="white"/>
</clipPath>
</defs>
</svg>
