<svg width="580" height="30" viewBox="0 0 580 30" fill="none" xmlns="http://www.w3.org/2000/svg">
<g opacity="0.5" clip-path="url(#clip0_21_497)">
<g opacity="0.5">
<path d="M5.76835 12.4438V29.3908H4.7423V12.4438H0.0117188V11.3755H10.3647V12.4438H5.76537H5.76835Z" fill="white"/>
<path d="M20.1599 11.2077C22.6922 11.2077 24.9621 13.8242 24.9621 16.9881V23.8164C24.9621 27.0745 22.7429 29.5674 20.1599 29.5674H19.3635C16.6224 29.5674 14.5703 27.0598 14.5703 23.8164V16.9881C14.5703 13.8242 16.6761 11.2077 19.3635 11.2077H20.1599ZM19.3963 12.282C17.2726 12.282 15.5934 14.4423 15.5934 16.9675V23.8428C15.5934 26.5094 17.2846 28.5019 19.3963 28.5049H20.1271C22.1225 28.5049 23.936 26.5153 23.936 23.8428V16.9675C23.936 14.4334 22.1225 12.2849 20.1271 12.282H19.3963Z" fill="white"/>
<path d="M42.7269 29.3878L42.2646 13.677L37.3074 24.6228H36.5378L31.5805 13.677L31.1093 29.3878H30.0981L30.644 11.3755H31.6611L36.9107 23.1335L42.1662 11.3755H43.1863L43.7411 29.3878H42.7269Z" fill="white"/>
<path d="M58.6248 29.3878L57.0469 23.8605H50.8906L49.3307 29.3878H48.2539L53.3663 11.3725H54.5862L59.6986 29.3878H58.6218H58.6248ZM56.8322 22.7862L53.9658 12.6646L51.0994 22.7862H56.8292H56.8322Z" fill="white"/>
<path d="M70.6334 11.3755C72.5692 11.3755 73.989 13.2738 73.989 15.5048V17.824C73.989 19.9196 72.787 21.5354 71.221 21.7414L74.0964 29.3908H72.9272L70.198 21.9533H65.4405V29.3908H64.4175V11.3784H70.6334V11.3755ZM65.4465 20.8761H70.5291C71.9041 20.8761 72.9689 19.6076 72.9689 17.9005V15.443C72.9689 13.8713 71.9041 12.4644 70.5291 12.4644H65.4465V20.8761Z" fill="white"/>
<path d="M93.6151 11.3755C95.4345 11.3755 96.7648 13.1737 96.7648 15.2399V16.4848C96.7648 18.1007 96.0371 19.4104 94.9275 20.0137C96.2041 20.5082 97.0601 21.9062 97.0601 23.6898V25.4822C97.0601 27.7073 95.7328 29.3908 93.9104 29.3908H87.3604V11.3784H93.6151V11.3755ZM88.3864 19.6282H93.3377C94.7306 19.6282 95.7746 18.3567 95.7746 16.6732V15.3929C95.7746 13.8213 94.7276 12.4144 93.3377 12.4144H88.3864V19.6282ZM88.3864 28.3135H93.6181C95.011 28.3135 96.055 27.0421 96.055 25.338V23.5161C96.055 21.8326 95.008 20.5612 93.6181 20.5612H88.3864V28.3165V28.3135Z" fill="white"/>
<path d="M103.413 12.4497V19.6812H109.632V20.7554H103.413V28.3136H110.542V29.3878H102.381V11.3725H110.542V12.4468H103.413V12.4497Z" fill="white"/>
<path d="M121.709 11.3755C123.529 11.3755 124.859 13.1737 124.859 15.2399V16.4848C124.859 18.1007 124.131 19.4104 123.022 20.0137C124.298 20.5082 125.154 21.9062 125.154 23.6898V25.4822C125.154 27.7073 123.827 29.3908 122.005 29.3908H115.455V11.3784H121.709V11.3755ZM116.481 19.6282H121.432C122.825 19.6282 123.869 18.3567 123.869 16.6732V15.3929C123.869 13.8213 122.822 12.4144 121.432 12.4144H116.481V19.6282ZM116.481 28.3135H121.712C123.105 28.3135 124.149 27.0421 124.149 25.338V23.5161C124.149 21.8326 123.102 20.5612 121.712 20.5612H116.481V28.3165V28.3135Z" fill="white"/>
<path d="M130.505 29.3878V11.3755H131.528V29.3878H130.505Z" fill="white"/>
<path d="M142.576 11.3725C145.237 11.3725 147.366 13.9596 147.366 17.153V23.628C147.366 26.9567 145.237 29.3878 142.576 29.3878H137.41V11.3725H142.576ZM138.442 28.3136H142.54C144.661 28.3136 146.34 26.3151 146.34 23.6545V17.1353C146.34 14.6071 144.664 12.4527 142.54 12.4527H138.442V28.3165V28.3136Z" fill="white"/>
<path d="M161.964 29.3878L160.386 23.8605H154.23L152.67 29.3878H151.593L156.706 11.3725H157.926L163.038 29.3878H161.961H161.964ZM160.172 22.7862L157.305 12.6646L154.439 22.7862H160.169H160.172Z" fill="white"/>
<path d="M166.805 15.2281C166.805 12.0377 169.086 11.2283 170.736 11.2077C172.057 11.19 173.337 11.2165 174.548 12.0347L174.491 13.2091C173.191 12.2643 171.989 12.282 170.769 12.2967C169.623 12.3143 167.849 12.8412 167.849 15.1163V15.6431C167.849 16.7733 168.472 17.6945 169.233 18.1772L172.982 20.4905C174.339 21.2852 175.147 22.5096 175.147 24.405V25.0113C175.141 27.7544 173.51 29.5674 171.273 29.5674C169.036 29.5674 167.872 29.2672 166.837 28.7138L166.888 27.5836C168.037 28.2017 169.033 28.4931 171.273 28.4931C172.86 28.4931 174.115 27.048 174.115 25.0937V24.4786C174.115 23.1453 173.474 22.1358 172.531 21.5413L168.752 19.222C167.562 18.5245 166.811 17.4326 166.808 15.7608V15.2281H166.805Z" fill="white"/>
<path d="M197.214 29.3878L195.636 23.8605H189.479L187.92 29.3878H186.843L191.955 11.3725H193.175L198.287 29.3878H197.211H197.214ZM195.421 22.7862L192.555 12.6646L189.688 22.7862H195.418H195.421Z" fill="white"/>
<path d="M211.211 28.3165V29.3878H203.03V11.3784H204.056V28.3165H211.211Z" fill="white"/>
<path d="M220.78 11.1871C221.728 11.1871 222.769 11.3666 223.581 11.5697L223.539 12.591C222.731 12.4115 221.725 12.2614 220.813 12.2584H220.246C218.125 12.2584 216.446 14.2569 216.446 16.9204V23.8164C216.446 26.4799 218.125 28.4784 220.246 28.4784H220.813C221.725 28.4784 222.731 28.3283 223.539 28.1458L223.581 29.1671C222.769 29.3702 221.728 29.5379 220.78 29.5379H220.21C217.547 29.5379 215.42 27.1216 215.42 23.7928V16.941C215.42 13.6123 217.547 11.1812 220.21 11.1812H220.78V11.1871Z" fill="white"/>
<path d="M233.57 11.2077C236.102 11.2077 238.372 13.8242 238.372 16.9881V23.8164C238.372 27.0745 236.153 29.5674 233.57 29.5674H232.774C230.033 29.5674 227.98 27.0598 227.98 23.8164V16.9881C227.98 13.8242 230.086 11.2077 232.774 11.2077H233.57ZM232.806 12.282C230.683 12.282 229.004 14.4423 229.004 16.9675V23.8428C229.004 26.5094 230.695 28.5019 232.806 28.5049H233.537C235.533 28.5049 237.346 26.5153 237.346 23.8428V16.9675C237.346 14.4334 235.533 12.2849 233.537 12.282H232.806Z" fill="white"/>
<path d="M253.041 29.3878V20.776H244.746V29.3878H243.72V11.3725H244.746V19.7018H253.041V11.3725H254.067V29.3878H253.041Z" fill="white"/>
<path d="M265.017 11.2077C267.549 11.2077 269.819 13.8242 269.819 16.9881V23.8163C269.819 27.0745 267.6 29.5674 265.017 29.5674H264.22C261.479 29.5674 259.427 27.0597 259.427 23.8163V16.9881C259.427 13.8242 261.533 11.2077 264.22 11.2077H265.017ZM264.253 12.282C262.13 12.282 260.45 14.4423 260.45 16.9675V23.8428C260.45 26.5094 262.142 28.5019 264.253 28.5049H264.984C266.979 28.5049 268.793 26.5153 268.793 23.8428V16.9675C268.793 14.4334 266.979 12.2849 264.984 12.282H264.25H264.253ZM263.293 8.85903L264.668 5.78928H265.968L264.14 8.85903H263.293Z" fill="white"/>
<path d="M283.375 28.3165V29.3878H275.193V11.3784H276.219V28.3165H283.375Z" fill="white"/>
<path d="M288.088 29.3878V11.3755H289.111V29.3878H288.088Z" fill="white"/>
<path d="M299.822 11.1871C300.77 11.1871 301.811 11.3666 302.623 11.5697L302.581 12.591C301.773 12.4115 300.767 12.2614 299.855 12.2584H299.288C297.167 12.2584 295.488 14.2569 295.488 16.9204V23.8164C295.488 26.4799 297.167 28.4784 299.288 28.4784H299.855C300.767 28.4784 301.773 28.3283 302.581 28.1458L302.623 29.1671C301.811 29.3702 300.77 29.5379 299.822 29.5379H299.252C296.589 29.5379 294.462 27.1216 294.462 23.7928V16.941C294.462 13.6123 296.589 11.1812 299.252 11.1812H299.822V11.1871Z" fill="white"/>
<path d="M316.761 29.3878L315.183 23.8605H309.026L307.466 29.3878H306.39L311.502 11.3725H312.722L317.834 29.3878H316.758H316.761ZM314.968 22.7862L312.102 12.6646L309.235 22.7862H314.965H314.968Z" fill="white"/>
<path d="M321.602 15.2281C321.602 12.0377 323.883 11.2283 325.533 11.2077C326.854 11.19 328.134 11.2165 329.345 12.0347L329.288 13.2091C327.988 12.2643 326.786 12.282 325.566 12.2967C324.42 12.3143 322.646 12.8412 322.646 15.1163V15.6431C322.646 16.7733 323.269 17.6945 324.029 18.1772L327.779 20.4905C329.136 21.2852 329.944 22.5096 329.944 24.405V25.0113C329.938 27.7544 328.307 29.5674 326.07 29.5674C323.833 29.5674 322.669 29.2672 321.634 28.7138L321.685 27.5836C322.833 28.2017 323.83 28.4931 326.07 28.4931C327.656 28.4931 328.912 27.048 328.912 25.0937V24.4786C328.912 23.1453 328.271 22.1358 327.328 21.5413L323.549 19.222C322.359 18.5245 321.608 17.4326 321.605 15.7608V15.2281H321.602Z" fill="white"/>
<path d="M343.778 12.4497V19.6812H349.997V20.7554H343.778V28.3136H350.907V29.3878H342.746V11.3725H350.907V12.4468H343.778V12.4497Z" fill="white"/>
<path d="M365.03 29.3878L356.622 13.4475V29.3878H355.607V11.3755H356.675L365.083 27.3541V11.3755H366.101V29.3878H365.03Z" fill="white"/>
<path d="M380.671 12.4497V19.6812H386.89V20.7554H380.671V28.3136H387.8V29.3878H379.639V11.3725H387.8V12.4468H380.671V12.4497Z" fill="white"/>
<path d="M401.338 29.3878H400.229L396.393 21.3529L392.56 29.3878H391.451L395.802 20.3816L391.469 11.3755H392.578L396.411 19.4133L400.247 11.3755H401.356L397.025 20.3816L401.338 29.3878Z" fill="white"/>
<path d="M410.802 11.1871C411.751 11.1871 412.792 11.3666 413.603 11.5697L413.561 12.591C412.753 12.4115 411.748 12.2614 410.835 12.2584H410.268C408.148 12.2584 406.468 14.2569 406.468 16.9204V23.8164C406.468 26.4799 408.148 28.4784 410.268 28.4784H410.835C411.748 28.4784 412.753 28.3283 413.561 28.1458L413.603 29.1671C412.792 29.3702 411.751 29.5379 410.802 29.5379H410.233C407.569 29.5379 405.442 27.1216 405.442 23.7928V16.941C405.442 13.6123 407.569 11.1812 410.233 11.1812H410.802V11.1871Z" fill="white"/>
<path d="M419.509 12.4497V19.6812H425.728V20.7554H419.509V28.3136H426.638V29.3878H418.477V11.3725H426.638V12.4468H419.509V12.4497Z" fill="white"/>
<path d="M430.596 15.2281C430.596 12.0377 432.877 11.2283 434.527 11.2077C435.848 11.19 437.128 11.2165 438.339 12.0347L438.282 13.2091C436.982 12.2643 435.78 12.282 434.56 12.2967C433.414 12.3143 431.64 12.8412 431.64 15.1163V15.6431C431.64 16.7733 432.263 17.6945 433.024 18.1772L436.773 20.4905C438.13 21.2852 438.938 22.5096 438.938 24.405V25.0113C438.932 27.7544 437.301 29.5674 435.064 29.5674C432.827 29.5674 431.664 29.2672 430.629 28.7138L430.679 27.5836C431.828 28.2017 432.824 28.4931 435.064 28.4931C436.651 28.4931 437.906 27.048 437.906 25.0937V24.4786C437.906 23.1453 437.265 22.1358 436.322 21.5413L432.543 19.222C431.353 18.5245 430.602 17.4326 430.599 15.7608V15.2281H430.596Z" fill="white"/>
<path d="M448.943 11.2077C451.475 11.2077 453.745 13.8242 453.745 16.9881V23.8164C453.745 27.0745 451.526 29.5674 448.943 29.5674H448.146C445.405 29.5674 443.353 27.0598 443.353 23.8164V16.9881C443.353 13.8242 445.459 11.2077 448.146 11.2077H448.943ZM448.179 12.282C446.055 12.282 444.376 14.4423 444.376 16.9675V23.8428C444.376 26.5094 446.067 28.5019 448.179 28.5049H448.91C450.905 28.5049 452.719 26.5153 452.719 23.8428V16.9675C452.719 14.4334 450.905 12.2849 448.91 12.282H448.179Z" fill="white"/>
<path d="M468.011 12.4497V19.6812H474.23V20.7554H468.011V28.3136H475.14V29.3878H466.979V11.3725H475.14V12.4468H468.011V12.4497Z" fill="white"/>
<path d="M479.101 15.2281C479.101 12.0377 481.382 11.2283 483.032 11.2077C484.353 11.19 485.633 11.2165 486.844 12.0347L486.787 13.2091C485.487 12.2643 484.285 12.282 483.065 12.2967C481.919 12.3143 480.145 12.8412 480.145 15.1163V15.6431C480.145 16.7733 480.768 17.6945 481.529 18.1772L485.278 20.4905C486.635 21.2852 487.443 22.5096 487.443 24.405V25.0113C487.437 27.7544 485.806 29.5674 483.569 29.5674C481.332 29.5674 480.168 29.2672 479.133 28.7138L479.184 27.5836C480.332 28.2017 481.329 28.4931 483.569 28.4931C485.155 28.4931 486.411 27.048 486.411 25.0937V24.4786C486.411 23.1453 485.77 22.1358 484.827 21.5413L481.048 19.222C479.858 18.5245 479.107 17.4326 479.104 15.7608V15.2281H479.101Z" fill="white"/>
<path d="M505.462 11.3725C508.123 11.3725 510.252 13.9596 510.252 17.153V23.628C510.252 26.9567 508.126 29.3878 505.462 29.3878H500.296V11.3725H505.462ZM501.328 28.3136H505.426C507.547 28.3136 509.226 26.3151 509.226 23.6545V17.1353C509.226 14.6071 507.55 12.4527 505.426 12.4527H501.328V28.3165V28.3136Z" fill="white"/>
<path d="M524.852 29.3878L523.274 23.8605H517.118L515.558 29.3878H514.481L519.594 11.3725H520.814L525.926 29.3878H524.849H524.852ZM523.06 22.7862L520.193 12.6646L517.327 22.7862H523.057H523.06Z" fill="white"/>
<path d="M539.855 29.3878L531.447 13.4445V29.3878H530.433V11.3755H531.504L539.912 27.3541V11.3755H540.929V29.3878H539.858H539.855ZM538.65 7.14608C538.188 7.74061 537.672 8.14971 537.195 8.14971C536.718 8.14971 536.217 7.85245 535.829 7.51987C535.441 7.16374 534.976 6.78701 534.507 6.78701C534.081 6.78701 533.535 7.31385 533.15 7.69646L532.7 7.03424C533.261 6.46032 533.893 5.88345 534.516 5.88345C535.205 5.88345 535.677 6.29256 536.13 6.71343C536.44 7.0107 536.798 7.24321 537.192 7.24321C537.472 7.24321 537.827 6.92829 538.146 6.52507L538.656 7.14314L538.65 7.14608Z" fill="white"/>
<path d="M546.582 29.3878V11.3755H547.605V29.3878H546.582Z" fill="white"/>
<path d="M562.673 29.3878L554.265 13.4475V29.3878H553.251V11.3755H554.319L562.727 27.3541V11.3755H563.744V29.3878H562.673Z" fill="white"/>
<path d="M574.485 11.2077C577.017 11.2077 579.287 13.8242 579.287 16.9881V23.8164C579.287 27.0745 577.068 29.5674 574.485 29.5674H573.688C570.947 29.5674 568.895 27.0598 568.895 23.8164V16.9881C568.895 13.8242 571.001 11.2077 573.688 11.2077H574.485ZM573.721 12.282C571.597 12.282 569.918 14.4423 569.918 16.9675V23.8428C569.918 26.5094 571.609 28.5019 573.721 28.5049H574.452C576.447 28.5049 578.261 26.5153 578.261 23.8428V16.9675C578.261 14.4334 576.447 12.2849 574.452 12.282H573.721Z" fill="white"/>
</g>
<path opacity="0.5" d="M0 0.176605H580" stroke="white" stroke-width="1.2" stroke-miterlimit="10"/>
</g>
<defs>
<clipPath id="clip0_21_497">
<rect width="580" height="29.5703" fill="white"/>
</clipPath>
</defs>
</svg>
