<svg width="360" height="19" viewBox="0 0 360 19" fill="none" xmlns="http://www.w3.org/2000/svg">
<g opacity="0.8" clip-path="url(#clip0_523_1518)">
<g opacity="0.5">
<path d="M3.58047 7.7238V18.2426H2.94361V7.7238H0.00738525V7.06067H6.43338V7.7238H3.57861H3.58047Z" fill="white"/>
<path d="M12.5132 6.95654C14.085 6.95654 15.4938 8.58058 15.4938 10.5444V14.7826C15.4938 16.8049 14.1164 18.3522 12.5132 18.3522H12.0189C10.3175 18.3522 9.04376 16.7957 9.04376 14.7826V10.5444C9.04376 8.58058 10.3508 6.95654 12.0189 6.95654H12.5132ZM12.0392 7.62333C10.7211 7.62333 9.67877 8.96421 9.67877 10.5316V14.799C9.67877 16.4541 10.7285 17.6909 12.0392 17.6927H12.4928C13.7313 17.6927 14.857 16.4578 14.857 14.799V10.5316C14.857 8.95873 13.7313 7.62516 12.4928 7.62333H12.0392Z" fill="white"/>
<path d="M26.5204 18.2408L26.2334 8.48924L23.1565 15.2831H22.6789L19.6019 8.48924L19.3094 18.2408H18.6818L19.0206 7.06067H19.6519L22.9103 14.3588L26.1723 7.06067H26.8055L27.1498 18.2408H26.5204Z" fill="white"/>
<path d="M36.388 18.2407L35.4087 14.81H31.5875L30.6193 18.2407H29.9509L33.1241 7.05884H33.8813L37.0545 18.2407H36.3862H36.388ZM35.2754 14.1432L33.4962 7.86081L31.7171 14.1432H35.2735H35.2754Z" fill="white"/>
<path d="M43.8415 7.06067C45.043 7.06067 45.9243 8.23896 45.9243 9.62368V11.0632C45.9243 12.3639 45.1782 13.3668 44.2062 13.4947L45.9909 18.2426H45.2652L43.5712 13.6262H40.6183V18.2426H39.9833V7.0625H43.8415V7.06067ZM40.622 12.9576H43.7767C44.6302 12.9576 45.2911 12.1703 45.2911 11.1107V9.58532C45.2911 8.6098 44.6302 7.73659 43.7767 7.73659H40.622V12.9576Z" fill="white"/>
<path d="M58.1061 7.06067C59.2354 7.06067 60.0611 8.17685 60.0611 9.45927V10.232C60.0611 11.2349 59.6094 12.0479 58.9207 12.4224C59.713 12.7293 60.2444 13.597 60.2444 14.704V15.8166C60.2444 17.1976 59.4205 18.2426 58.2894 18.2426H54.2238V7.0625H58.1061V7.06067ZM54.8607 12.183H57.9339C58.7985 12.183 59.4464 11.3939 59.4464 10.3489V9.55427C59.4464 8.57875 58.7966 7.70553 57.9339 7.70553H54.8607V12.183ZM54.8607 17.574H58.1079C58.9725 17.574 59.6205 16.7848 59.6205 15.7271V14.5963C59.6205 13.5513 58.9706 12.7621 58.1079 12.7621H54.8607V17.5758V17.574Z" fill="white"/>
<path d="M64.1877 7.72745V12.2159H68.0477V12.8827H64.1877V17.574H68.6124V18.2407H63.5471V7.05884H68.6124V7.72562H64.1877V7.72745Z" fill="white"/>
<path d="M75.5438 7.06067C76.6731 7.06067 77.4988 8.17685 77.4988 9.45927V10.232C77.4988 11.2349 77.0471 12.0479 76.3584 12.4224C77.1508 12.7293 77.6821 13.597 77.6821 14.704V15.8166C77.6821 17.1976 76.8583 18.2426 75.7271 18.2426H71.6616V7.0625H75.5438V7.06067ZM72.2984 12.183H75.3716C76.2362 12.183 76.8842 11.3939 76.8842 10.3489V9.55427C76.8842 8.57875 76.2344 7.70553 75.3716 7.70553H72.2984V12.183ZM72.2984 17.574H75.5457C76.4102 17.574 77.0582 16.7848 77.0582 15.7271V14.5963C77.0582 13.5513 76.4084 12.7621 75.5457 12.7621H72.2984V17.5758V17.574Z" fill="white"/>
<path d="M81.0034 18.2408V7.06067H81.6384V18.2408H81.0034Z" fill="white"/>
<path d="M88.4958 7.05884C90.1472 7.05884 91.469 8.6646 91.469 10.6467V14.6657C91.469 16.7318 90.1472 18.2407 88.4958 18.2407H85.2892V7.05884H88.4958ZM85.9298 17.574H88.4735C89.7898 17.574 90.8322 16.3336 90.8322 14.6821V10.6357C90.8322 9.0665 89.7917 7.72928 88.4735 7.72928H85.9298V17.5758V17.574Z" fill="white"/>
<path d="M100.529 18.2407L99.5501 14.81H95.7289L94.7607 18.2407H94.0923L97.2655 7.05884H98.0227L101.196 18.2407H100.528H100.529ZM99.4168 14.1432L97.6377 7.86081L95.8585 14.1432H99.4149H99.4168Z" fill="white"/>
<path d="M103.534 9.45202C103.534 7.47176 104.95 6.96939 105.974 6.9566C106.794 6.94564 107.589 6.96208 108.34 7.46993L108.305 8.19883C107.498 7.61242 106.752 7.62338 105.995 7.63252C105.284 7.64348 104.182 7.97048 104.182 9.3826V9.7096C104.182 10.4111 104.569 10.9829 105.041 11.2825L107.368 12.7184C108.211 13.2116 108.712 13.9716 108.712 15.148V15.5243C108.709 17.2269 107.696 18.3522 106.307 18.3522C104.919 18.3522 104.197 18.1659 103.555 17.8225L103.586 17.121C104.299 17.5046 104.917 17.6855 106.307 17.6855C107.292 17.6855 108.072 16.7885 108.072 15.5755V15.1937C108.072 14.3661 107.674 13.7395 107.089 13.3705L104.743 11.931C104.004 11.4981 103.538 10.8203 103.536 9.78268V9.45202H103.534Z" fill="white"/>
<path d="M122.409 18.2407L121.429 14.81H117.608L116.64 18.2407H115.971L119.145 7.05884H119.902L123.075 18.2407H122.407H122.409ZM121.296 14.1432L119.517 7.86081L117.738 14.1432H121.294H121.296Z" fill="white"/>
<path d="M131.097 17.5758V18.2408H126.019V7.0625H126.656V17.5758H131.097Z" fill="white"/>
<path d="M137.036 6.94372C137.625 6.94372 138.271 7.05515 138.774 7.1812L138.748 7.81511C138.247 7.70367 137.623 7.6105 137.056 7.60868H136.705C135.388 7.60868 134.346 8.84908 134.346 10.5023V14.7826C134.346 16.4358 135.388 17.6762 136.705 17.6762H137.056C137.623 17.6762 138.247 17.5831 138.748 17.4698L138.774 18.1037C138.271 18.2298 137.625 18.3339 137.036 18.3339H136.682C135.029 18.3339 133.709 16.8341 133.709 14.7679V10.5151C133.709 8.44901 135.029 6.94006 136.682 6.94006H137.036V6.94372Z" fill="white"/>
<path d="M144.975 6.95654C146.546 6.95654 147.955 8.58058 147.955 10.5444V14.7826C147.955 16.8049 146.578 18.3522 144.975 18.3522H144.48C142.779 18.3522 141.505 16.7957 141.505 14.7826V10.5444C141.505 8.58058 142.812 6.95654 144.48 6.95654H144.975ZM144.501 7.62333C143.182 7.62333 142.14 8.96421 142.14 10.5316V14.799C142.14 16.4541 143.19 17.6909 144.501 17.6927H144.954C146.193 17.6927 147.318 16.4578 147.318 14.799V10.5316C147.318 8.95873 146.193 7.62516 144.954 7.62333H144.501Z" fill="white"/>
<path d="M157.06 18.2407V12.8955H151.912V18.2407H151.275V7.05884H151.912V12.2287H157.06V7.05884H157.697V18.2407H157.06Z" fill="white"/>
<path d="M164.493 6.95654C166.065 6.95654 167.474 8.58058 167.474 10.5444V14.7826C167.474 16.8049 166.096 18.3522 164.493 18.3522H163.999C162.298 18.3522 161.024 16.7957 161.024 14.7826V10.5444C161.024 8.58058 162.331 6.95654 163.999 6.95654H164.493ZM164.019 7.62333C162.701 7.62333 161.659 8.96421 161.659 10.5316V14.799C161.659 16.4541 162.709 17.6909 164.019 17.6927H164.473C165.711 17.6927 166.837 16.4578 166.837 14.799V10.5316C166.837 8.95873 165.711 7.62515 164.473 7.62333H164.017H164.019ZM163.423 5.49875L164.277 3.59338H165.084L163.949 5.49875H163.423Z" fill="white"/>
<path d="M175.888 17.5758V18.2408H170.81V7.0625H171.447V17.5758H175.888Z" fill="white"/>
<path d="M178.813 18.2408V7.06067H179.448V18.2408H178.813Z" fill="white"/>
<path d="M186.096 6.94372C186.685 6.94372 187.331 7.05515 187.835 7.1812L187.809 7.81511C187.307 7.70367 186.683 7.6105 186.117 7.60868H185.765C184.449 7.60868 183.406 8.84908 183.406 10.5023V14.7826C183.406 16.4358 184.449 17.6762 185.765 17.6762H186.117C186.683 17.6762 187.307 17.5831 187.809 17.4698L187.835 18.1037C187.331 18.2298 186.685 18.3339 186.096 18.3339H185.743C184.09 18.3339 182.77 16.8341 182.77 14.7679V10.5151C182.77 8.44901 184.09 6.94006 185.743 6.94006H186.096V6.94372Z" fill="white"/>
<path d="M196.61 18.2407L195.631 14.81H191.81L190.841 18.2407H190.173L193.346 7.05884H194.103L197.277 18.2407H196.608H196.61ZM195.498 14.1432L193.718 7.86081L191.939 14.1432H195.496H195.498Z" fill="white"/>
<path d="M199.615 9.45202C199.615 7.47176 201.031 6.96939 202.055 6.9566C202.875 6.94564 203.669 6.96208 204.421 7.46993L204.386 8.19883C203.579 7.61242 202.832 7.62338 202.075 7.63252C201.364 7.64348 200.263 7.97048 200.263 9.3826V9.7096C200.263 10.4111 200.65 10.9829 201.122 11.2825L203.449 12.7184C204.291 13.2116 204.793 13.9716 204.793 15.148V15.5243C204.789 17.2269 203.777 18.3522 202.388 18.3522C201 18.3522 200.278 18.1659 199.635 17.8225L199.667 17.121C200.379 17.5046 200.998 17.6855 202.388 17.6855C203.373 17.6855 204.152 16.7885 204.152 15.5755V15.1937C204.152 14.3661 203.754 13.7395 203.169 13.3705L200.824 11.931C200.085 11.4981 199.619 10.8203 199.617 9.78268V9.45202H199.615Z" fill="white"/>
<path d="M213.38 7.72745V12.2159H217.24V12.8827H213.38V17.574H217.804V18.2407H212.739V7.05884H217.804V7.72562H213.38V7.72745Z" fill="white"/>
<path d="M226.57 18.2408L221.351 8.34674V18.2408H220.722V7.06067H221.385L226.604 16.9784V7.06067H227.235V18.2408H226.57Z" fill="white"/>
<path d="M236.279 7.72745V12.2159H240.139V12.8827H236.279V17.574H240.704V18.2407H235.638V7.05884H240.704V7.72562H236.279V7.72745Z" fill="white"/>
<path d="M249.107 18.2408H248.418L246.037 13.2536L243.658 18.2408H242.969L245.671 12.6507L242.981 7.06067H243.669L246.048 12.0497L248.429 7.06067H249.118L246.43 12.6507L249.107 18.2408Z" fill="white"/>
<path d="M254.981 6.94372C255.57 6.94372 256.216 7.05515 256.719 7.1812L256.694 7.81511C256.192 7.70367 255.568 7.6105 255.001 7.60868H254.65C253.333 7.60868 252.291 8.84908 252.291 10.5023V14.7826C252.291 16.4358 253.333 17.6762 254.65 17.6762H255.001C255.568 17.6762 256.192 17.5831 256.694 17.4698L256.719 18.1037C256.216 18.2298 255.57 18.3339 254.981 18.3339H254.627C252.974 18.3339 251.654 16.8341 251.654 14.7679V10.5151C251.654 8.44901 252.974 6.94006 254.627 6.94006H254.981V6.94372Z" fill="white"/>
<path d="M260.385 7.72745V12.2159H264.245V12.8827H260.385V17.574H264.81V18.2407H259.745V7.05884H264.81V7.72562H260.385V7.72745Z" fill="white"/>
<path d="M267.266 9.45202C267.266 7.47176 268.683 6.96939 269.707 6.9566C270.527 6.94564 271.321 6.96208 272.073 7.46993L272.037 8.19883C271.23 7.61242 270.484 7.62338 269.727 7.63252C269.016 7.64348 267.914 7.97048 267.914 9.3826V9.7096C267.914 10.4111 268.301 10.9829 268.773 11.2825L271.101 12.7184C271.943 13.2116 272.445 13.9716 272.445 15.148V15.5243C272.441 17.2269 271.428 18.3522 270.04 18.3522C268.651 18.3522 267.929 18.1659 267.287 17.8225L267.318 17.121C268.031 17.5046 268.649 17.6855 270.04 17.6855C271.025 17.6855 271.804 16.7885 271.804 15.5755V15.1937C271.804 14.3661 271.406 13.7395 270.821 13.3705L268.475 11.931C267.737 11.4981 267.27 10.8203 267.268 9.78268V9.45202H267.266Z" fill="white"/>
<path d="M278.654 6.95654C280.226 6.95654 281.635 8.58058 281.635 10.5444V14.7826C281.635 16.8049 280.257 18.3522 278.654 18.3522H278.16C276.458 18.3522 275.185 16.7957 275.185 14.7826V10.5444C275.185 8.58058 276.492 6.95654 278.16 6.95654H278.654ZM278.18 7.62333C276.862 7.62333 275.82 8.96421 275.82 10.5316V14.799C275.82 16.4541 276.869 17.6909 278.18 17.6927H278.634C279.872 17.6927 280.998 16.4578 280.998 14.799V10.5316C280.998 8.95873 279.872 7.62516 278.634 7.62333H278.18Z" fill="white"/>
<path d="M290.49 7.72745V12.2159H294.35V12.8827H290.49V17.574H294.914V18.2407H289.849V7.05884H294.914V7.72562H290.49V7.72745Z" fill="white"/>
<path d="M297.373 9.45202C297.373 7.47176 298.789 6.96939 299.813 6.9566C300.633 6.94564 301.427 6.96208 302.179 7.46993L302.144 8.19883C301.337 7.61242 300.591 7.62338 299.833 7.63252C299.122 7.64348 298.021 7.97048 298.021 9.3826V9.7096C298.021 10.4111 298.408 10.9829 298.88 11.2825L301.207 12.7184C302.049 13.2116 302.551 13.9716 302.551 15.148V15.5243C302.547 17.2269 301.535 18.3522 300.146 18.3522C298.758 18.3522 298.036 18.1659 297.393 17.8225L297.425 17.121C298.138 17.5046 298.756 17.6855 300.146 17.6855C301.131 17.6855 301.911 16.7885 301.911 15.5755V15.1937C301.911 14.3661 301.513 13.7395 300.927 13.3705L298.582 11.931C297.843 11.4981 297.377 10.8203 297.375 9.78268V9.45202H297.373Z" fill="white"/>
<path d="M313.735 7.05884C315.386 7.05884 316.708 8.6646 316.708 10.6467V14.6657C316.708 16.7318 315.388 18.2407 313.735 18.2407H310.529V7.05884H313.735ZM311.169 17.574H313.713C315.029 17.574 316.071 16.3336 316.071 14.6821V10.6357C316.071 9.0665 315.031 7.72928 313.713 7.72928H311.169V17.5758V17.574Z" fill="white"/>
<path d="M325.771 18.2407L324.791 14.81H320.97L320.002 18.2407H319.333L322.507 7.05884H323.264L326.437 18.2407H325.769H325.771ZM324.658 14.1432L322.879 7.86081L321.1 14.1432H324.656H324.658Z" fill="white"/>
<path d="M335.083 18.2408L329.864 8.34493V18.2408H329.234V7.06068H329.899L335.118 16.9784V7.06068H335.749V18.2408H335.085H335.083ZM334.335 4.43556C334.048 4.80457 333.728 5.0585 333.431 5.0585C333.135 5.0585 332.824 4.87399 332.583 4.66756C332.343 4.44652 332.054 4.21269 331.763 4.21269C331.499 4.21269 331.16 4.53969 330.921 4.77717L330.641 4.36614C330.989 4.00991 331.382 3.65186 331.769 3.65186C332.197 3.65186 332.489 3.90578 332.77 4.16702C332.963 4.35152 333.185 4.49584 333.43 4.49584C333.604 4.49584 333.824 4.30037 334.022 4.0501L334.339 4.43373L334.335 4.43556Z" fill="white"/>
<path d="M339.258 18.2408V7.06067H339.893V18.2408H339.258Z" fill="white"/>
<path d="M349.246 18.2408L344.027 8.34674V18.2408H343.397V7.06067H344.06L349.279 16.9784V7.06067H349.91V18.2408H349.246Z" fill="white"/>
<path d="M356.577 6.95654C358.149 6.95654 359.557 8.58058 359.557 10.5444V14.7826C359.557 16.8049 358.18 18.3522 356.577 18.3522H356.083C354.381 18.3522 353.107 16.7957 353.107 14.7826V10.5444C353.107 8.58058 354.414 6.95654 356.083 6.95654H356.577ZM356.103 7.62333C354.785 7.62333 353.742 8.96421 353.742 10.5316V14.799C353.742 16.4541 354.792 17.6909 356.103 17.6927H356.556C357.795 17.6927 358.921 16.4578 358.921 14.799V10.5316C358.921 8.95873 357.795 7.62516 356.556 7.62333H356.103Z" fill="white"/>
</g>
</g>
<defs>
<clipPath id="clip0_523_1518">
<rect width="360" height="18.354" fill="white"/>
</clipPath>
</defs>
</svg>
