<svg width="40" height="44" viewBox="0 0 40 44" fill="none" xmlns="http://www.w3.org/2000/svg">
<g clip-path="url(#clip0_176_1180)">
<path d="M29.2491 18.9456L21.5882 33.3463C20.8566 34.5255 19.1436 34.5255 18.412 33.3463L10.7684 18.9628C9.65796 16.9658 8.75415 14.9258 8.75415 12.5329C8.75415 6.3181 13.7897 1.28259 20.0044 1.28259C26.2192 1.28259 31.2547 6.3181 31.2547 12.5329C31.2547 14.943 30.3853 16.9142 29.2577 18.937L29.2491 18.9456Z" stroke="#3F3F3F" stroke-width="3" stroke-miterlimit="10"/>
<path d="M19.9958 17.1294C22.7625 17.1294 25.0055 14.8864 25.0055 12.1197C25.0055 9.3529 22.7625 7.10999 19.9958 7.10999C17.229 7.10999 14.9861 9.3529 14.9861 12.1197C14.9861 14.8864 17.229 17.1294 19.9958 17.1294Z" stroke="#3F3F3F" stroke-width="3" stroke-miterlimit="10"/>
<path d="M24.3081 26.899H30.6864C32.1841 26.899 33.5699 27.7168 34.293 29.0252L38.3558 36.3761C39.8708 39.122 37.891 42.4876 34.7492 42.4876H5.2506C2.11739 42.4876 0.129014 39.122 1.64397 36.3761L5.70681 29.0252C6.42985 27.7168 7.81569 26.899 9.31343 26.899H14.831" stroke="#3F3F3F" stroke-width="2.62" stroke-miterlimit="10"/>
<path d="M2.83203 34.2328H8.07412C9.76984 34.2328 11.4139 34.8525 12.6792 35.9802L16.0879 39.0101L19.9958 42.4876" stroke="#3F3F3F" stroke-width="2.62" stroke-miterlimit="10"/>
<path d="M19.0059 33.9487L14.2114 37.3488" stroke="#3F3F3F" stroke-width="2.62" stroke-miterlimit="10"/>
<path d="M22.7759 31.1255L36.8667 41.9023" stroke="#3F3F3F" stroke-width="2.62" stroke-miterlimit="10"/>
</g>
<defs>
<clipPath id="clip0_176_1180">
<rect width="40" height="43.6152" fill="white"/>
</clipPath>
</defs>
</svg>
